{
.appVersion = "3091";
copyright = "Copyright 2021 The Albert Sans Project Authors (https://github.com/usted/Albert-Sans)";
customParameters = (
{
name = "Use Typo Metrics";
value = 1;
},
{
name = fsType;
value = (
);
},
{
name = "Variable Font Origin";
value = "9F107B1E-3A61-4335-981B-27DD48125C7E";
},
{
name = "Use Line Breaks";
value = 1;
},
{
name = license;
value = "This Font Software is licensed under the SIL Open Font License, Version 1.1. This license is available with a FAQ at: https://scripts.sil.org/OFL";
},
{
name = licenseURL;
value = "https://scripts.sil.org/OFL";
},
{
name = Axes;
value = (
{
Name = Weight;
Tag = wght;
}
);
}
);
date = "2021-08-28 16:00:04 +0000";
designer = "Andreas Rasmussen";
designerURL = "https://www.andreasrasmussen.net";
familyName = "Albert Sans";
fontMaster = (
{
ascender = 720;
capHeight = 700;
custom = Thin;
customParameters = (
{
name = typoAscender;
value = 950;
},
{
name = typoDescender;
value = -250;
},
{
name = typoLineGap;
value = 0;
},
{
name = winAscent;
value = 1100;
},
{
name = winDescent;
value = 320;
},
{
name = underlineThickness;
value = 50;
},
{
name = underlinePosition;
value = -100;
},
{
name = strikeoutPosition;
value = 300;
},
{
name = strikeoutSize;
value = 50;
},
{
name = subscriptXOffset;
value = 0;
},
{
name = subscriptXSize;
value = 650;
},
{
name = subscriptYOffset;
value = 75;
},
{
name = subscriptYSize;
value = 600;
},
{
name = superscriptXOffset;
value = 0;
},
{
name = superscriptXSize;
value = 650;
},
{
name = superscriptYOffset;
value = 350;
},
{
name = superscriptYSize;
value = 600;
},
{
name = hheaAscender;
value = 950;
},
{
name = hheaDescender;
value = -250;
},
{
name = hheaLineGap;
value = 0;
}
);
descender = -200;
guideLines = (
{
locked = 1;
position = "{0, 250}";
},
{
position = "{0, -186}";
},
{
position = "{0, 711}";
}
);
horizontalStems = (
20
);
iconName = Light;
id = "6E968933-CD79-43C6-9231-80D77C940F4D";
verticalStems = (
22
);
weightValue = 0;
xHeight = 500;
},
{

glyphs = (
{
glyphname = A;
lastChange = "2021-08-28 17:38:40 +0000";
layers = (
{
anchors = (
{
name = ogonek;
position = "{636.5, 0}";
},
{
name = top;
position = "{354.5, 700}";
}
);
guideLines = (
{
angle = -70.8724;
position = "{553.5, 86.5}";
},
{
angle = 70.5773;
position = "{156, 86.5}";
}
);
hints = (
{
horizontal = 1;
place = "{175, 92}";
type = Stem;
},
{
horizontal = 1;
place = "{700, -20}";
target = down;
type = TopGhost;
},
{
horizontal = 1;
place = "{0, 21}";
target = up;
type = BottomGhost;
}
);
layerId = "0CF0EA28-C756-4A9E-9D7C-CFEF350B4CFE";
paths = (
{
closed = 1;
nodes = (
"125.5 0 LINE",
"186.5 173 LINE",
"523.5 173 LINE",
"583.5 0 LINE",
"701.5 0 LINE",
"452.5 700 LINE",
"256.5 700 LINE",
"8.5 0 LINE"
);
},
{
closed = 1;
nodes = (
"491.5 268 LINE",
"219.5 268 LINE",
"337.5 605 LINE",
"373.5 605 LINE"
);
}
);
width = 710;
},
{
anchors = (
{
name = ogonek;
position = "{579, 0}";
},
{
name = top;
position = "{310, 697}";
}
);
guideLines = (
{
angle = -69.1455;
position = "{543, 105}";
},
{
angle = 68.9077;
position = "{73.5, 105}";
}
);
hints = (
{
horizontal = 1;
place = "{700, -20}";
target = down;
type = TopGhost;
},
{
horizontal = 1;
place = "{0, 21}";
target = up;
type = BottomGhost;
}
);
layerId = "6E968933-CD79-43C6-9231-80D77C940F4D";
paths = (
{
closed = 1;
nodes = (
"33 0 LINE",
"114 210 LINE",
"503 210 LINE",
"583 0 LINE",
"606 0 LINE",
"339 700 LINE",
"278 700 LINE",
"10 0 LINE"
);
},
{
closed = 1;
nodes = (
"496 230 LINE",
"121 230 LINE",
"293 680 LINE",
"325 680 LINE"
);
}
);
width = 615.99653;
},
{
anchors = (
{
name = ogonek;
position = "{713.5, 1}";
},
{
name = top;
position = "{398.5, 700}";
}
);
guideLines = (
{
angle = -70.3462;
position = "{586.5, 70}";
},
{
angle = 70.71;
position = "{210, 70}";
}
);
hints = (
{
horizontal = 1;
place = "{375, 141}";
type = Stem;
},
{
horizontal = 1;
place = "{297, -20}";
target = down;
type = TopGhost;
},
{
horizontal = 1;
place = "{0, 21}";
target = up;
type = BottomGhost;
}
);
layerId = "BAF31694-0472-4296-B0EA-1654553C45D2";
paths = (
{
closed = 1;
nodes = (
"185.5 0 LINE",
"234.5 140 LINE",
"561.5 140 LINE",
"611.5 0 LINE",
"790.5 0 LINE",
"536.5 700 LINE",
"261.5 700 LINE",
"5.5 0 LINE"
);
},
{
closed = 1;
nodes = (
"508.5 286 LINE",
"285.5 286 LINE",
"379.5 554 LINE",
"414.5 554 LINE"
);
}
);
width = 795.9967;
},
{
anchors = (
{
name = ogonek;
position = "{615, 0}";
},
{
name = top;
position = "{337, 699}";
}
);
guideLines = (
{
angle = 69.7174;
position = "{124, 92}";
},
{
angle = -69.9919;
position = "{549.5, 92}";
}
);
hints = (
{
horizontal = 1;
place = "{700, -20}";
target = down;
type = TopGhost;
},
{
horizontal = 1;
place = "{0, 21}";
target = up;
type = BottomGhost;
}
);
layerId = "9F107B1E-3A61-4335-981B-27DD48125C7E";
paths = (
{
closed = 1;
nodes = (
"90 0 LINE",
"158 184 LINE",
"516 184 LINE",
"583 0 LINE",
"665 0 LINE",
"410 700 LINE",
"265 700 LINE",
"9 0 LINE"
);
},
{
closed = 1;
nodes = (
"491 254 LINE",
"184 254 LINE",
"321 630 LINE",
"354 630 LINE"
);
}
);
width = 673.9967;
}
);
leftMetricsKey = "=H*0.1";
rightMetricsKey = "=H*0.1";
unicode = 0041;
},
{
glyphname = Aacute;
lastChange = "2021-08-28 10:10:50 +0000";
layers = (
{
components = (
{
alignment = -1;
name = A;
},
{
name = acute;
transform = "{1, 0, 0, 1.007, 223.75, 145.143}";
}
);
layerId = "0CF0EA28-C756-4A9E-9D7C-CFEF350B4CFE";
width = 710;
},
{
background = {
hints = (
{
horizontal = 1;
place = "{0, 21}";
type = Stem;
},
{
horizontal = 1;
place = "{196, 47}";
type = Stem;
},
{
horizontal = 1;
place = "{685, 20}";
type = Stem;
},
{
horizontal = 1;
place = "{765, 21}";
type = Stem;
},
{
horizontal = 1;
place = "{878, 20}";
type = Stem;
}
);
paths = (
{
closed = 1;
nodes = (
"746 0 LINE",
"420 705 LINE",
"370 705 LINE",
"44 0 LINE",
"98 0 LINE",
"187 196 LINE",
"600 196 LINE",
"689 0 LINE"
);
},
{
closed = 1;
nodes = (
"578 243 LINE",
"209 243 LINE",
"394 648 LINE"
);
},
{
closed = 1;
nodes = (
"420 765 LINE",
"527 868 LINE",
"466 898 LINE",
"378 765 LINE"
);
}
);
};
components = (
{
alignment = -1;
name = A;
},
{
alignment = -1;
name = acute;
transform = "{1, 0, 0, 0.9943, 189, 160}";
}
);
layerId = "6E968933-CD79-43C6-9231-80D77C940F4D";
width = 615.99574;
},
{
components = (
{
alignment = -1;
name = A;
},
{
alignment = -1;
name = acute;
transform = "{1, 0, 0, 0.9943, 270, 145}";
}
);
layerId = "BAF31694-0472-4296-B0EA-1654553C45D2";
width = 796.00047;
},
{
components = (
{
alignment = -1;
name = A;
},
{
alignment = -1;
name = acute;
transform = "{1, 0, 0, 1.0022, 211, 151}";
}
);
layerId = "9F107B1E-3A61-4335-981B-27DD48125C7E";
width = 674.00465;
}
);
leftMetricsKey = A;
rightMetricsKey = A;
unicode = 00C1;
},
{
glyphname = Acircumflex;
lastChange = "2021-08-28 10:10:50 +0000";
layers = (
{
components = (
{
alignment = -1;
name = A;
},
{
name = circumflex;
transform = "{1, 0, 0, 1.007, 198.75, 145.143}";
}
);
layerId = "0CF0EA28-C756-4A9E-9D7C-CFEF350B4CFE";
width = 710;
},
{
background = {
hints = (
{
horizontal = 1;
place = "{0, 21}";
type = Stem;
},
{
horizontal = 1;
place = "{196, 47}";
type = Stem;
},
{
horizontal = 1;
place = "{685, 20}";
type = Stem;
},
{
horizontal = 1;
place = "{760, 21}";
type = Stem;
},
{
horizontal = 1;
place = "{862, 20}";
type = Stem;
}
);
paths = (
{
closed = 1;
nodes = (
"746 0 LINE",
"420 705 LINE",
"370 705 LINE",
"44 0 LINE",
"98 0 LINE",
"187 196 LINE",
"600 196 LINE",
"689 0 LINE"
);
},
{
closed = 1;
nodes = (
"578 243 LINE",
"209 243 LINE",
"394 648 LINE"
);
},
{
closed = 1;
nodes = (
"394 828 LINE",
"468 760 LINE",
"515 760 LINE",
"415 882 LINE",
"375 882 LINE",
"275 760 LINE",
"320 760 LINE"
);
}
);
};
components = (
{
alignment = -1;
name = A;
},
{
alignment = -1;
name = circumflex;
transform = "{1, 0, 0, 0.9943, 172, 160}";
}
);
layerId = "6E968933-CD79-43C6-9231-80D77C940F4D";
width = 615.99574;
},
{
components = (
{
alignment = -1;
name = A;
},
{
alignment = -1;
name = circumflex;
transform = "{1, 0, 0, 0.9943, 239, 145}";
}
);
layerId = "BAF31694-0472-4296-B0EA-1654553C45D2";
width = 796.00047;
},
{
components = (
{
alignment = -1;
name = A;
},
{
alignment = -1;
name = circumflex;
transform = "{1, 0, 0, 1.0022, 189, 151}";
}
);
layerId = "9F107B1E-3A61-4335-981B-27DD48125C7E";
width = 674.00465;
}
);
leftMetricsKey = A;
rightMetricsKey = A;
unicode = 00C2;
},
{
glyphname = Adieresis;
lastChange = "2021-08-28 10:10:50 +0000";
layers = (
{
components = (
{
alignment = -1;
name = A;
},
{
name = dieresis;
transform = "{1, 0, 0, 1.007, 195.75, 145.143}";
}
);
layerId = "0CF0EA28-C756-4A9E-9D7C-CFEF350B4CFE";
width = 710;
},
{
background = {
hints = (
{
horizontal = 1;
place = "{0, 21}";
type = Stem;
},
{
horizontal = 1;
place = "{196, 47}";
type = Stem;
},
{
horizontal = 1;
place = "{685, 20}";
type = Stem;
},
{
horizontal = 1;
place = "{765, 80}";
type = Stem;
},
{
place = "{279, 69}";
type = Stem;
},
{
place = "{442, 69}";
type = Stem;
}
);
paths = (
{
closed = 1;
nodes = (
"746 0 LINE",
"420 705 LINE",
"370 705 LINE",
"44 0 LINE",
"98 0 LINE",
"187 196 LINE",
"600 196 LINE",
"689 0 LINE"
);
},
{
closed = 1;
nodes = (
"578 243 LINE",
"209 243 LINE",
"394 648 LINE"
);
},
{
closed = 1;
nodes = (
"511 765 LINE",
"511 845 LINE",
"442 845 LINE",
"442 765 LINE"
);
},
{
closed = 1;
nodes = (
"348 765 LINE",
"348 845 LINE",
"279 845 LINE",
"279 765 LINE"
);
}
);
};
components = (
{
alignment = -1;
name = A;
},
{
alignment = -1;
name = dieresis;
transform = "{1, 0, 0, 0.9943, 199, 160}";
}
);
layerId = "6E968933-CD79-43C6-9231-80D77C940F4D";
width = 615.99574;
},
{
components = (
{
alignment = -1;
name = A;
},
{
alignment = -1;
name = dieresis;
transform = "{1, 0, 0, 0.9943, 219, 145}";
}
);
layerId = "BAF31694-0472-4296-B0EA-1654553C45D2";
width = 796.00047;
},
{
components = (
{
alignment = -1;
name = A;
},
{
alignment = -1;
name = dieresis;
transform = "{1, 0, 0, 1.0022, 198, 151}";
}
);
layerId = "9F107B1E-3A61-4335-981B-27DD48125C7E";
width = 674.00465;
}
);
leftMetricsKey = A;
rightMetricsKey = A;
unicode = 00C4;
},
{
glyphname = Agrave;
lastChange = "2021-08-28 10:10:50 +0000";
layers = (
{
components = (
{
alignment = -1;
name = A;
},
{
name = grave;
transform = "{1, 0, 0, 1.007, 223.75, 145.143}";
}
);
layerId = "0CF0EA28-C756-4A9E-9D7C-CFEF350B4CFE";
width = 710;
},
{
background = {
hints = (
{
horizontal = 1;
place = "{0, 21}";
type = Stem;
},
{
horizontal = 1;
place = "{196, 47}";
type = Stem;
},
{
horizontal = 1;
place = "{685, 20}";
type = Stem;
},
{
horizontal = 1;
place = "{765, 21}";
type = Stem;
},
{
horizontal = 1;
place = "{878, 20}";
type = Stem;
}
);
paths = (
{
closed = 1;
nodes = (
"746 0 LINE",
"420 705 LINE",
"370 705 LINE",
"44 0 LINE",
"98 0 LINE",
"187 196 LINE",
"600 196 LINE",
"689 0 LINE"
);
},
{
closed = 1;
nodes = (
"578 243 LINE",
"209 243 LINE",
"394 648 LINE"
);
},
{
closed = 1;
nodes = (
"370 765 LINE",
"412 765 LINE",
"324 898 LINE",
"263 868 LINE"
);
}
);
};
components = (
{
alignment = -1;
name = A;
},
{
alignment = -1;
name = grave;
transform = "{1, 0, 0, 0.9943, 189, 160}";
}
);
layerId = "6E968933-CD79-43C6-9231-80D77C940F4D";
width = 615.99574;
},
{
components = (
{
alignment = -1;
name = A;
},
{
alignment = -1;
name = grave;
transform = "{1, 0, 0, 0.9943, 270, 145}";
}
);
layerId = "BAF31694-0472-4296-B0EA-1654553C45D2";
width = 796.00047;
},
{
components = (
{
alignment = -1;
name = A;
},
{
alignment = -1;
name = grave;
transform = "{1, 0, 0, 1.0022, 211, 151}";
}
);
layerId = "9F107B1E-3A61-4335-981B-27DD48125C7E";
width = 674.00465;
}
);
leftMetricsKey = A;
rightMetricsKey = A;
unicode = 00C0;
},
{
glyphname = Aogonek;
lastChange = "2021-08-28 10:10:43 +0000";
layers = (
{
anchors = (
{
name = _ogonek;
position = "{-334, 0}";
}
);
components = (
{
alignment = -1;
name = A;
}
);
hints = (
{
place = "{456, 93}";
type = Stem;
},
{
place = "{456, 214}";
type = Stem;
},
{
horizontal = 1;
place = "{-213, 74}";
type = Stem;
}
);
layerId = "0CF0EA28-C756-4A9E-9D7C-CFEF350B4CFE";
paths = (
{
closed = 1;
nodes = (
"582 39 LINE SMOOTH",
"488 -5 OFFCURVE",
"455 -53 OFFCURVE",
"455 -104 CURVE SMOOTH",
"455 -184 OFFCURVE",
"525 -213 OFFCURVE",
"588 -213 CURVE SMOOTH",
"617 -213 OFFCURVE",
"646 -206 OFFCURVE",
"669 -197 CURVE",
"669 -125 LINE",
"646 -134 OFFCURVE",
"622 -139 OFFCURVE",
"603 -139 CURVE SMOOTH",
"569 -139 OFFCURVE",
"548 -120 OFFCURVE",
"548 -92 CURVE SMOOTH",
"548 -68 OFFCURVE",
"562 -47 OFFCURVE",
"605 -25 CURVE SMOOTH",
"654 0 LINE",
"624 58 LINE"
);
}
);
width = 710;
},
{
anchors = (
{
name = _ogonek;
position = "{-270, 0}";
}
);
components = (
{
alignment = -1;
name = A;
}
);
hints = (
{
place = "{422, 21}";
type = Stem;
},
{
horizontal = 1;
place = "{-185, 21}";
target = up;
type = BottomGhost;
}
);
layerId = "6E968933-CD79-43C6-9231-80D77C940F4D";
paths = (
{
closed = 1;
nodes = (
"524 -15 LINE SMOOTH",
"461 -43 OFFCURVE",
"437 -77 OFFCURVE",
"437 -115 CURVE SMOOTH",
"437 -166 OFFCURVE",
"476 -189 OFFCURVE",
"528 -189 CURVE SMOOTH",
"547 -189 OFFCURVE",
"569 -185 OFFCURVE",
"590 -177 CURVE",
"590 -156 LINE",
"569 -164 OFFCURVE",
"547 -169 OFFCURVE",
"527 -169 CURVE SMOOTH",
"488 -169 OFFCURVE",
"458 -152 OFFCURVE",
"458 -114 CURVE SMOOTH",
"458 -85 OFFCURVE",
"476 -56 OFFCURVE",
"528 -33 CURVE SMOOTH",
"599 0 LINE",
"592 16 LINE"
);
}
);
width = 615.99553;
},
{
anchors = (
{
name = _ogonek;
position = "{281, 1}";
}
);
components = (
{
alignment = -1;
name = A;
}
);
hints = (
{
place = "{194, 39}";
type = Stem;
},
{
place = "{456, 180}";
type = Stem;
},
{
horizontal = 1;
place = "{-218, 99}";
type = Stem;
}
);
layerId = "BAF31694-0472-4296-B0EA-1654553C45D2";
paths = (
{
closed = 1;
nodes = (
"622 67 LINE SMOOTH",
"492 13 OFFCURVE",
"456 -37 OFFCURVE",
"456 -100 CURVE SMOOTH",
"456 -180 OFFCURVE",
"520 -218 OFFCURVE",
"604 -218 CURVE SMOOTH",
"641 -218 OFFCURVE",
"675 -212 OFFCURVE",
"704 -203 CURVE",
"704 -104 LINE",
"676 -114 OFFCURVE",
"650 -119 OFFCURVE",
"629 -119 CURVE SMOOTH",
"601 -119 OFFCURVE",
"584 -107 OFFCURVE",
"584 -86 CURVE SMOOTH",
"584 -67 OFFCURVE",
"597 -48 OFFCURVE",
"652 -23 CURVE SMOOTH",
"698 -1 LINE",
"661 84 LINE"
);
}
);
width = 795.99623;
},
{
anchors = (
{
name = _ogonek;
position = "{-310, 0}";
}
);
components = (
{
alignment = -1;
name = A;
}
);
hints = (
{
place = "{25, 54}";
type = Stem;
},
{
horizontal = 1;
place = "{-69, 21}";
target = up;
type = BottomGhost;
}
);
layerId = "9F107B1E-3A61-4335-981B-27DD48125C7E";
paths = (
{
closed = 1;
nodes = (
"560 19 LINE SMOOTH",
"478 -19 OFFCURVE",
"448 -62 OFFCURVE",
"448 -108 CURVE SMOOTH",
"448 -177 OFFCURVE",
"507 -204 OFFCURVE",
"566 -204 CURVE SMOOTH",
"591 -204 OFFCURVE",
"617 -198 OFFCURVE",
"639 -190 CURVE",
"639 -137 LINE",
"617 -145 OFFCURVE",
"594 -150 OFFCURVE",
"575 -150 CURVE SMOOTH",
"539 -150 OFFCURVE",
"514 -132 OFFCURVE",
"514 -100 CURVE SMOOTH",
"514 -74 OFFCURVE",
"530 -50 OFFCURVE",
"576 -28 CURVE SMOOTH",
"633 0 LINE",
"612 42 LINE"
);
}
);
width = 673.99707;
}
);
leftMetricsKey = A;
rightMetricsKey = A;
unicode = 0104;
},
{
glyphname = Aring;
lastChange = "2021-08-28 10:10:50 +0000";
layers = (
{
components = (
{
alignment = -1;
name = A;
},
{
name = ring;
transform = "{1, 0, 0, 1.007, 229.75, 145.143}";
}
);
layerId = "0CF0EA28-C756-4A9E-9D7C-CFEF350B4CFE";
width = 710;
},
{
background = {
hints = (
{
horizontal = 1;
place = "{0, 21}";
type = Stem;
},
{
horizontal = 1;
place = "{196, 47}";
type = Stem;
},
{
horizontal = 1;
place = "{682, 20}";
type = Stem;
},
{
horizontal = 1;
place = "{826, 32}";
type = Stem;
},
{
place = "{297, 36}";
type = Stem;
},
{
place = "{457, 36}";
type = Stem;
}
);
paths = (
{
closed = 1;
nodes = (
"44 0 LINE",
"98 0 LINE",
"187 196 LINE",
"600 196 LINE",
"689 0 LINE",
"746 0 LINE",
"433 678 LINE",
"467 692 OFFCURVE",
"493 725 OFFCURVE",
"493 764 CURVE SMOOTH",
"493 816 OFFCURVE",
"447 858 OFFCURVE",
"395 858 CURVE SMOOTH",
"343 858 OFFCURVE",
"297 816 OFFCURVE",
"297 764 CURVE SMOOTH",
"297 725 OFFCURVE",
"323 692 OFFCURVE",
"357 678 CURVE"
);
},
{
closed = 1;
nodes = (
"457 730 OFFCURVE",
"429 702 OFFCURVE",
"395 702 CURVE SMOOTH",
"361 702 OFFCURVE",
"333 730 OFFCURVE",
"333 764 CURVE SMOOTH",
"333 798 OFFCURVE",
"361 826 OFFCURVE",
"395 826 CURVE SMOOTH",
"429 826 OFFCURVE",
"457 798 OFFCURVE",
"457 764 CURVE SMOOTH"
);
},
{
closed = 1;
nodes = (
"578 243 LINE",
"209 243 LINE",
"394 648 LINE"
);
}
);
};
components = (
{
alignment = -1;
name = A;
},
{
alignment = -1;
name = ring;
transform = "{1, 0, 0, 0.9943, 205, 160}";
}
);
layerId = "6E968933-CD79-43C6-9231-80D77C940F4D";
width = 615.99574;
},
{
components = (
{
alignment = -1;
name = A;
},
{
alignment = -1;
name = ring;
transform = "{1, 0, 0, 0.9943, 272, 145}";
}
);
layerId = "BAF31694-0472-4296-B0EA-1654553C45D2";
width = 796.00047;
},
{
components = (
{
alignment = -1;
name = A;
},
{
alignment = -1;
name = ring;
transform = "{1, 0, 0, 1.0022, 221, 151}";
}
);
layerId = "9F107B1E-3A61-4335-981B-27DD48125C7E";
width = 674.00465;
}
);
leftMetricsKey = A;
rightMetricsKey = A;
unicode = 00C5;
},
{
glyphname = Atilde;
lastChange = "2021-08-28 10:10:50 +0000";
layers = (
{
components = (
{
alignment = -1;
name = A;
},
{
name = tilde;
transform = "{1, 0, 0, 1.007, 178.75, 145.143}";
}
);
layerId = "0CF0EA28-C756-4A9E-9D7C-CFEF350B4CFE";
width = 710;
},
{
background = {
hints = (
{
horizontal = 1;
place = "{0, 21}";
type = Stem;
},
{
horizontal = 1;
place = "{196, 47}";
type = Stem;
},
{
horizontal = 1;
place = "{685, 20}";
type = Stem;
},
{
horizontal = 1;
place = "{756, 21}";
type = Stem;
},
{
horizontal = 1;
place = "{806, 52}";
type = Stem;
},
{
horizontal = 1;
place = "{765, 52}";
type = Stem;
},
{
horizontal = 1;
place = "{847, 20}";
type = Stem;
}
);
paths = (
{
closed = 1;
nodes = (
"746 0 LINE",
"420 705 LINE",
"370 705 LINE",
"44 0 LINE",
"98 0 LINE",
"187 196 LINE",
"600 196 LINE",
"689 0 LINE"
);
},
{
closed = 1;
nodes = (
"578 243 LINE",
"209 243 LINE",
"394 648 LINE"
);
},
{
closed = 1;
nodes = (
"509 867 LINE",
"494 829 OFFCURVE",
"483 817 OFFCURVE",
"459 817 CURVE SMOOTH",
"425 817 OFFCURVE",
"369 858 OFFCURVE",
"331 858 CURVE SMOOTH",
"291 858 OFFCURVE",
"266 837 OFFCURVE",
"247 765 CURVE",
"281 756 LINE",
"296 794 OFFCURVE",
"307 806 OFFCURVE",
"331 806 CURVE SMOOTH",
"365 806 OFFCURVE",
"421 765 OFFCURVE",
"459 765 CURVE SMOOTH",
"499 765 OFFCURVE",
"524 786 OFFCURVE",
"543 858 CURVE"
);
}
);
};
components = (
{
alignment = -1;
name = A;
},
{
alignment = -1;
name = tilde;
transform = "{1, 0, 0, 0.9943, 179, 160}";
}
);
layerId = "6E968933-CD79-43C6-9231-80D77C940F4D";
width = 615.99574;
},
{
components = (
{
alignment = -1;
name = A;
},
{
alignment = -1;
name = tilde;
transform = "{1, 0, 0, 0.9943, 191, 145}";
}
);
layerId = "BAF31694-0472-4296-B0EA-1654553C45D2";
width = 796.00047;
},
{
components = (
{
alignment = -1;
name = A;
},
{
alignment = -1;
name = tilde;
transform = "{1, 0, 0, 1.0022, 179, 151}";
}
);
layerId = "9F107B1E-3A61-4335-981B-27DD48125C7E";
width = 674.00465;
}
);
leftMetricsKey = A;
rightMetricsKey = A;
unicode = 00C3;
},
{
glyphname = AE;
lastChange = "2021-08-28 10:10:46 +0000";
layers = (
{
hints = (
{
place = "{468, 114}";
type = Stem;
},
{
horizontal = 1;
place = "{0, 89}";
type = Stem;
},
{
horizontal = 1;
place = "{143, 89}";
type = Stem;
},
{
horizontal = 1;
place = "{310, 88}";
type = Stem;
},
{
horizontal = 1;
place = "{611, 89}";
type = Stem;
}
);
layerId = "0CF0EA28-C756-4A9E-9D7C-CFEF350B4CFE";
paths = (
{
closed = 1;
nodes = (
"147.5 172 LINE",
"519.5 172 LINE",
"519.5 267 LINE",
"196.5 267 LINE"
);
},
{
closed = 1;
nodes = (
"849.5 605 LINE",
"849.5 700 LINE",
"390.5 700 LINE",
"8.5 0 LINE",
"130.5 0 LINE",
"466.5 621 LINE",
"466.5 0 LINE",
"849.5 0 LINE",
"849.5 95 LINE",
"580.5 95 LINE",
"580.5 306 LINE",
"759.5 306 LINE",
"759.5 401 LINE",
"580.5 401 LINE",
"580.5 605 LINE"
);
}
);
width = 914.5;
},
{
background = {
hints = (
{
horizontal = 1;
place = "{0, 48}";
type = Stem;
},
{
horizontal = 1;
place = "{196, 47}";
type = Stem;
},
{
horizontal = 1;
place = "{329, 48}";
type = Stem;
},
{
horizontal = 1;
place = "{652, 48}";
type = Stem;
},
{
place = "{494, 52}";
type = Stem;
}
);
paths = (
{
closed = 1;
nodes = (
"194.4 196 LINE",
"494.4 196 LINE",
"494.4 0 LINE",
"982.4 0 LINE",
"982.4 48 LINE",
"546.4 48 LINE",
"546.4 329 LINE",
"932.4 329 LINE",
"932.4 377 LINE",
"546.4 377 LINE",
"546.4 652 LINE",
"977.4 652 LINE",
"977.4 700 LINE",
"444.4 700 LINE",
"20.4 0 LINE",
"76.4 0 LINE"
);
},
{
closed = 1;
nodes = (
"468.4 653 LINE",
"494.4 653 LINE",
"494.4 243 LINE",
"222.4 243 LINE"
);
}
);
};
hints = (
{
place = "{447, 21}";
type = Stem;
},
{
horizontal = 1;
place = "{685, -20}";
target = down;
type = TopGhost;
},
{
horizontal = 1;
place = "{0, 21}";
target = up;
type = BottomGhost;
}
);
layerId = "6E968933-CD79-43C6-9231-80D77C940F4D";
paths = (
{
closed = 1;
nodes = (
"156 210 LINE",
"452 210 LINE",
"452 230 LINE",
"163 230 LINE"
);
},
{
closed = 1;
nodes = (
"789 680 LINE",
"789 700 LINE",
"442 700 LINE",
"10 0 LINE",
"36 0 LINE",
"444 662 LINE",
"444 0 LINE",
"789 0 LINE",
"789 20 LINE",
"466 20 LINE",
"466 350 LINE",
"699 350 LINE",
"699 370 LINE",
"466 370 LINE",
"466 680 LINE"
);
}
);
width = 869.00043;
},
{
hints = (
{
place = "{483, 176}";
type = Stem;
},
{
horizontal = 1;
place = "{0, 140}";
type = Stem;
},
{
horizontal = 1;
place = "{116, 134}";
type = Stem;
},
{
horizontal = 1;
place = "{290, 133}";
type = Stem;
},
{
horizontal = 1;
place = "{561, 139}";
type = Stem;
}
);
layerId = "BAF31694-0472-4296-B0EA-1654553C45D2";
paths = (
{
closed = 1;
nodes = (
"152.5 140 LINE",
"566.5 140 LINE",
"566.5 286 LINE",
"227.5 286 LINE"
);
},
{
closed = 1;
nodes = (
"909.5 554 LINE",
"909.5 700 LINE",
"364.5 700 LINE",
"5.5 0 LINE",
"195.5 0 LINE",
"481.5 569 LINE",
"481.5 0 LINE",
"909.5 0 LINE",
"909.5 146 LINE",
"655.5 146 LINE",
"655.5 287 LINE",
"807.5 287 LINE",
"807.5 423 LINE",
"655.5 423 LINE",
"655.5 554 LINE"
);
}
);
width = 944.49519;
},
{
hints = (
{
place = "{550, 64}";
type = Stem;
},
{
horizontal = 1;
place = "{257, -20}";
target = down;
type = TopGhost;
},
{
horizontal = 1;
place = "{0, 21}";
target = up;
type = BottomGhost;
}
);
layerId = "9F107B1E-3A61-4335-981B-27DD48125C7E";
paths = (
{
closed = 1;
nodes = (
"145 184 LINE",
"495 184 LINE",
"495 254 LINE",
"178 254 LINE"
);
},
{
closed = 1;
nodes = (
"828 630 LINE",
"828 700 LINE",
"410 700 LINE",
"9 0 LINE",
"96 0 LINE",
"459 636 LINE",
"459 0 LINE",
"828 0 LINE",
"828 70 LINE",
"539 70 LINE",
"539 321 LINE",
"737 321 LINE",
"737 391 LINE",
"539 391 LINE",
"539 630 LINE"
);
}
);
width = 897.99891;
}
);
leftMetricsKey = A;
rightMetricsKey = E;
unicode = 00C6;
},
{
glyphname = B;
lastChange = "2021-08-28 10:10:43 +0000";
layers = (
{
hints = (
{
place = "{85, 114}";
type = Stem;
},
{
place = "{499, 116}";
type = Stem;
},
{
place = "{517, 114}";
type = Stem;
},
{
horizontal = 1;
place = "{0, 93}";
type = Stem;
},
{
horizontal = 1;
place = "{308, 93}";
type = Stem;
},
{
horizontal = 1;
place = "{607, 93}";
type = Stem;
}
);
layerId = "0CF0EA28-C756-4A9E-9D7C-CFEF350B4CFE";
paths = (
{
closed = 1;
nodes = (
"499 439 OFFCURVE",
"454 402 OFFCURVE",
"380 402 CURVE SMOOTH",
"199 402 LINE",
"199 605 LINE",
"380 605 LINE SMOOTH",
"454 605 OFFCURVE",
"499 567 OFFCURVE",
"499 503 CURVE SMOOTH"
);
},
{
closed = 1;
nodes = (
"631 302 OFFCURVE",
"561 350 OFFCURVE",
"461 355 CURVE",
"461 356 LINE",
"545 367 OFFCURVE",
"614 414 OFFCURVE",
"614 517 CURVE SMOOTH",
"614 616 OFFCURVE",
"537 700 OFFCURVE",
"390 700 CURVE SMOOTH",
"85 700 LINE",
"85 0 LINE",
"403 0 LINE SMOOTH",
"545 0 OFFCURVE",
"631 80 OFFCURVE",
"631 187 CURVE SMOOTH"
);
},
{
closed = 1;
nodes = (
"517 131 OFFCURVE",
"470 95 OFFCURVE",
"393 95 CURVE SMOOTH",
"199 95 LINE",
"199 307 LINE",
"389 307 LINE SMOOTH",
"465 307 OFFCURVE",
"517 269 OFFCURVE",
"517 199 CURVE SMOOTH"
);
},
{
closed = 1;
nodes = (
"408 334 LINE",
"487 334 LINE",
"487 388 LINE",
"408 388 LINE"
);
}
);
width = 687.1;
},
{
background = {
hints = (
{
horizontal = 1;
place = "{0, 48}";
type = Stem;
},
{
horizontal = 1;
place = "{329, 48}";
type = Stem;
},
{
horizontal = 1;
place = "{652, 48}";
type = Stem;
},
{
place = "{104, 52}";
type = Stem;
},
{
place = "{606, 53}";
type = Stem;
},
{
place = "{567, 53}";
type = Stem;
}
);
paths = (
{
closed = 1;
nodes = (
"663 193 LINE SMOOTH",
"663 290 OFFCURVE",
"589 338 OFFCURVE",
"505 360 CURVE",
"562 383 OFFCURVE",
"624 431 OFFCURVE",
"624 526 CURVE SMOOTH",
"624 528 LINE SMOOTH",
"624 633 OFFCURVE",
"533 700 OFFCURVE",
"397 700 CURVE SMOOTH",
"108 700 LINE",
"108 0 LINE",
"412 0 LINE SMOOTH",
"563 0 OFFCURVE",
"663 74 OFFCURVE",
"663 191 CURVE SMOOTH"
);
},
{
closed = 1;
nodes = (
"571 521 LINE SMOOTH",
"571 428 OFFCURVE",
"496 377 OFFCURVE",
"391 377 CURVE SMOOTH",
"160 377 LINE",
"160 652 LINE",
"396 652 LINE SMOOTH",
"508 652 OFFCURVE",
"571 600 OFFCURVE",
"571 523 CURVE SMOOTH"
);
},
{
closed = 1;
nodes = (
"610 191 LINE SMOOTH",
"610 103 OFFCURVE",
"534 48 OFFCURVE",
"414 48 CURVE SMOOTH",
"160 48 LINE",
"160 329 LINE",
"397 329 LINE SMOOTH",
"535 329 OFFCURVE",
"610 279 OFFCURVE",
"610 193 CURVE SMOOTH"
);
}
);
};
hints = (
{
place = "{103, 22}";
type = Stem;
},
{
place = "{539, 22}";
type = Stem;
},
{
place = "{561, 22}";
type = Stem;
},
{
horizontal = 1;
place = "{685, -20}";
target = down;
type = TopGhost;
},
{
horizontal = 1;
place = "{0, 21}";
target = up;
type = BottomGhost;
}
);
layerId = "6E968933-CD79-43C6-9231-80D77C940F4D";
paths = (
{
closed = 1;
nodes = (
"538 432 OFFCURVE",
"476 370 OFFCURVE",
"358 370 CURVE SMOOTH",
"122 370 LINE",
"122 680 LINE",
"352 680 LINE SMOOTH",
"483 680 OFFCURVE",
"538 612 OFFCURVE",
"538 525 CURVE"
);
},
{
closed = 1;
nodes = (
"576 290 OFFCURVE",
"492 360 OFFCURVE",
"395 360 CURVE",
"387 358 LINE",
"469 359 OFFCURVE",
"560 406 OFFCURVE",
"560 526 CURVE",
"560 621 OFFCURVE",
"500 700 OFFCURVE",
"353 700 CURVE SMOOTH",
"100 700 LINE",
"100 0 LINE",
"353 0 LINE SMOOTH",
"505 0 OFFCURVE",
"576 82 OFFCURVE",
"576 185 CURVE SMOOTH"
);
},
{
closed = 1;
nodes = (
"554 83 OFFCURVE",
"480 20 OFFCURVE",
"353 20 CURVE SMOOTH",
"122 20 LINE",
"122 350 LINE",
"351 350 LINE SMOOTH",
"478 350 OFFCURVE",
"554 286 OFFCURVE",
"554 185 CURVE SMOOTH"
);
},
{
closed = 1;
nodes = (
"338 354 LINE",
"427 354 LINE",
"427 367 LINE",
"338 367 LINE"
);
}
);
width = 641.99886;
},
{
hints = (
{
place = "{53, 176}";
type = Stem;
},
{
place = "{463, 179}";
type = Stem;
},
{
place = "{480, 179}";
type = Stem;
},
{
horizontal = 1;
place = "{0, 142}";
type = Stem;
},
{
horizontal = 1;
place = "{290, 133}";
type = Stem;
},
{
horizontal = 1;
place = "{559, 141}";
type = Stem;
}
);
layerId = "BAF31694-0472-4296-B0EA-1654553C45D2";
paths = (
{
closed = 1;
nodes = (
"466 444 OFFCURVE",
"433 424 OFFCURVE",
"379 424 CURVE SMOOTH",
"229 424 LINE",
"229 554 LINE",
"381 554 LINE SMOOTH",
"435 554 OFFCURVE",
"466 535 OFFCURVE",
"466 489 CURVE SMOOTH"
);
},
{
closed = 1;
nodes = (
"658 293 OFFCURVE",
"594 352 OFFCURVE",
"480 357 CURVE",
"477 361 LINE",
"573 366 OFFCURVE",
"642 412 OFFCURVE",
"642 515 CURVE SMOOTH",
"642 627 OFFCURVE",
"559 700 OFFCURVE",
"416 700 CURVE SMOOTH",
"55 700 LINE",
"55 0 LINE",
"427 0 LINE SMOOTH",
"576 0 OFFCURVE",
"658 76 OFFCURVE",
"658 192 CURVE SMOOTH"
);
},
{
closed = 1;
nodes = (
"483 170 OFFCURVE",
"451 146 OFFCURVE",
"395 146 CURVE SMOOTH",
"229 146 LINE",
"229 288 LINE",
"393 288 LINE SMOOTH",
"449 288 OFFCURVE",
"483 265 OFFCURVE",
"483 217 CURVE SMOOTH"
);
},
{
closed = 1;
nodes = (
"429 332 LINE",
"503 332 LINE",
"503 387 LINE",
"429 387 LINE"
);
}
);
width = 694.30114;
},
{
hints = (
{
place = "{39, 66}";
type = Stem;
},
{
place = "{395, 66}";
type = Stem;
},
{
place = "{590, 66}";
type = Stem;
},
{
horizontal = 1;
place = "{257, -20}";
target = down;
type = TopGhost;
},
{
horizontal = 1;
place = "{0, 21}";
target = up;
type = BottomGhost;
}
);
layerId = "9F107B1E-3A61-4335-981B-27DD48125C7E";
paths = (
{
closed = 1;
nodes = (
"513 436 OFFCURVE",
"461 391 OFFCURVE",
"371 391 CURVE SMOOTH",
"170 391 LINE",
"170 630 LINE",
"368 630 LINE SMOOTH",
"464 630 OFFCURVE",
"513 583 OFFCURVE",
"513 510 CURVE"
);
},
{
closed = 1;
nodes = (
"609 299 OFFCURVE",
"534 354 OFFCURVE",
"435 357 CURVE",
"432 357 LINE",
"515 364 OFFCURVE",
"592 410 OFFCURVE",
"592 520 CURVE",
"592 617 OFFCURVE",
"522 700 OFFCURVE",
"375 700 CURVE SMOOTH",
"90 700 LINE",
"90 0 LINE",
"383 0 LINE SMOOTH",
"529 0 OFFCURVE",
"609 83 OFFCURVE",
"609 188 CURVE SMOOTH"
);
},
{
closed = 1;
nodes = (
"530 115 OFFCURVE",
"473 70 OFFCURVE",
"377 70 CURVE SMOOTH",
"170 70 LINE",
"170 321 LINE",
"374 321 LINE SMOOTH",
"469 321 OFFCURVE",
"530 277 OFFCURVE",
"530 196 CURVE SMOOTH"
);
},
{
closed = 1;
nodes = (
"381 342 LINE",
"463 342 LINE",
"463 380 LINE",
"381 380 LINE"
);
}
);
width = 668.39747;
}
);
leftMetricsKey = H;
rightMetricsKey = "=H*0.66";
unicode = 0042;
},
{
glyphname = C;
lastChange = "2021-08-28 10:10:43 +0000";
layers = (
{
anchors = (
{
name = bottom;
position = "{391.5, 0}";
},
{
name = top;
position = "{399.5, 709}";
}
);
hints = (
{
place = "{42, 117}";
type = Stem;
},
{
horizontal = 1;
place = "{-6, 100}";
type = Stem;
},
{
horizontal = 1;
place = "{608, 101}";
type = Stem;
}
);
layerId = "0CF0EA28-C756-4A9E-9D7C-CFEF350B4CFE";
paths = (
{
closed = 1;
nodes = (
"42.5 141 OFFCURVE",
"201.5 -7 OFFCURVE",
"397.5 -7 CURVE SMOOTH",
"537.5 -7 OFFCURVE",
"657.5 58 OFFCURVE",
"719.5 202 CURVE",
"627.5 233 LINE",
"575.5 124 OFFCURVE",
"480.5 90 OFFCURVE",
"400.5 90 CURVE SMOOTH",
"262.5 90 OFFCURVE",
"158.5 193 OFFCURVE",
"158.5 350 CURVE SMOOTH",
"158.5 508 OFFCURVE",
"262.5 610 OFFCURVE",
"400.5 610 CURVE SMOOTH",
"478.5 610 OFFCURVE",
"571.5 575 OFFCURVE",
"618.5 486 CURVE",
"710.5 519 LINE",
"652.5 641 OFFCURVE",
"533.5 707 OFFCURVE",
"397.5 707 CURVE SMOOTH",
"201.5 707 OFFCURVE",
"42.5 560 OFFCURVE",
"42.5 350 CURVE SMOOTH"
);
}
);
width = 776.16885;
},
{
anchors = (
{
name = bottom;
position = "{401, 0}";
},
{
name = top;
position = "{379, 700}";
}
);
background = {
hints = (
{
horizontal = 1;
place = "{-12, 47}";
type = Stem;
},
{
horizontal = 1;
place = "{665, 47}";
type = Stem;
},
{
place = "{73, 54}";
type = Stem;
}
);
paths = (
{
closed = 1;
nodes = (
"666 144 LINE",
"595 74 OFFCURVE",
"526 35 OFFCURVE",
"425 35 CURVE SMOOTH",
"258 35 OFFCURVE",
"129 173 OFFCURVE",
"129 350 CURVE SMOOTH",
"129 352 LINE SMOOTH",
"129 528 OFFCURVE",
"256 665 OFFCURVE",
"424 665 CURVE SMOOTH",
"529 665 OFFCURVE",
"599 621 OFFCURVE",
"660 562 CURVE",
"697 600 LINE",
"625 666 OFFCURVE",
"550 712 OFFCURVE",
"425 712 CURVE SMOOTH",
"223 712 OFFCURVE",
"75 548 OFFCURVE",
"75 350 CURVE SMOOTH",
"75 348 LINE SMOOTH",
"75 147 OFFCURVE",
"223 -12 OFFCURVE",
"423 -12 CURVE SMOOTH",
"547 -12 OFFCURVE",
"627 37 OFFCURVE",
"701 110 CURVE"
);
}
);
};
hints = (
{
place = "{64, 23}";
type = Stem;
},
{
horizontal = 1;
place = "{-7, 21}";
target = up;
type = BottomGhost;
},
{
horizontal = 1;
place = "{692, -20}";
target = down;
type = TopGhost;
}
);
layerId = "6E968933-CD79-43C6-9231-80D77C940F4D";
paths = (
{
closed = 1;
nodes = (
"50 141 OFFCURVE",
"188 -7 OFFCURVE",
"379 -7 CURVE SMOOTH",
"545 -7 OFFCURVE",
"649 75 OFFCURVE",
"698 201 CURVE",
"680 208 LINE",
"639 97 OFFCURVE",
"535 11 OFFCURVE",
"379 13 CURVE",
"210 13 OFFCURVE",
"72 141 OFFCURVE",
"72 350 CURVE SMOOTH",
"72 561 OFFCURVE",
"210 687 OFFCURVE",
"379 687 CURVE SMOOTH",
"533 687 OFFCURVE",
"633 609 OFFCURVE",
"676 501 CURVE",
"694 508 LINE",
"644 629 OFFCURVE",
"541 707 OFFCURVE",
"379 707 CURVE SMOOTH",
"188 707 OFFCURVE",
"50 561 OFFCURVE",
"50 350 CURVE SMOOTH"
);
}
);
width = 764.66823;
},
{
anchors = (
{
name = bottom;
position = "{375.5, 1}";
},
{
name = top;
position = "{380.5, 705}";
}
);
hints = (
{
place = "{26, 179}";
type = Stem;
},
{
horizontal = 1;
place = "{-5, 159}";
type = Stem;
},
{
horizontal = 1;
place = "{548, 159}";
type = Stem;
}
);
layerId = "BAF31694-0472-4296-B0EA-1654553C45D2";
paths = (
{
closed = 1;
nodes = (
"27.5 139 OFFCURVE",
"171.5 -7 OFFCURVE",
"379.5 -7 CURVE SMOOTH",
"541.5 -7 OFFCURVE",
"659.5 78 OFFCURVE",
"706.5 228 CURVE",
"559.5 258 LINE",
"522.5 171 OFFCURVE",
"458.5 139 OFFCURVE",
"379.5 139 CURVE SMOOTH",
"268.5 139 OFFCURVE",
"201.5 228 OFFCURVE",
"201.5 350 CURVE SMOOTH",
"201.5 470 OFFCURVE",
"268.5 561 OFFCURVE",
"379.5 561 CURVE SMOOTH",
"457.5 561 OFFCURVE",
"515.5 529 OFFCURVE",
"550.5 455 CURVE",
"701.5 488 LINE",
"654.5 624 OFFCURVE",
"537.5 707 OFFCURVE",
"379.5 707 CURVE SMOOTH",
"171.5 707 OFFCURVE",
"27.5 559 OFFCURVE",
"27.5 350 CURVE SMOOTH"
);
}
);
width = 743.1685;
},
{
anchors = (
{
name = bottom;
position = "{395, 0}";
},
{
name = top;
position = "{392, 706}";
}
);
hints = (
{
place = "{404, 72}";
type = Stem;
},
{
horizontal = 1;
place = "{-3, 21}";
target = up;
type = BottomGhost;
},
{
horizontal = 1;
place = "{260, -20}";
target = down;
type = TopGhost;
}
);
layerId = "9F107B1E-3A61-4335-981B-27DD48125C7E";
paths = (
{
closed = 1;
nodes = (
"45 141 OFFCURVE",
"196 -7 OFFCURVE",
"391 -7 CURVE SMOOTH",
"540 -7 OFFCURVE",
"654 64 OFFCURVE",
"711 201 CURVE",
"646 225 LINE",
"598 116 OFFCURVE",
"499 64 OFFCURVE",
"391 65 CURVE",
"241 65 OFFCURVE",
"127 173 OFFCURVE",
"127 350 CURVE SMOOTH",
"127 528 OFFCURVE",
"241 635 OFFCURVE",
"391 635 CURVE SMOOTH",
"497 635 OFFCURVE",
"594 588 OFFCURVE",
"639 491 CURVE",
"704 515 LINE",
"649 637 OFFCURVE",
"536 707 OFFCURVE",
"391 707 CURVE SMOOTH",
"196 707 OFFCURVE",
"45 561 OFFCURVE",
"45 350 CURVE SMOOTH"
);
}
);
width = 770.99777;
}
);
leftMetricsKey = O;
rightMetricsKey = "=O*1.3333";
unicode = 0043;
},
{
glyphname = Ccedilla;
lastChange = "2021-08-28 10:10:50 +0000";
layers = (
{
components = (
{
alignment = -1;
name = C;
},
{
name = cedilla;
transform = "{1, 0, 0, 1.007, 290.75, 0}";
}
);
layerId = "0CF0EA28-C756-4A9E-9D7C-CFEF350B4CFE";
width = 776.17;
},
{
background = {
hints = (
{
horizontal = 1;
place = "{-148, 21}";
type = Stem;
},
{
horizontal = 1;
place = "{-12, 47}";
type = Stem;
},
{
horizontal = 1;
place = "{665, 47}";
type = Stem;
},
{
place = "{73, 54}";
type = Stem;
}
);
paths = (
{
closed = 1;
nodes = (
"312 -122 LINE",
"367 -148 LINE",
"434 -12 LINE",
"551 -8 OFFCURVE",
"628 40 OFFCURVE",
"699 110 CURVE",
"664 144 LINE",
"593 74 OFFCURVE",
"524 35 OFFCURVE",
"423 35 CURVE SMOOTH",
"256 35 OFFCURVE",
"127 173 OFFCURVE",
"127 351 CURVE SMOOTH",
"127 529 OFFCURVE",
"254 665 OFFCURVE",
"422 665 CURVE SMOOTH",
"527 665 OFFCURVE",
"597 621 OFFCURVE",
"658 562 CURVE",
"695 600 LINE",
"623 666 OFFCURVE",
"548 712 OFFCURVE",
"423 712 CURVE SMOOTH",
"221 712 OFFCURVE",
"73 549 OFFCURVE",
"73 349 CURVE SMOOTH",
"73 158 OFFCURVE",
"205 6 OFFCURVE",
"388 -11 CURVE"
);
}
);
};
components = (
{
alignment = -1;
name = C;
},
{
alignment = -1;
name = cedilla;
transform = "{1, 0, 0, 0.9943, 355, 0}";
}
);
layerId = "6E968933-CD79-43C6-9231-80D77C940F4D";
width = 764.67021;
},
{
components = (
{
alignment = -1;
name = C;
},
{
alignment = -1;
name = cedilla;
transform = "{1, 0, 0, 0.9943, 261, -3}";
}
);
layerId = "BAF31694-0472-4296-B0EA-1654553C45D2";
width = 743.16811;
},
{
components = (
{
alignment = -1;
name = C;
},
{
alignment = -1;
name = cedilla;
transform = "{1, 0, 0, 1.0022, 315, 0}";
}
);
layerId = "9F107B1E-3A61-4335-981B-27DD48125C7E";
width = 771.00383;
}
);
leftMetricsKey = C;
rightMetricsKey = C;
unicode = 00C7;
},
{
glyphname = D;
lastChange = "2021-08-28 10:10:43 +0000";
layers = (
{
anchors = (
{
name = top;
position = "{355, 701}";
}
);
hints = (
{
place = "{85, 114}";
type = Stem;
},
{
place = "{584, 117}";
type = Stem;
},
{
horizontal = 1;
place = "{0, 93}";
type = Stem;
},
{
horizontal = 1;
place = "{607, 93}";
type = Stem;
}
);
layerId = "0CF0EA28-C756-4A9E-9D7C-CFEF350B4CFE";
paths = (
{
closed = 1;
nodes = (
"85 700 LINE",
"85 0 LINE",
"332 0 LINE SMOOTH",
"555 0 OFFCURVE",
"701 132 OFFCURVE",
"701 347 CURVE SMOOTH",
"701 563 OFFCURVE",
"555 700 OFFCURVE",
"332 700 CURVE SMOOTH"
);
},
{
closed = 1;
nodes = (
"199 95 LINE",
"199 605 LINE",
"332 605 LINE SMOOTH",
"496 605 OFFCURVE",
"585 507 OFFCURVE",
"585 347 CURVE SMOOTH",
"585 188 OFFCURVE",
"496 95 OFFCURVE",
"332 95 CURVE SMOOTH"
);
}
);
width = 743.5;
},
{
anchors = (
{
name = top;
position = "{326, 679}";
}
);
background = {
hints = (
{
horizontal = 1;
place = "{0, 48}";
type = Stem;
},
{
horizontal = 1;
place = "{652, 48}";
type = Stem;
},
{
place = "{104, 52}";
type = Stem;
},
{
place = "{655, 54}";
type = Stem;
}
);
paths = (
{
closed = 1;
nodes = (
"713 352 LINE SMOOTH",
"713 549 OFFCURVE",
"561 700 OFFCURVE",
"341 700 CURVE SMOOTH",
"108 700 LINE",
"108 0 LINE",
"341 0 LINE SMOOTH",
"561 0 OFFCURVE",
"713 153 OFFCURVE",
"713 350 CURVE SMOOTH"
);
},
{
closed = 1;
nodes = (
"659 348 LINE SMOOTH",
"659 181 OFFCURVE",
"536 48 OFFCURVE",
"341 48 CURVE SMOOTH",
"160 48 LINE",
"160 652 LINE",
"341 652 LINE SMOOTH",
"536 652 OFFCURVE",
"659 516 OFFCURVE",
"659 350 CURVE SMOOTH"
);
}
);
};
hints = (
{
place = "{103, 22}";
type = Stem;
},
{
place = "{661, 22}";
type = Stem;
},
{
horizontal = 1;
place = "{0, 21}";
target = up;
type = BottomGhost;
},
{
horizontal = 1;
place = "{685, -20}";
target = down;
type = TopGhost;
}
);
layerId = "6E968933-CD79-43C6-9231-80D77C940F4D";
paths = (
{
closed = 1;
nodes = (
"100 700 LINE",
"100 0 LINE",
"305 0 LINE",
"550 0 OFFCURVE",
"677 129 OFFCURVE",
"677 350 CURVE",
"677 571 OFFCURVE",
"550 700 OFFCURVE",
"305 700 CURVE"
);
},
{
closed = 1;
nodes = (
"122 20 LINE",
"122 680 LINE",
"305 680 LINE",
"540 680 OFFCURVE",
"655 554 OFFCURVE",
"655 350 CURVE",
"655 146 OFFCURVE",
"540 20 OFFCURVE",
"305 20 CURVE"
);
}
);
width = 726.99649;
},
{
anchors = (
{
name = top;
position = "{342, 702}";
}
);
hints = (
{
place = "{53, 176}";
type = Stem;
},
{
place = "{529, 179}";
type = Stem;
},
{
horizontal = 1;
place = "{0, 153}";
type = Stem;
},
{
horizontal = 1;
place = "{549, 151}";
type = Stem;
}
);
layerId = "BAF31694-0472-4296-B0EA-1654553C45D2";
paths = (
{
closed = 1;
nodes = (
"55 700 LINE",
"55 0 LINE",
"341 0 LINE SMOOTH",
"566 0 OFFCURVE",
"710 144 OFFCURVE",
"710 350 CURVE SMOOTH",
"710 558 OFFCURVE",
"566 700 OFFCURVE",
"341 700 CURVE SMOOTH"
);
},
{
closed = 1;
nodes = (
"229 146 LINE",
"229 554 LINE",
"330 554 LINE SMOOTH",
"456 554 OFFCURVE",
"533 476 OFFCURVE",
"533 350 CURVE SMOOTH",
"533 224 OFFCURVE",
"456 146 OFFCURVE",
"330 146 CURVE SMOOTH"
);
}
);
width = 737.50255;
},
{
anchors = (
{
name = top;
position = "{343, 693}";
}
);
hints = (
{
place = "{39, 66}";
type = Stem;
},
{
place = "{627, 66}";
type = Stem;
},
{
horizontal = 1;
place = "{0, 21}";
target = up;
type = BottomGhost;
},
{
horizontal = 1;
place = "{257, -20}";
target = down;
type = TopGhost;
}
);
layerId = "9F107B1E-3A61-4335-981B-27DD48125C7E";
paths = (
{
closed = 1;
nodes = (
"90 700 LINE",
"90 0 LINE",
"321 0 LINE",
"552 0 OFFCURVE",
"691 131 OFFCURVE",
"691 348 CURVE",
"691 566 OFFCURVE",
"552 700 OFFCURVE",
"321 700 CURVE"
);
},
{
closed = 1;
nodes = (
"170 70 LINE",
"170 630 LINE",
"321 630 LINE",
"511 630 OFFCURVE",
"610 525 OFFCURVE",
"610 348 CURVE",
"610 172 OFFCURVE",
"511 70 OFFCURVE",
"321 70 CURVE"
);
}
);
width = 736.00243;
}
);
leftMetricsKey = H;
rightMetricsKey = "=H*0.5";
unicode = 0044;
},
{
glyphname = Eth;
lastChange = "2021-08-28 10:10:43 +0000";
layers = (
{
hints = (
{
place = "{142, 115}";
type = Stem;
},
{
place = "{621, 117}";
type = Stem;
},
{
horizontal = 1;
place = "{0, 87}";
type = Stem;
},
{
horizontal = 1;
place = "{295, 105}";
type = Stem;
},
{
horizontal = 1;
place = "{608, 92}";
type = Stem;
}
);
layerId = "0CF0EA28-C756-4A9E-9D7C-CFEF350B4CFE";
paths = (
{
closed = 1;
nodes = (
"65 295 LINE",
"435 295 LINE",
"435 400 LINE",
"65 400 LINE"
);
},
{
closed = 1;
nodes = (
"142 700 LINE",
"142 0 LINE",
"370 0 LINE SMOOTH",
"593 0 OFFCURVE",
"738 132 OFFCURVE",
"738 347 CURVE SMOOTH",
"738 563 OFFCURVE",
"593 700 OFFCURVE",
"370 700 CURVE SMOOTH"
);
},
{
closed = 1;
nodes = (
"257 87 LINE",
"257 608 LINE",
"370 608 LINE SMOOTH",
"533 608 OFFCURVE",
"621 507 OFFCURVE",
"621 347 CURVE SMOOTH",
"621 188 OFFCURVE",
"533 86 OFFCURVE",
"370 87 CURVE SMOOTH"
);
}
);
width = 780.5;
},
{
background = {
hints = (
{
horizontal = 1;
place = "{0, 48}";
type = Stem;
},
{
horizontal = 1;
place = "{328, 48}";
type = Stem;
},
{
horizontal = 1;
place = "{652, 48}";
type = Stem;
},
{
place = "{134, 52}";
type = Stem;
},
{
place = "{685, 54}";
type = Stem;
}
);
paths = (
{
closed = 1;
nodes = (
"138 328 LINE",
"138 0 LINE",
"371 0 LINE SMOOTH",
"591 0 OFFCURVE",
"743 153 OFFCURVE",
"743 351 CURVE SMOOTH",
"743 549 OFFCURVE",
"591 700 OFFCURVE",
"371 700 CURVE SMOOTH",
"138 700 LINE",
"138 376 LINE",
"63 376 LINE",
"63 328 LINE"
);
},
{
closed = 1;
nodes = (
"190 376 LINE",
"190 652 LINE",
"371 652 LINE SMOOTH",
"566 652 OFFCURVE",
"689 517 OFFCURVE",
"689 349 CURVE SMOOTH",
"689 181 OFFCURVE",
"566 48 OFFCURVE",
"371 48 CURVE SMOOTH",
"190 48 LINE",
"190 328 LINE",
"422 328 LINE",
"422 376 LINE"
);
}
);
};
hints = (
{
place = "{202, 22}";
type = Stem;
},
{
place = "{734, 22}";
type = Stem;
},
{
horizontal = 1;
place = "{0, 21}";
target = up;
type = BottomGhost;
},
{
horizontal = 1;
place = "{685, -20}";
target = down;
type = TopGhost;
}
);
layerId = "6E968933-CD79-43C6-9231-80D77C940F4D";
paths = (
{
closed = 1;
nodes = (
"80 340 LINE",
"448 340 LINE",
"448 360 LINE",
"80 360 LINE"
);
},
{
closed = 1;
nodes = (
"194 700 LINE",
"194 0 LINE",
"380 0 LINE",
"624 0 OFFCURVE",
"752 129 OFFCURVE",
"752 350 CURVE",
"752 571 OFFCURVE",
"624 700 OFFCURVE",
"380 700 CURVE"
);
},
{
closed = 1;
nodes = (
"216 19 LINE",
"216 681 LINE",
"380 681 LINE",
"614 681 OFFCURVE",
"730 554 OFFCURVE",
"730 350 CURVE",
"730 146 OFFCURVE",
"614 19 OFFCURVE",
"380 19 CURVE"
);
}
);
width = 802.00298;
},
{
hints = (
{
place = "{95, 177}";
type = Stem;
},
{
place = "{550, 179}";
type = Stem;
},
{
horizontal = 1;
place = "{0, 151}";
type = Stem;
},
{
horizontal = 1;
place = "{277, 146}";
type = Stem;
},
{
horizontal = 1;
place = "{549, 151}";
type = Stem;
}
);
layerId = "BAF31694-0472-4296-B0EA-1654553C45D2";
paths = (
{
closed = 1;
nodes = (
"35 277 LINE",
"424 277 LINE",
"424 423 LINE",
"35 423 LINE"
);
},
{
closed = 1;
nodes = (
"97 700 LINE",
"97 0 LINE",
"363 0 LINE SMOOTH",
"588 0 OFFCURVE",
"731 144 OFFCURVE",
"731 350 CURVE SMOOTH",
"731 558 OFFCURVE",
"588 700 OFFCURVE",
"363 700 CURVE SMOOTH"
);
},
{
closed = 1;
nodes = (
"273 151 LINE",
"273 550 LINE",
"352 550 LINE SMOOTH",
"477 550 OFFCURVE",
"552 476 OFFCURVE",
"552 350 CURVE SMOOTH",
"552 224 OFFCURVE",
"477 150 OFFCURVE",
"352 151 CURVE SMOOTH"
);
}
);
width = 758.50245;
},
{
hints = (
{
place = "{260, 74}";
type = Stem;
},
{
place = "{655, 66}";
type = Stem;
},
{
horizontal = 1;
place = "{0, 21}";
target = up;
type = BottomGhost;
},
{
horizontal = 1;
place = "{257, -20}";
target = down;
type = TopGhost;
}
);
layerId = "9F107B1E-3A61-4335-981B-27DD48125C7E";
paths = (
{
closed = 1;
nodes = (
"70 312 LINE",
"439 312 LINE",
"439 385 LINE",
"70 385 LINE"
);
},
{
closed = 1;
nodes = (
"160 700 LINE",
"160 0 LINE",
"373 0 LINE",
"604 0 OFFCURVE",
"742 131 OFFCURVE",
"742 348 CURVE",
"742 566 OFFCURVE",
"604 700 OFFCURVE",
"373 700 CURVE"
);
},
{
closed = 1;
nodes = (
"241 62 LINE",
"241 635 LINE",
"373 635 LINE",
"562 635 OFFCURVE",
"661 525 OFFCURVE",
"661 348 CURVE",
"661 172 OFFCURVE",
"562 61 OFFCURVE",
"373 62 CURVE"
);
}
);
width = 787.00487;
}
);
leftMetricsKey = "=D-20";
rightMetricsKey = D;
unicode = 00D0;
},
{
glyphname = E;
lastChange = "2021-08-28 10:10:43 +0000";
layers = (
{
anchors = (
{
name = bottom;
position = "{312, 0}";
},
{
name = ogonek;
position = "{509, 0}";
},
{
name = top;
position = "{322, 701}";
}
);
hints = (
{
place = "{85, 114}";
type = Stem;
},
{
horizontal = 1;
place = "{0, 93}";
type = Stem;
},
{
horizontal = 1;
place = "{308, 93}";
type = Stem;
},
{
horizontal = 1;
place = "{607, 93}";
type = Stem;
}
);
layerId = "0CF0EA28-C756-4A9E-9D7C-CFEF350B4CFE";
paths = (
{
closed = 1;
nodes = (
"559 700 LINE",
"85 700 LINE",
"85 0 LINE",
"559 0 LINE",
"559 95 LINE",
"199 95 LINE",
"199 307 LINE",
"469 307 LINE",
"469 402 LINE",
"199 402 LINE",
"199 605 LINE",
"559 605 LINE"
);
}
);
width = 624;
},
{
anchors = (
{
name = bottom;
position = "{288, 0}";
},
{
name = ogonek;
position = "{484, 0}";
},
{
name = top;
position = "{317, 690}";
}
);
background = {
hints = (
{
horizontal = 1;
place = "{0, 48}";
type = Stem;
},
{
horizontal = 1;
place = "{329, 48}";
type = Stem;
},
{
horizontal = 1;
place = "{652, 48}";
type = Stem;
},
{
place = "{104, 52}";
type = Stem;
}
);
paths = (
{
closed = 1;
nodes = (
"611 0 LINE",
"611 48 LINE",
"160 48 LINE",
"160 329 LINE",
"561 329 LINE",
"561 377 LINE",
"160 377 LINE",
"160 652 LINE",
"606 652 LINE",
"606 700 LINE",
"108 700 LINE",
"108 0 LINE"
);
}
);
};
hints = (
{
place = "{116, 22}";
type = Stem;
},
{
horizontal = 1;
place = "{685, -20}";
target = down;
type = TopGhost;
},
{
horizontal = 1;
place = "{0, 21}";
target = up;
type = BottomGhost;
}
);
layerId = "6E968933-CD79-43C6-9231-80D77C940F4D";
paths = (
{
closed = 1;
nodes = (
"534 700 LINE",
"100 700 LINE",
"100 0 LINE",
"534 0 LINE",
"534 20 LINE",
"122 20 LINE",
"122 350 LINE",
"444 350 LINE",
"444 370 LINE",
"122 370 LINE",
"122 680 LINE",
"534 680 LINE"
);
}
);
width = 614;
},
{
anchors = (
{
name = bottom;
position = "{308, 1}";
},
{
name = ogonek;
position = "{530, 1}";
},
{
name = top;
position = "{312, 702}";
}
);
hints = (
{
place = "{53, 176}";
type = Stem;
},
{
horizontal = 1;
place = "{0, 141}";
type = Stem;
},
{
horizontal = 1;
place = "{286, 141}";
type = Stem;
},
{
horizontal = 1;
place = "{559, 141}";
type = Stem;
}
);
layerId = "BAF31694-0472-4296-B0EA-1654553C45D2";
paths = (
{
closed = 1;
nodes = (
"580 700 LINE",
"55 700 LINE",
"55 0 LINE",
"579.991 0 LINE",
"580 146 LINE",
"229 146 LINE",
"229 287 LINE",
"478 287 LINE",
"478 423 LINE",
"229 423 LINE",
"229 554 LINE",
"580 554 LINE"
);
}
);
width = 615.00434;
},
{
anchors = (
{
name = bottom;
position = "{302, 0}";
},
{
name = ogonek;
position = "{499, 0}";
},
{
name = top;
position = "{319, 697}";
}
);
hints = (
{
place = "{423, 66}";
type = Stem;
},
{
horizontal = 1;
place = "{257, -20}";
target = down;
type = TopGhost;
},
{
horizontal = 1;
place = "{0, 21}";
target = up;
type = BottomGhost;
}
);
layerId = "9F107B1E-3A61-4335-981B-27DD48125C7E";
paths = (
{
closed = 1;
nodes = (
"549 700 LINE",
"90 700 LINE",
"90 0 LINE",
"549 0 LINE",
"549 70 LINE",
"170 70 LINE",
"170 321 LINE",
"459 321 LINE",
"459 391 LINE",
"170 391 LINE",
"170 630 LINE",
"549 630 LINE"
);
}
);
width = 619.00375;
}
);
leftMetricsKey = H;
rightMetricsKey = "=H-20";
unicode = 0045;
},
{
glyphname = Eacute;
lastChange = "2021-08-28 10:10:50 +0000";
layers = (
{
components = (
{
alignment = -1;
name = E;
},
{
name = acute;
transform = "{1, 0, 0, 1.007, 191.25, 146.143}";
}
);
layerId = "0CF0EA28-C756-4A9E-9D7C-CFEF350B4CFE";
width = 624;
},
{
background = {
hints = (
{
horizontal = 1;
place = "{0, 48}";
type = Stem;
},
{
horizontal = 1;
place = "{329, 48}";
type = Stem;
},
{
horizontal = 1;
place = "{652, 48}";
type = Stem;
},
{
horizontal = 1;
place = "{765, 21}";
type = Stem;
},
{
horizontal = 1;
place = "{878, 20}";
type = Stem;
},
{
place = "{104, 52}";
type = Stem;
}
);
paths = (
{
closed = 1;
nodes = (
"607 0 LINE",
"607 48 LINE",
"156 48 LINE",
"156 329 LINE",
"557 329 LINE",
"557 377 LINE",
"156 377 LINE",
"156 652 LINE",
"602 652 LINE",
"602 700 LINE",
"104 700 LINE",
"104 0 LINE"
);
},
{
closed = 1;
nodes = (
"351 765 LINE",
"458 868 LINE",
"397 898 LINE",
"309 765 LINE"
);
}
);
};
components = (
{
alignment = -1;
name = E;
},
{
alignment = -1;
name = acute;
transform = "{1, 0, 0, 0.9943, 199, 153}";
}
);
layerId = "6E968933-CD79-43C6-9231-80D77C940F4D";
width = 614;
},
{
components = (
{
alignment = -1;
name = E;
},
{
alignment = -1;
name = acute;
transform = "{1, 0, 0, 0.9943, 177, 146}";
}
);
layerId = "BAF31694-0472-4296-B0EA-1654553C45D2";
width = 614.99962;
},
{
components = (
{
alignment = -1;
name = E;
},
{
alignment = -1;
name = acute;
transform = "{1, 0, 0, 1.0022, 194, 149}";
}
);
layerId = "9F107B1E-3A61-4335-981B-27DD48125C7E";
width = 619.00375;
}
);
leftMetricsKey = H;
rightMetricsKey = E;
unicode = 00C9;
},
{
glyphname = Ecircumflex;
lastChange = "2021-08-28 10:10:50 +0000";
layers = (
{
components = (
{
alignment = -1;
name = E;
},
{
name = circumflex;
transform = "{1, 0, 0, 1.007, 166.25, 146.143}";
}
);
layerId = "0CF0EA28-C756-4A9E-9D7C-CFEF350B4CFE";
width = 624;
},
{
background = {
hints = (
{
horizontal = 1;
place = "{0, 48}";
type = Stem;
},
{
horizontal = 1;
place = "{329, 48}";
type = Stem;
},
{
horizontal = 1;
place = "{652, 48}";
type = Stem;
},
{
horizontal = 1;
place = "{765, 21}";
type = Stem;
},
{
horizontal = 1;
place = "{867, 20}";
type = Stem;
},
{
place = "{104, 52}";
type = Stem;
}
);
paths = (
{
closed = 1;
nodes = (
"607 0 LINE",
"607 48 LINE",
"156 48 LINE",
"156 329 LINE",
"557 329 LINE",
"557 377 LINE",
"156 377 LINE",
"156 652 LINE",
"602 652 LINE",
"602 700 LINE",
"104 700 LINE",
"104 0 LINE"
);
},
{
closed = 1;
nodes = (
"348 833 LINE",
"422 765 LINE",
"469 765 LINE",
"369 887 LINE",
"329 887 LINE",
"229 765 LINE",
"274 765 LINE"
);
}
);
};
components = (
{
alignment = -1;
name = E;
},
{
alignment = -1;
name = circumflex;
transform = "{1, 0, 0, 0.9943, 182, 153}";
}
);
layerId = "6E968933-CD79-43C6-9231-80D77C940F4D";
width = 614;
},
{
components = (
{
alignment = -1;
name = E;
},
{
alignment = -1;
name = circumflex;
transform = "{1, 0, 0, 0.9943, 146, 146}";
}
);
layerId = "BAF31694-0472-4296-B0EA-1654553C45D2";
width = 614.99962;
},
{
components = (
{
alignment = -1;
name = E;
},
{
alignment = -1;
name = circumflex;
transform = "{1, 0, 0, 1.0022, 172, 149}";
}
);
layerId = "9F107B1E-3A61-4335-981B-27DD48125C7E";
width = 619.00375;
}
);
leftMetricsKey = H;
rightMetricsKey = E;
unicode = 00CA;
},
{
glyphname = Edieresis;
lastChange = "2021-08-28 10:10:50 +0000";
layers = (
{
components = (
{
alignment = -1;
name = E;
},
{
name = dieresis;
transform = "{1, 0, 0, 1.007, 163.25, 146.143}";
}
);
layerId = "0CF0EA28-C756-4A9E-9D7C-CFEF350B4CFE";
width = 624;
},
{
background = {
hints = (
{
horizontal = 1;
place = "{0, 48}";
type = Stem;
},
{
horizontal = 1;
place = "{329, 48}";
type = Stem;
},
{
horizontal = 1;
place = "{652, 48}";
type = Stem;
},
{
horizontal = 1;
place = "{765, 80}";
type = Stem;
},
{
place = "{104, 52}";
type = Stem;
},
{
place = "{233, 69}";
type = Stem;
},
{
place = "{396, 69}";
type = Stem;
}
);
paths = (
{
closed = 1;
nodes = (
"607 0 LINE",
"607 48 LINE",
"156 48 LINE",
"156 329 LINE",
"557 329 LINE",
"557 377 LINE",
"156 377 LINE",
"156 652 LINE",
"602 652 LINE",
"602 700 LINE",
"104 700 LINE",
"104 0 LINE"
);
},
{
closed = 1;
nodes = (
"465 765 LINE",
"465 845 LINE",
"396 845 LINE",
"396 765 LINE"
);
},
{
closed = 1;
nodes = (
"302 765 LINE",
"302 845 LINE",
"233 845 LINE",
"233 765 LINE"
);
}
);
};
components = (
{
alignment = -1;
name = E;
},
{
alignment = -1;
name = dieresis;
transform = "{1, 0, 0, 0.9943, 209, 153}";
}
);
layerId = "6E968933-CD79-43C6-9231-80D77C940F4D";
width = 614;
},
{
components = (
{
alignment = -1;
name = E;
},
{
alignment = -1;
name = dieresis;
transform = "{1, 0, 0, 0.9943, 126, 146}";
}
);
layerId = "BAF31694-0472-4296-B0EA-1654553C45D2";
width = 614.99962;
},
{
components = (
{
alignment = -1;
name = E;
},
{
alignment = -1;
name = dieresis;
transform = "{1, 0, 0, 1.0022, 180, 149}";
}
);
layerId = "9F107B1E-3A61-4335-981B-27DD48125C7E";
width = 619.00375;
}
);
leftMetricsKey = H;
rightMetricsKey = E;
unicode = 00CB;
},
{
glyphname = Egrave;
lastChange = "2021-08-28 10:10:50 +0000";
layers = (
{
components = (
{
alignment = -1;
name = E;
},
{
name = grave;
transform = "{1, 0, 0, 1.007, 191.25, 146.143}";
}
);
layerId = "0CF0EA28-C756-4A9E-9D7C-CFEF350B4CFE";
width = 624;
},
{
background = {
hints = (
{
horizontal = 1;
place = "{0, 48}";
type = Stem;
},
{
horizontal = 1;
place = "{329, 48}";
type = Stem;
},
{
horizontal = 1;
place = "{652, 48}";
type = Stem;
},
{
horizontal = 1;
place = "{765, 21}";
type = Stem;
},
{
horizontal = 1;
place = "{878, 20}";
type = Stem;
},
{
place = "{104, 52}";
type = Stem;
}
);
paths = (
{
closed = 1;
nodes = (
"607 0 LINE",
"607 48 LINE",
"156 48 LINE",
"156 329 LINE",
"557 329 LINE",
"557 377 LINE",
"156 377 LINE",
"156 652 LINE",
"602 652 LINE",
"602 700 LINE",
"104 700 LINE",
"104 0 LINE"
);
},
{
closed = 1;
nodes = (
"349 765 LINE",
"391 765 LINE",
"303 898 LINE",
"242 868 LINE"
);
}
);
};
components = (
{
alignment = -1;
name = E;
},
{
alignment = -1;
name = grave;
transform = "{1, 0, 0, 0.9943, 199, 153}";
}
);
layerId = "6E968933-CD79-43C6-9231-80D77C940F4D";
width = 614;
},
{
components = (
{
alignment = -1;
name = E;
},
{
alignment = -1;
name = grave;
transform = "{1, 0, 0, 0.9943, 177, 146}";
}
);
layerId = "BAF31694-0472-4296-B0EA-1654553C45D2";
width = 614.99962;
},
{
components = (
{
alignment = -1;
name = E;
},
{
alignment = -1;
name = grave;
transform = "{1, 0, 0, 1.0022, 194, 149}";
}
);
layerId = "9F107B1E-3A61-4335-981B-27DD48125C7E";
width = 619.00375;
}
);
leftMetricsKey = H;
rightMetricsKey = E;
unicode = 00C8;
},
{
glyphname = F;
lastChange = "2021-08-28 10:10:43 +0000";
layers = (
{
hints = (
{
place = "{85, 114}";
type = Stem;
},
{
horizontal = 1;
place = "{306, 93}";
type = Stem;
},
{
horizontal = 1;
place = "{607, 93}";
type = Stem;
},
{
horizontal = 1;
place = "{0, 21}";
target = up;
type = BottomGhost;
}
);
layerId = "0CF0EA28-C756-4A9E-9D7C-CFEF350B4CFE";
paths = (
{
closed = 1;
nodes = (
"85 0 LINE",
"199 0 LINE",
"199 307 LINE",
"469 307 LINE",
"469 402 LINE",
"199 402 LINE",
"199 605 LINE",
"559 605 LINE",
"559 700 LINE",
"85 700 LINE"
);
}
);
width = 602.286;
},
{
background = {
hints = (
{
horizontal = 1;
place = "{0, 21}";
type = Stem;
},
{
horizontal = 1;
place = "{317, 48}";
type = Stem;
},
{
horizontal = 1;
place = "{652, 48}";
type = Stem;
},
{
place = "{104, 52}";
type = Stem;
}
);
paths = (
{
closed = 1;
nodes = (
"601 652 LINE",
"601 700 LINE",
"108 700 LINE",
"108 0 LINE",
"160 0 LINE",
"160 317 LINE",
"556 317 LINE",
"556 365 LINE",
"160 365 LINE",
"160 652 LINE"
);
}
);
};
hints = (
{
place = "{116, 22}";
type = Stem;
},
{
horizontal = 1;
place = "{685, -20}";
target = down;
type = TopGhost;
},
{
horizontal = 1;
place = "{0, 21}";
target = up;
type = BottomGhost;
}
);
layerId = "6E968933-CD79-43C6-9231-80D77C940F4D";
paths = (
{
closed = 1;
nodes = (
"100 0 LINE",
"122 0 LINE",
"122 350 LINE",
"444 350 LINE",
"444 370 LINE",
"122 370 LINE",
"122 680 LINE",
"534 680 LINE",
"534 700 LINE",
"100 700 LINE"
);
}
);
width = 587.2825;
},
{
hints = (
{
place = "{53, 176}";
type = Stem;
},
{
horizontal = 1;
place = "{281, 136}";
type = Stem;
},
{
horizontal = 1;
place = "{559, 141}";
type = Stem;
},
{
horizontal = 1;
place = "{0, 21}";
target = up;
type = BottomGhost;
}
);
layerId = "BAF31694-0472-4296-B0EA-1654553C45D2";
paths = (
{
closed = 1;
nodes = (
"55 0 LINE",
"229 0 LINE",
"229 287 LINE",
"478 287 LINE",
"478 423 LINE",
"229 423 LINE",
"229 554 LINE",
"580 554 LINE",
"580 700 LINE",
"55 700 LINE"
);
}
);
width = 603.31045;
},
{
hints = (
{
place = "{423, 66}";
type = Stem;
},
{
horizontal = 1;
place = "{257, -20}";
target = down;
type = TopGhost;
},
{
horizontal = 1;
place = "{0, 21}";
target = up;
type = BottomGhost;
}
);
layerId = "9F107B1E-3A61-4335-981B-27DD48125C7E";
paths = (
{
closed = 1;
nodes = (
"90 0 LINE",
"170 0 LINE",
"170 321 LINE",
"459 321 LINE",
"459 391 LINE",
"170 391 LINE",
"170 630 LINE",
"549 630 LINE",
"549 700 LINE",
"90 700 LINE"
);
}
);
width = 595.61935;
}
);
leftMetricsKey = H;
rightMetricsKey = "=E*0.666";
unicode = 0046;
},
{
glyphname = G;
lastChange = "2021-08-28 17:10:33 +0000";
layers = (
{
anchors = (
{
name = bottom;
position = "{391.5, 0}";
},
{
name = top;
position = "{391.5, 701}";
}
);
hints = (
{
place = "{42, 117}";
type = Stem;
},
{
place = "{599, 122}";
type = Stem;
},
{
horizontal = 1;
place = "{-6, 103}";
type = Stem;
},
{
horizontal = 1;
place = "{292, 91}";
type = Stem;
},
{
horizontal = 1;
place = "{604, 104}";
type = Stem;
}
);
layerId = "0CF0EA28-C756-4A9E-9D7C-CFEF350B4CFE";
paths = (
{
closed = 1;
nodes = (
"711.5 520 LINE",
"657.5 641 OFFCURVE",
"530.5 707 OFFCURVE",
"397.5 707 CURVE SMOOTH",
"201.5 707 OFFCURVE",
"42.5 559 OFFCURVE",
"42.5 350 CURVE SMOOTH",
"42.5 140 OFFCURVE",
"201.5 -7 OFFCURVE",
"397.5 -7 CURVE SMOOTH",
"553.5 -7 OFFCURVE",
"678.5 89 OFFCURVE",
"726.5 214 CURVE",
"726.5 386 LINE",
"406.5 386 LINE",
"406.5 292 LINE",
"610.5 292 LINE",
"610.5 219 LINE",
"575.5 143 OFFCURVE",
"495.5 90 OFFCURVE",
"397.5 90 CURVE SMOOTH",
"259.5 90 OFFCURVE",
"158.5 196 OFFCURVE",
"158.5 350 CURVE SMOOTH",
"158.5 504 OFFCURVE",
"262.5 610 OFFCURVE",
"400.5 610 CURVE SMOOTH",
"489.175 610 OFFCURVE",
"562.079 573.242 OFFCURVE",
"611.5 483 CURVE"
);
}
);
width = 777.5;
},
{
anchors = (
{
name = bottom;
position = "{401, 0}";
},
{
name = top;
position = "{401, 679}";
}
);
background = {
hints = (
{
horizontal = 1;
place = "{-12, 46}";
type = Stem;
},
{
horizontal = 1;
place = "{315, 48}";
type = Stem;
},
{
horizontal = 1;
place = "{665, 47}";
type = Stem;
},
{
place = "{73, 54}";
type = Stem;
},
{
place = "{650, 50}";
type = Stem;
}
);
paths = (
{
closed = 1;
nodes = (
"702 363 LINE",
"418 363 LINE",
"418 315 LINE",
"652 315 LINE",
"652 114 LINE",
"601 71 OFFCURVE",
"518 34 OFFCURVE",
"429 34 CURVE SMOOTH",
"242 34 OFFCURVE",
"129 169 OFFCURVE",
"129 350 CURVE SMOOTH",
"129 352 LINE SMOOTH",
"129 521 OFFCURVE",
"248 665 OFFCURVE",
"418 665 CURVE SMOOTH",
"524 665 OFFCURVE",
"588 629 OFFCURVE",
"643 581 CURVE",
"677 620 LINE",
"607 678 OFFCURVE",
"535 712 OFFCURVE",
"421 712 CURVE SMOOTH",
"212 712 OFFCURVE",
"75 539 OFFCURVE",
"75 350 CURVE SMOOTH",
"75 348 LINE SMOOTH",
"75 151 OFFCURVE",
"206 -12 OFFCURVE",
"427 -12 CURVE SMOOTH",
"541 -12 OFFCURVE",
"639 37 OFFCURVE",
"702 93 CURVE"
);
}
);
};
hints = (
{
place = "{64, 23}";
type = Stem;
},
{
horizontal = 1;
place = "{691, -20}";
target = down;
type = TopGhost;
},
{
horizontal = 1;
place = "{-8, 21}";
target = up;
type = BottomGhost;
}
);
layerId = "6E968933-CD79-43C6-9231-80D77C940F4D";
paths = (
{
closed = 1;
nodes = (
"690 509 LINE",
"639 629 OFFCURVE",
"535 707 OFFCURVE",
"387 707 CURVE SMOOTH",
"191 707 OFFCURVE",
"50 560 OFFCURVE",
"50 350 CURVE SMOOTH",
"50 140 OFFCURVE",
"191 -7 OFFCURVE",
"387 -7 CURVE SMOOTH",
"546 -7 OFFCURVE",
"669 91 OFFCURVE",
"709 240 CURVE",
"709 359 LINE",
"387 359 LINE",
"387 339 LINE",
"687 339 LINE",
"687 242 LINE",
"647 98 OFFCURVE",
"528 13 OFFCURVE",
"387 13 CURVE SMOOTH",
"212 13 OFFCURVE",
"72 141 OFFCURVE",
"72 350 CURVE SMOOTH",
"72 560 OFFCURVE",
"212 687 OFFCURVE",
"387 687 CURVE SMOOTH",
"527 687 OFFCURVE",
"629 609 OFFCURVE",
"672 502 CURVE"
);
}
);
width = 769.0006;
},
{
anchors = (
{
name = bottom;
position = "{375.5, 1}";
},
{
name = top;
position = "{375.5, 702}";
}
);
hints = (
{
place = "{18, 50}";
type = Stem;
},
{
place = "{263, 181}";
type = Stem;
},
{
horizontal = 1;
place = "{-5, 156}";
type = Stem;
},
{
horizontal = 1;
place = "{267, 128}";
type = Stem;
},
{
horizontal = 1;
place = "{545, 162}";
type = Stem;
}
);
layerId = "BAF31694-0472-4296-B0EA-1654553C45D2";
paths = (
{
closed = 1;
nodes = (
"708.5 508 LINE",
"664.5 631 OFFCURVE",
"538.5 707 OFFCURVE",
"383.5 707 CURVE SMOOTH",
"172.5 707 OFFCURVE",
"27.5 559 OFFCURVE",
"27.5 350 CURVE SMOOTH",
"27.5 141 OFFCURVE",
"173.5 -7 OFFCURVE",
"385.5 -7 CURVE SMOOTH",
"556.5 -7 OFFCURVE",
"666.5 94 OFFCURVE",
"714.5 196 CURVE",
"714.5 401 LINE",
"386.5 401 LINE",
"386.5 265 LINE",
"554.5 265 LINE",
"554.5 236 LINE",
"521.5 179 OFFCURVE",
"469.5 141 OFFCURVE",
"398.5 141 CURVE SMOOTH",
"277.5 141 OFFCURVE",
"204.5 223 OFFCURVE",
"204.5 350 CURVE SMOOTH",
"204.5 468 OFFCURVE",
"281.5 559 OFFCURVE",
"389.5 559 CURVE SMOOTH",
"459.95 559 OFFCURVE",
"512.353 530.981 OFFCURVE",
"544.5 470 CURVE"
);
}
);
width = 747.50109;
},
{
anchors = (
{
name = bottom;
position = "{395, 0}";
},
{
name = top;
position = "{395, 693}";
}
);
hints = (
{
place = "{402, 74}";
type = Stem;
},
{
horizontal = 1;
place = "{259, -20}";
target = down;
type = TopGhost;
},
{
horizontal = 1;
place = "{-3, 21}";
target = up;
type = BottomGhost;
}
);
layerId = "9F107B1E-3A61-4335-981B-27DD48125C7E";
paths = (
{
closed = 1;
nodes = (
"705 516 LINE",
"652 637 OFFCURVE",
"532 707 OFFCURVE",
"394 707 CURVE SMOOTH",
"198 707 OFFCURVE",
"45 560 OFFCURVE",
"45 350 CURVE SMOOTH",
"45 140 OFFCURVE",
"198 -7 OFFCURVE",
"394 -7 CURVE SMOOTH",
"551 -7 OFFCURVE",
"676 90 OFFCURVE",
"721 224 CURVE",
"721 374 LINE",
"400 374 LINE",
"400 309 LINE",
"640 309 LINE",
"640 228 LINE",
"603 126 OFFCURVE",
"508 65 OFFCURVE",
"394 65 CURVE SMOOTH",
"242 65 OFFCURVE",
"126 176 OFFCURVE",
"126 350 CURVE SMOOTH",
"126 525 OFFCURVE",
"242 636 OFFCURVE",
"394 636 CURVE SMOOTH",
"497 636 OFFCURVE",
"585.457 590.513 OFFCURVE",
"635 490 CURVE"
);
}
);
width = 775.00073;
}
);
leftMetricsKey = O;
rightMetricsKey = "=O*1.2";
unicode = 0047;
},
{
glyphname = Gcommaaccent;
lastChange = "2021-08-28 10:10:43 +0000";
layers = (
{
anchors = (
{
name = _bottom;
position = "{386, 0}";
}
);
components = (
{
alignment = -1;
name = G;
}
);
hints = (
{
place = "{332, 117}";
type = Stem;
},
{
place = "{336, 113}";
type = Stem;
},
{
place = "{385, 64}";
type = Stem;
},
{
horizontal = 1;
place = "{-143, 96}";
type = Stem;
},
{
horizontal = 1;
place = "{-272, 21}";
target = up;
type = BottomGhost;
}
);
layerId = "0CF0EA28-C756-4A9E-9D7C-CFEF350B4CFE";
paths = (
{
closed = 1;
nodes = (
"332 -47 LINE",
"332 -143 LINE",
"385 -143 LINE",
"385 -165 LINE SMOOTH",
"385 -203.003 OFFCURVE",
"370 -222 OFFCURVE",
"336 -222 CURVE",
"336 -272 LINE",
"410 -272 OFFCURVE",
"449 -230 OFFCURVE",
"449 -146 CURVE SMOOTH",
"449 -117 OFFCURVE",
"444 -84 OFFCURVE",
"435 -47 CURVE"
);
}
);
width = 777.5;
},
{
anchors = (
{
name = _bottom;
position = "{396, -8}";
}
);
components = (
{
alignment = -1;
name = G;
}
);
hints = (
{
place = "{396, 24}";
type = Stem;
},
{
horizontal = 1;
place = "{-58, -20}";
target = down;
type = TopGhost;
},
{
horizontal = 1;
place = "{-177, 21}";
target = up;
type = BottomGhost;
}
);
layerId = "6E968933-CD79-43C6-9231-80D77C940F4D";
paths = (
{
closed = 1;
nodes = (
"376 -58 LINE",
"376 -97 LINE",
"408 -97 LINE",
"408 -105 LINE SMOOTH",
"408 -138 OFFCURVE",
"396 -158 OFFCURVE",
"364 -158 CURVE",
"364 -177 LINE",
"401 -177 OFFCURVE",
"430 -162 OFFCURVE",
"430 -91 CURVE SMOOTH",
"430 -81 OFFCURVE",
"429 -68 OFFCURVE",
"428 -58 CURVE"
);
}
);
width = 768.9966;
},
{
anchors = (
{
name = _bottom;
position = "{381, 1}";
}
);
components = (
{
alignment = -1;
name = G;
}
);
hints = (
{
place = "{312, 154}";
type = Stem;
},
{
place = "{356, 111}";
type = Stem;
},
{
place = "{-33, 73}";
type = Stem;
},
{
horizontal = 1;
place = "{-164, 125}";
type = Stem;
},
{
horizontal = 1;
place = "{-115, 21}";
target = up;
type = BottomGhost;
}
);
layerId = "BAF31694-0472-4296-B0EA-1654553C45D2";
paths = (
{
closed = 1;
nodes = (
"312 -38 LINE",
"312 -164 LINE",
"376 -164 LINE",
"376 -178 LINE SMOOTH",
"376 -224 OFFCURVE",
"358 -245 OFFCURVE",
"324 -245 CURVE",
"324 -312 LINE",
"421 -312 OFFCURVE",
"467 -248 OFFCURVE",
"467 -158 CURVE SMOOTH",
"467 -121 OFFCURVE",
"460 -81 OFFCURVE",
"446 -38 CURVE"
);
}
);
width = 747.49509;
},
{
anchors = (
{
name = _bottom;
position = "{390, -3}";
}
);
components = (
{
alignment = -1;
name = G;
}
);
hints = (
{
place = "{59, 69}";
type = Stem;
},
{
horizontal = 1;
place = "{-22, -20}";
target = down;
type = TopGhost;
},
{
horizontal = 1;
place = "{-236, 21}";
target = up;
type = BottomGhost;
}
);
layerId = "9F107B1E-3A61-4335-981B-27DD48125C7E";
paths = (
{
closed = 1;
nodes = (
"349 -51 LINE",
"349 -126 LINE",
"394 -126 LINE",
"394 -143 LINE SMOOTH",
"394 -179 OFFCURVE",
"380 -198 OFFCURVE",
"347 -198 CURVE",
"347 -236 LINE",
"407 -236 OFFCURVE",
"442 -205 OFFCURVE",
"442 -125 CURVE SMOOTH",
"442 -104 OFFCURVE",
"438 -78 OFFCURVE",
"432 -51 CURVE"
);
}
);
width = 775.00248;
}
);
leftMetricsKey = G;
rightMetricsKey = G;
unicode = 0122;
},
{
glyphname = H;
lastChange = "2021-08-28 10:08:51 +0000";
layers = (
{
guideLines = (
{
position = "{7, 699.66}";
}
);
hints = (
{
place = "{85, 114}";
type = Stem;
},
{
place = "{526, 114}";
type = Stem;
},
{
horizontal = 1;
place = "{306, 93}";
type = Stem;
},
{
horizontal = 1;
place = "{0, 21}";
target = up;
type = BottomGhost;
},
{
horizontal = 1;
place = "{700, -20}";
target = down;
type = TopGhost;
}
);
layerId = "0CF0EA28-C756-4A9E-9D7C-CFEF350B4CFE";
paths = (
{
closed = 1;
nodes = (
"85 0 LINE",
"199 0 LINE",
"199 700 LINE",
"85 700 LINE"
);
},
{
closed = 1;
nodes = (
"534 0 LINE",
"648 0 LINE",
"648 700 LINE",
"534 700 LINE"
);
},
{
closed = 1;
nodes = (
"186 307 LINE",
"560 307 LINE",
"560 402 LINE",
"186 402 LINE"
);
}
);
width = 733;
},
{
background = {
hints = (
{
horizontal = 1;
place = "{0, 21}";
type = Stem;
},
{
horizontal = 1;
place = "{328, 48}";
type = Stem;
},
{
horizontal = 1;
place = "{680, 20}";
type = Stem;
},
{
place = "{104, 52}";
type = Stem;
},
{
place = "{604, 52}";
type = Stem;
}
);
paths = (
{
closed = 1;
nodes = (
"660 0 LINE",
"660 700 LINE",
"608 700 LINE",
"608 376 LINE",
"160 376 LINE",
"160 700 LINE",
"108 700 LINE",
"108 0 LINE",
"160 0 LINE",
"160 328 LINE",
"608 328 LINE",
"608 0 LINE"
);
}
);
};
hints = (
{
place = "{114, 22}";
type = Stem;
},
{
place = "{559, 22}";
type = Stem;
},
{
horizontal = 1;
place = "{0, 21}";
target = up;
type = BottomGhost;
},
{
horizontal = 1;
place = "{700, -20}";
target = down;
type = TopGhost;
}
);
layerId = "6E968933-CD79-43C6-9231-80D77C940F4D";
paths = (
{
closed = 1;
nodes = (
"100 0 LINE",
"122 0 LINE",
"122 700 LINE",
"100 700 LINE"
);
},
{
closed = 1;
nodes = (
"569 0 LINE",
"591 0 LINE",
"591 700 LINE",
"569 700 LINE"
);
},
{
closed = 1;
nodes = (
"115 350 LINE",
"575 350 LINE",
"575 370 LINE",
"115 370 LINE"
);
}
);
width = 690.99596;
},
{
hints = (
{
place = "{53, 176}";
type = Stem;
},
{
place = "{490, 176}";
type = Stem;
},
{
horizontal = 1;
place = "{286, 141}";
type = Stem;
},
{
horizontal = 1;
place = "{0, 21}";
target = up;
type = BottomGhost;
},
{
horizontal = 1;
place = "{700, -20}";
target = down;
type = TopGhost;
}
);
layerId = "BAF31694-0472-4296-B0EA-1654553C45D2";
paths = (
{
closed = 1;
nodes = (
"55 0 LINE",
"229 0 LINE",
"229 700 LINE",
"55 700 LINE"
);
},
{
closed = 1;
nodes = (
"493 0 LINE",
"667 0 LINE",
"667 700 LINE",
"493 700 LINE"
);
},
{
closed = 1;
nodes = (
"215 282 LINE",
"519 282 LINE",
"519 428 LINE",
"215 428 LINE"
);
}
);
width = 722;
},
{
hints = (
{
place = "{372, 80}";
type = Stem;
},
{
place = "{401, 66}";
type = Stem;
},
{
horizontal = 1;
place = "{0, 21}";
target = up;
type = BottomGhost;
},
{
horizontal = 1;
place = "{700, -20}";
target = down;
type = TopGhost;
}
);
layerId = "9F107B1E-3A61-4335-981B-27DD48125C7E";
paths = (
{
closed = 1;
nodes = (
"90 0 LINE",
"170 0 LINE",
"170 700 LINE",
"90 700 LINE"
);
},
{
closed = 1;
nodes = (
"545 0 LINE",
"625 0 LINE",
"625 700 LINE",
"545 700 LINE"
);
},
{
closed = 1;
nodes = (
"156 321 LINE",
"563 321 LINE",
"563 391 LINE",
"156 391 LINE"
);
}
);
width = 714.99724;
}
);
unicode = 0048;
},
{
glyphname = I;
lastChange = "2021-08-28 10:10:43 +0000";
layers = (
{
anchors = (
{
name = ogonek;
position = "{199, 1}";
},
{
name = top;
position = "{142, 701}";
}
);
hints = (
{
place = "{85, 114}";
type = Stem;
},
{
horizontal = 1;
place = "{0, 21}";
target = up;
type = BottomGhost;
},
{
horizontal = 1;
place = "{700, -20}";
target = down;
type = TopGhost;
}
);
layerId = "0CF0EA28-C756-4A9E-9D7C-CFEF350B4CFE";
paths = (
{
closed = 1;
nodes = (
"85 0 LINE",
"199 0 LINE",
"199 700 LINE",
"85 700 LINE"
);
}
);
width = 284;
},
{
anchors = (
{
name = ogonek;
position = "{122, 0}";
},
{
name = top;
position = "{111, 679}";
}
);
background = {
hints = (
{
horizontal = 1;
place = "{0, 21}";
type = Stem;
},
{
horizontal = 1;
place = "{680, 20}";
type = Stem;
},
{
place = "{111, 52}";
type = Stem;
}
);
paths = (
{
closed = 1;
nodes = (
"167 0 LINE",
"167 700 LINE",
"115 700 LINE",
"115 0 LINE"
);
}
);
};
hints = (
{
place = "{105, 22}";
type = Stem;
},
{
horizontal = 1;
place = "{0, 21}";
target = up;
type = BottomGhost;
},
{
horizontal = 1;
place = "{700, -20}";
target = down;
type = TopGhost;
}
);
layerId = "6E968933-CD79-43C6-9231-80D77C940F4D";
paths = (
{
closed = 1;
nodes = (
"100 0 LINE",
"122 0 LINE",
"122 700 LINE",
"100 700 LINE"
);
}
);
width = 221.99894;
},
{
anchors = (
{
name = ogonek;
position = "{230, 1}";
},
{
name = top;
position = "{142, 702}";
}
);
hints = (
{
place = "{53, 176}";
type = Stem;
},
{
horizontal = 1;
place = "{0, 21}";
target = up;
type = BottomGhost;
},
{
horizontal = 1;
place = "{700, -20}";
target = down;
type = TopGhost;
}
);
layerId = "BAF31694-0472-4296-B0EA-1654553C45D2";
paths = (
{
closed = 1;
nodes = (
"55 0 LINE",
"229 0 LINE",
"229 700 LINE",
"55 700 LINE"
);
}
);
width = 284.00378;
},
{
anchors = (
{
name = ogonek;
position = "{169, 1}";
},
{
name = top;
position = "{129, 693}";
}
);
hints = (
{
place = "{93, 80}";
type = Stem;
},
{
horizontal = 1;
place = "{0, 21}";
target = up;
type = BottomGhost;
},
{
horizontal = 1;
place = "{700, -20}";
target = down;
type = TopGhost;
}
);
layerId = "9F107B1E-3A61-4335-981B-27DD48125C7E";
paths = (
{
closed = 1;
nodes = (
"90 0 LINE",
"170 0 LINE",
"170 700 LINE",
"90 700 LINE"
);
}
);
width = 260.00335;
}
);
leftMetricsKey = H;
rightMetricsKey = H;
unicode = 0049;
},
{
glyphname = Iacute;
lastChange = "2021-08-28 10:10:54 +0000";
layers = (
{
components = (
{
alignment = -1;
name = I;
transform = "{1, 0, 0, 1, 61, 0}";
},
{
name = acute;
transform = "{1, 0, 0, 1.007, 72.25, 146.143}";
}
);
layerId = "0CF0EA28-C756-4A9E-9D7C-CFEF350B4CFE";
width = 391;
},
{
background = {
hints = (
{
horizontal = 1;
place = "{0, 21}";
type = Stem;
},
{
horizontal = 1;
place = "{680, 20}";
type = Stem;
},
{
horizontal = 1;
place = "{765, 21}";
type = Stem;
},
{
horizontal = 1;
place = "{878, 20}";
type = Stem;
},
{
place = "{111, 52}";
type = Stem;
}
);
paths = (
{
closed = 1;
nodes = (
"166.4 0 LINE",
"166.4 700 LINE",
"114.4 700 LINE",
"114.4 0 LINE"
);
},
{
closed = 1;
nodes = (
"163.4 765 LINE",
"270.4 868 LINE",
"209.4 898 LINE",
"121.4 765 LINE"
);
}
);
};
components = (
{
alignment = -1;
name = I;
transform = "{1, 0, 0, 1, 92, 0}";
},
{
alignment = -1;
name = acute;
transform = "{1, 0, 0, 0.9943, 85, 142}";
}
);
layerId = "6E968933-CD79-43C6-9231-80D77C940F4D";
width = 387.00234;
},
{
components = (
{
alignment = -1;
name = I;
transform = "{1, 0, 0, 1, 38.75, 0}";
},
{
alignment = -1;
name = acute;
transform = "{1, 0, 0, 0.9943, 46.75, 146}";
}
);
layerId = "BAF31694-0472-4296-B0EA-1654553C45D2";
width = 353.00076;
},
{
components = (
{
alignment = -1;
name = I;
transform = "{1, 0, 0, 1, 71.5, 0}";
},
{
alignment = -1;
name = acute;
transform = "{1, 0, 0, 1.0022, 76.5, 145}";
}
);
layerId = "9F107B1E-3A61-4335-981B-27DD48125C7E";
width = 388.00463;
}
);
leftMetricsKey = H;
rightMetricsKey = H;
unicode = 00CD;
},
{
glyphname = Icircumflex;
lastChange = "2021-08-28 10:10:54 +0000";
layers = (
{
components = (
{
alignment = -1;
name = I;
transform = "{1, 0, 0, 1, 86, 0}";
},
{
name = circumflex;
transform = "{1, 0, 0, 1.007, 72.25, 146.143}";
}
);
layerId = "0CF0EA28-C756-4A9E-9D7C-CFEF350B4CFE";
width = 456;
},
{
background = {
hints = (
{
horizontal = 1;
place = "{0, 21}";
type = Stem;
},
{
horizontal = 1;
place = "{680, 20}";
type = Stem;
},
{
horizontal = 1;
place = "{765, 21}";
type = Stem;
},
{
horizontal = 1;
place = "{867, 20}";
type = Stem;
},
{
place = "{111, 52}";
type = Stem;
}
);
paths = (
{
closed = 1;
nodes = (
"166.4 0 LINE",
"166.4 700 LINE",
"114.4 700 LINE",
"114.4 0 LINE"
);
},
{
closed = 1;
nodes = (
"140.4 833 LINE",
"214.4 765 LINE",
"261.4 765 LINE",
"161.4 887 LINE",
"121.4 887 LINE",
"21.4 765 LINE",
"66.4 765 LINE"
);
}
);
};
components = (
{
alignment = -1;
name = I;
transform = "{1, 0, 0, 1, 109, 0}";
},
{
alignment = -1;
name = circumflex;
transform = "{1, 0, 0, 0.9943, 85, 142}";
}
);
layerId = "6E968933-CD79-43C6-9231-80D77C940F4D";
width = 447.99872;
},
{
components = (
{
alignment = -1;
name = I;
transform = "{1, 0, 0, 1, 69.75, 0}";
},
{
alignment = -1;
name = circumflex;
transform = "{1, 0, 0, 0.9943, 46.75, 146}";
}
);
layerId = "BAF31694-0472-4296-B0EA-1654553C45D2";
width = 421.99906;
},
{
components = (
{
alignment = -1;
name = I;
transform = "{1, 0, 0, 1, 93.5, 0}";
},
{
alignment = -1;
name = circumflex;
transform = "{1, 0, 0, 1.0022, 76.5, 145}";
}
);
layerId = "9F107B1E-3A61-4335-981B-27DD48125C7E";
width = 452.00327;
}
);
leftMetricsKey = H;
rightMetricsKey = H;
unicode = 00CE;
},
{
glyphname = Idieresis;
lastChange = "2021-08-28 10:10:54 +0000";
layers = (
{
components = (
{
alignment = -1;
name = I;
transform = "{1, 0, 0, 1, 89, 0}";
},
{
name = dieresis;
transform = "{1, 0, 0, 1.007, 72.25, 146.143}";
}
);
layerId = "0CF0EA28-C756-4A9E-9D7C-CFEF350B4CFE";
width = 462;
},
{
background = {
hints = (
{
horizontal = 1;
place = "{0, 21}";
type = Stem;
},
{
horizontal = 1;
place = "{680, 20}";
type = Stem;
},
{
horizontal = 1;
place = "{765, 80}";
type = Stem;
},
{
place = "{22, 69}";
type = Stem;
},
{
place = "{111, 52}";
type = Stem;
},
{
place = "{185, 69}";
type = Stem;
}
);
paths = (
{
closed = 1;
nodes = (
"166.4 0 LINE",
"166.4 700 LINE",
"114.4 700 LINE",
"114.4 0 LINE"
);
},
{
closed = 1;
nodes = (
"257.4 765 LINE",
"257.4 845 LINE",
"188.4 845 LINE",
"188.4 765 LINE"
);
},
{
closed = 1;
nodes = (
"94.4 765 LINE",
"94.4 845 LINE",
"25.4 845 LINE",
"25.4 765 LINE"
);
}
);
};
components = (
{
alignment = -1;
name = I;
transform = "{1, 0, 0, 1, 82, 0}";
},
{
alignment = -1;
name = dieresis;
transform = "{1, 0, 0, 0.9943, 85, 142}";
}
);
layerId = "6E968933-CD79-43C6-9231-80D77C940F4D";
width = 394.99532;
},
{
components = (
{
alignment = -1;
name = I;
transform = "{1, 0, 0, 1, 89.75, 0}";
},
{
alignment = -1;
name = dieresis;
transform = "{1, 0, 0, 0.9943, 46.75, 146}";
}
);
layerId = "BAF31694-0472-4296-B0EA-1654553C45D2";
width = 461.99736;
},
{
components = (
{
alignment = -1;
name = I;
transform = "{1, 0, 0, 1, 85.5, 0}";
},
{
alignment = -1;
name = dieresis;
transform = "{1, 0, 0, 1.0022, 76.5, 145}";
}
);
layerId = "9F107B1E-3A61-4335-981B-27DD48125C7E";
width = 435.99699;
}
);
leftMetricsKey = H;
rightMetricsKey = H;
unicode = 00CF;
},
{
glyphname = Igrave;
lastChange = "2021-08-28 10:10:54 +0000";
layers = (
{
components = (
{
alignment = -1;
name = I;
transform = "{1, 0, 0, 1, 61, 0}";
},
{
name = grave;
transform = "{1, 0, 0, 1.007, 72.25, 146.143}";
}
);
layerId = "0CF0EA28-C756-4A9E-9D7C-CFEF350B4CFE";
width = 391;
},
{
background = {
hints = (
{
horizontal = 1;
place = "{0, 21}";
type = Stem;
},
{
horizontal = 1;
place = "{680, 20}";
type = Stem;
},
{
horizontal = 1;
place = "{765, 21}";
type = Stem;
},
{
horizontal = 1;
place = "{878, 20}";
type = Stem;
},
{
place = "{111, 52}";
type = Stem;
}
);
paths = (
{
closed = 1;
nodes = (
"166.4 0 LINE",
"166.4 700 LINE",
"114.4 700 LINE",
"114.4 0 LINE"
);
},
{
closed = 1;
nodes = (
"117.4 765 LINE",
"159.4 765 LINE",
"71.4 898 LINE",
"10.4 868 LINE"
);
}
);
};
components = (
{
alignment = -1;
name = I;
transform = "{1, 0, 0, 1, 92, 0}";
},
{
alignment = -1;
name = grave;
transform = "{1, 0, 0, 0.9943, 85, 142}";
}
);
layerId = "6E968933-CD79-43C6-9231-80D77C940F4D";
width = 387.00234;
},
{
components = (
{
alignment = -1;
name = I;
transform = "{1, 0, 0, 1, 38.75, 0}";
},
{
alignment = -1;
name = grave;
transform = "{1, 0, 0, 0.9943, 46.75, 146}";
}
);
layerId = "BAF31694-0472-4296-B0EA-1654553C45D2";
width = 353.00076;
},
{
components = (
{
alignment = -1;
name = I;
transform = "{1, 0, 0, 1, 71.5, 0}";
},
{
alignment = -1;
name = grave;
transform = "{1, 0, 0, 1.0022, 76.5, 145}";
}
);
layerId = "9F107B1E-3A61-4335-981B-27DD48125C7E";
width = 388.00463;
}
);
leftMetricsKey = H;
rightMetricsKey = H;
unicode = 00CC;
},
{
glyphname = J;
lastChange = "2021-08-28 10:10:46 +0000";
layers = (
{
hints = (
{
place = "{343, 115}";
type = Stem;
},
{
horizontal = 1;
place = "{-7, 102}";
type = Stem;
},
{
horizontal = 1;
place = "{700, -20}";
target = down;
type = TopGhost;
}
);
layerId = "0CF0EA28-C756-4A9E-9D7C-CFEF350B4CFE";
paths = (
{
closed = 1;
nodes = (
"343.1 194 LINE SMOOTH",
"343.1 136 OFFCURVE",
"309.1 88 OFFCURVE",
"248.1 88 CURVE SMOOTH",
"198.1 88 OFFCURVE",
"167.1 117 OFFCURVE",
"153.1 159 CURVE",
"56.1 127 LINE",
"83.1 42 OFFCURVE",
"151.1 -7 OFFCURVE",
"248.1 -7 CURVE SMOOTH",
"368.1 -7 OFFCURVE",
"457.1 73 OFFCURVE",
"457.1 200 CURVE SMOOTH",
"457.1 700 LINE",
"343.1 700 LINE"
);
}
);
width = 537.85;
},
{
background = {
hints = (
{
horizontal = 1;
place = "{-10, 47}";
type = Stem;
},
{
horizontal = 1;
place = "{680, 20}";
type = Stem;
},
{
place = "{404, 52}";
type = Stem;
}
);
paths = (
{
closed = 1;
nodes = (
"458.64 700 LINE",
"406.64 700 LINE",
"406.64 224 LINE SMOOTH",
"406.64 102 OFFCURVE",
"340.64 37 OFFCURVE",
"254.64 37 CURVE SMOOTH",
"172.64 37 OFFCURVE",
"125.64 75 OFFCURVE",
"82.64 148 CURVE",
"39.64 121 LINE",
"82.64 44 OFFCURVE",
"147.64 -10 OFFCURVE",
"251.64 -10 CURVE SMOOTH",
"367.64 -10 OFFCURVE",
"458.64 71 OFFCURVE",
"458.64 228 CURVE SMOOTH"
);
}
);
};
hints = (
{
place = "{359, 22}";
type = Stem;
},
{
horizontal = 1;
place = "{-7, 21}";
target = up;
type = BottomGhost;
},
{
horizontal = 1;
place = "{700, -20}";
target = down;
type = TopGhost;
}
);
layerId = "6E968933-CD79-43C6-9231-80D77C940F4D";
paths = (
{
closed = 1;
nodes = (
"363 155 LINE SMOOTH",
"363 97 OFFCURVE",
"332 13 OFFCURVE",
"228 13 CURVE SMOOTH",
"134 13 OFFCURVE",
"98 72 OFFCURVE",
"87 143 CURVE",
"66 136 LINE",
"81 47 OFFCURVE",
"135 -7 OFFCURVE",
"228 -7 CURVE SMOOTH",
"329 -7 OFFCURVE",
"385 72 OFFCURVE",
"385 155 CURVE SMOOTH",
"385 700 LINE",
"363 700 LINE"
);
}
);
width = 480.00106;
},
{
hints = (
{
place = "{334, 176}";
type = Stem;
},
{
horizontal = 1;
place = "{-6, 157}";
type = Stem;
},
{
horizontal = 1;
place = "{700, -20}";
target = down;
type = TopGhost;
}
);
layerId = "BAF31694-0472-4296-B0EA-1654553C45D2";
paths = (
{
closed = 1;
nodes = (
"335.3 218 LINE SMOOTH",
"335.3 167 OFFCURVE",
"307.3 139 OFFCURVE",
"267.3 139 CURVE SMOOTH",
"232.3 139 OFFCURVE",
"203.3 160 OFFCURVE",
"195.3 203 CURVE",
"36.3 172 LINE",
"61.3 54 OFFCURVE",
"148.3 -7 OFFCURVE",
"273.3 -7 CURVE SMOOTH",
"413.3 -7 OFFCURVE",
"509.3 75 OFFCURVE",
"509.3 227 CURVE SMOOTH",
"509.3 700 LINE",
"335.3 700 LINE"
);
}
);
width = 561.54943;
},
{
hints = (
{
place = "{130, 72}";
type = Stem;
},
{
horizontal = 1;
place = "{-3, 21}";
target = up;
type = BottomGhost;
},
{
horizontal = 1;
place = "{700, -20}";
target = down;
type = TopGhost;
}
);
layerId = "9F107B1E-3A61-4335-981B-27DD48125C7E";
paths = (
{
closed = 1;
nodes = (
"350.4 183 LINE SMOOTH",
"350.4 125 OFFCURVE",
"317.4 63 OFFCURVE",
"240.4 63 CURVE SMOOTH",
"173.4 63 OFFCURVE",
"141.4 102 OFFCURVE",
"128.4 155 CURVE",
"59.4 130 LINE",
"82.4 44 OFFCURVE",
"144.4 -7 OFFCURVE",
"240.4 -7 CURVE SMOOTH",
"353.4 -7 OFFCURVE",
"430.4 73 OFFCURVE",
"430.4 183 CURVE SMOOTH",
"430.4 700 LINE",
"350.4 700 LINE"
);
}
);
width = 515.8979;
}
);
leftMetricsKey = "=H*0.66";
rightMetricsKey = U;
unicode = 004A;
},
{
glyphname = K;
lastChange = "2021-08-28 10:10:43 +0000";
layers = (
{
anchors = (
{
name = bottom;
position = "{327, 0}";
},
{
name = top;
position = "{327, 701}";
}
);
hints = (
{
place = "{85, 114}";
type = Stem;
},
{
horizontal = 1;
place = "{0, 21}";
target = up;
type = BottomGhost;
},
{
horizontal = 1;
place = "{700, -20}";
target = down;
type = TopGhost;
}
);
layerId = "0CF0EA28-C756-4A9E-9D7C-CFEF350B4CFE";
paths = (
{
closed = 1;
nodes = (
"85 0 LINE",
"199 0 LINE",
"199 700 LINE",
"85 700 LINE"
);
},
{
closed = 1;
nodes = (
"340 355 LINE",
"642 700 LINE",
"499 700 LINE",
"194 355 LINE",
"498 0 LINE",
"647 0 LINE"
);
},
{
closed = 1;
nodes = (
"179 307 LINE",
"323 307 LINE",
"323 402 LINE",
"179 402 LINE"
);
}
);
width = 659.75;
},
{
anchors = (
{
name = bottom;
position = "{271, 0}";
},
{
name = top;
position = "{271, 679}";
}
);
background = {
hints = (
{
horizontal = 1;
place = "{0, 21}";
type = Stem;
},
{
horizontal = 1;
place = "{680, 20}";
type = Stem;
},
{
place = "{104, 52}";
type = Stem;
}
);
paths = (
{
closed = 1;
nodes = (
"690 0 LINE",
"371 391 LINE",
"677 700 LINE",
"606 700 LINE",
"160 240 LINE",
"160 700 LINE",
"108 700 LINE",
"108 0 LINE",
"160 0 LINE",
"160 178 LINE",
"334 354 LINE",
"622 0 LINE"
);
}
);
};
hints = (
{
place = "{105, 22}";
type = Stem;
},
{
horizontal = 1;
place = "{0, 21}";
target = up;
type = BottomGhost;
},
{
horizontal = 1;
place = "{700, -20}";
target = down;
type = TopGhost;
}
);
layerId = "6E968933-CD79-43C6-9231-80D77C940F4D";
paths = (
{
closed = 1;
nodes = (
"100 0 LINE",
"122 0 LINE",
"122 700 LINE",
"100 700 LINE"
);
},
{
closed = 1;
nodes = (
"176 360 LINE",
"532 700 LINE",
"502 700 LINE",
"146 360 LINE",
"502 0 LINE",
"532 0 LINE"
);
},
{
closed = 1;
nodes = (
"111 350 LINE",
"174 350 LINE",
"174 370 LINE",
"111 370 LINE"
);
}
);
width = 546.99948;
},
{
anchors = (
{
name = bottom;
position = "{345, 1}";
},
{
name = top;
position = "{345, 702}";
}
);
hints = (
{
place = "{53, 176}";
type = Stem;
},
{
horizontal = 1;
place = "{0, 21}";
target = up;
type = BottomGhost;
},
{
horizontal = 1;
place = "{700, -20}";
target = down;
type = TopGhost;
}
);
layerId = "BAF31694-0472-4296-B0EA-1654553C45D2";
paths = (
{
closed = 1;
nodes = (
"55 0 LINE",
"229 0 LINE",
"229 700 LINE",
"55 700 LINE"
);
},
{
closed = 1;
nodes = (
"429 357 LINE",
"699 700 LINE",
"493 700 LINE",
"222 357 LINE",
"494 0 LINE",
"710 0 LINE"
);
},
{
closed = 1;
nodes = (
"212 282 LINE",
"384 282 LINE",
"384 428 LINE",
"212 428 LINE"
);
}
);
width = 718.25203;
},
{
anchors = (
{
name = bottom;
position = "{305, 0}";
},
{
name = top;
position = "{305, 693}";
}
);
hints = (
{
place = "{93, 80}";
type = Stem;
},
{
horizontal = 1;
place = "{0, 21}";
target = up;
type = BottomGhost;
},
{
horizontal = 1;
place = "{700, -20}";
target = down;
type = TopGhost;
}
);
layerId = "9F107B1E-3A61-4335-981B-27DD48125C7E";
paths = (
{
closed = 1;
nodes = (
"90 0 LINE",
"170 0 LINE",
"170 700 LINE",
"90 700 LINE"
);
},
{
closed = 1;
nodes = (
"274 356 LINE",
"596 700 LINE",
"493 700 LINE",
"171 356 LINE",
"493 0 LINE",
"599 0 LINE"
);
},
{
closed = 1;
nodes = (
"152 321 LINE",
"262 321 LINE",
"262 391 LINE",
"152 391 LINE"
);
}
);
width = 612.50018;
}
);
leftMetricsKey = H;
rightMetricsKey = "=H*0.15";
unicode = 004B;
},
{
glyphname = Kcommaaccent;
lastChange = "2021-08-28 10:10:43 +0000";
layers = (
{
anchors = (
{
name = _bottom;
position = "{317, 0}";
}
);
components = (
{
alignment = -1;
name = K;
}
);
hints = (
{
place = "{262, 117}";
type = Stem;
},
{
place = "{267, 112}";
type = Stem;
},
{
place = "{315, 64}";
type = Stem;
},
{
horizontal = 1;
place = "{-143, 96}";
type = Stem;
},
{
horizontal = 1;
place = "{-272, 21}";
target = up;
type = BottomGhost;
}
);
layerId = "0CF0EA28-C756-4A9E-9D7C-CFEF350B4CFE";
paths = (
{
closed = 1;
nodes = (
"262 -47 LINE",
"262 -143 LINE",
"315 -143 LINE",
"315 -165 LINE SMOOTH",
"315 -203.003 OFFCURVE",
"300 -222 OFFCURVE",
"267 -222 CURVE",
"267 -272 LINE",
"341 -272 OFFCURVE",
"379 -230 OFFCURVE",
"379 -146 CURVE SMOOTH",
"379 -117 OFFCURVE",
"375 -84 OFFCURVE",
"365 -47 CURVE"
);
}
);
width = 659.75;
},
{
anchors = (
{
name = _bottom;
position = "{243, 0}";
}
);
components = (
{
alignment = -1;
name = K;
}
);
hints = (
{
place = "{240, 24}";
type = Stem;
},
{
horizontal = 1;
place = "{-58, -20}";
target = down;
type = TopGhost;
},
{
horizontal = 1;
place = "{-177, 21}";
target = up;
type = BottomGhost;
}
);
layerId = "6E968933-CD79-43C6-9231-80D77C940F4D";
paths = (
{
closed = 1;
nodes = (
"218 -58 LINE",
"218 -97 LINE",
"249 -97 LINE",
"249 -105 LINE SMOOTH",
"249 -138 OFFCURVE",
"238 -158 OFFCURVE",
"206 -158 CURVE",
"206 -177 LINE",
"243 -177 OFFCURVE",
"272 -162 OFFCURVE",
"272 -91 CURVE SMOOTH",
"272 -81 OFFCURVE",
"271 -68 OFFCURVE",
"270 -58 CURVE"
);
}
);
width = 547.00298;
},
{
anchors = (
{
name = _bottom;
position = "{364, 1}";
}
);
components = (
{
alignment = -1;
name = K;
}
);
hints = (
{
place = "{111, 50}";
type = Stem;
},
{
place = "{297, 152}";
type = Stem;
},
{
place = "{359, 90}";
type = Stem;
},
{
horizontal = 1;
place = "{-164, 125}";
type = Stem;
},
{
horizontal = 1;
place = "{-312, 21}";
target = up;
type = BottomGhost;
}
);
layerId = "BAF31694-0472-4296-B0EA-1654553C45D2";
paths = (
{
closed = 1;
nodes = (
"295 -38 LINE",
"295 -164 LINE",
"359 -164 LINE",
"359 -178 LINE SMOOTH",
"359 -224 OFFCURVE",
"340 -245 OFFCURVE",
"307 -245 CURVE",
"307 -312 LINE",
"403 -312 OFFCURVE",
"449 -248 OFFCURVE",
"449 -158 CURVE SMOOTH",
"449 -121 OFFCURVE",
"443 -81 OFFCURVE",
"428 -38 CURVE"
);
}
);
width = 718.24632;
},
{
anchors = (
{
name = _bottom;
position = "{289, 0}";
}
);
components = (
{
alignment = -1;
name = K;
}
);
hints = (
{
place = "{1, 69}";
type = Stem;
},
{
horizontal = 1;
place = "{-22, -20}";
target = down;
type = TopGhost;
},
{
horizontal = 1;
place = "{-236, 21}";
target = up;
type = BottomGhost;
}
);
layerId = "9F107B1E-3A61-4335-981B-27DD48125C7E";
paths = (
{
closed = 1;
nodes = (
"246 -51 LINE",
"246 -126 LINE",
"290 -126 LINE",
"290 -143 LINE SMOOTH",
"290 -179 OFFCURVE",
"277 -198 OFFCURVE",
"244 -198 CURVE",
"244 -236 LINE",
"304 -236 OFFCURVE",
"339 -205 OFFCURVE",
"339 -125 CURVE SMOOTH",
"339 -104 OFFCURVE",
"336 -78 OFFCURVE",
"329 -51 CURVE"
);
}
);
width = 612.50487;
}
);
leftMetricsKey = H;
rightMetricsKey = K;
unicode = 0136;
},
{
glyphname = L;
lastChange = "2021-08-28 10:10:43 +0000";
layers = (
{
anchors = (
{
name = bottom;
position = "{258, 0}";
},
{
name = commaaccent;
position = "{258, 10}";
},
{
name = top;
position = "{232, 701}";
},
{
name = topright;
position = "{434, 701}";
}
);
hints = (
{
place = "{85, 114}";
type = Stem;
},
{
horizontal = 1;
place = "{0, 92}";
type = Stem;
},
{
horizontal = 1;
place = "{700, -20}";
target = down;
type = TopGhost;
}
);
layerId = "0CF0EA28-C756-4A9E-9D7C-CFEF350B4CFE";
paths = (
{
closed = 1;
nodes = (
"85 700 LINE",
"85 0 LINE",
"514 0 LINE",
"514 94.993 LINE",
"199 95 LINE",
"199 700 LINE"
);
}
);
width = 542.308;
},
{
anchors = (
{
name = bottom;
position = "{235, 0}";
},
{
name = commaaccent;
position = "{235, 10}";
},
{
name = top;
position = "{217, 679}";
},
{
name = topright;
position = "{391, 679}";
}
);
background = {
hints = (
{
horizontal = 1;
place = "{0, 48}";
type = Stem;
},
{
horizontal = 1;
place = "{680, 20}";
type = Stem;
},
{
place = "{104, 52}";
type = Stem;
}
);
paths = (
{
closed = 1;
nodes = (
"571 0 LINE",
"571 48 LINE",
"160 48 LINE",
"160 700 LINE",
"108 700 LINE",
"108 0 LINE"
);
}
);
};
hints = (
{
place = "{103, 22}";
type = Stem;
},
{
horizontal = 1;
place = "{0, 21}";
target = up;
type = BottomGhost;
},
{
horizontal = 1;
place = "{700, -20}";
target = down;
type = TopGhost;
}
);
layerId = "6E968933-CD79-43C6-9231-80D77C940F4D";
paths = (
{
closed = 1;
nodes = (
"100 700 LINE",
"100 0 LINE",
"471 0 LINE",
"471 20 LINE",
"122 20 LINE",
"122 700 LINE"
);
}
);
width = 504.29732;
},
{
anchors = (
{
name = bottom;
position = "{253, 1}";
},
{
name = commaaccent;
position = "{253, 11}";
},
{
name = top;
position = "{222, 702}";
},
{
name = topright;
position = "{443, 702}";
}
);
hints = (
{
place = "{53, 176}";
type = Stem;
},
{
horizontal = 1;
place = "{0, 136}";
type = Stem;
},
{
horizontal = 1;
place = "{700, -20}";
target = down;
type = TopGhost;
}
);
layerId = "BAF31694-0472-4296-B0EA-1654553C45D2";
paths = (
{
closed = 1;
nodes = (
"55 700 LINE",
"55 0 LINE",
"534 0 LINE",
"534 146 LINE",
"229 146 LINE",
"229 700 LINE"
);
}
);
width = 552.3134;
},
{
anchors = (
{
name = bottom;
position = "{248, 0}";
},
{
name = commaaccent;
position = "{248, 10}";
},
{
name = top;
position = "{225, 693}";
},
{
name = topright;
position = "{417, 693}";
}
);
hints = (
{
place = "{39, 66}";
type = Stem;
},
{
horizontal = 1;
place = "{0, 21}";
target = up;
type = BottomGhost;
},
{
horizontal = 1;
place = "{700, -20}";
target = down;
type = TopGhost;
}
);
layerId = "9F107B1E-3A61-4335-981B-27DD48125C7E";
paths = (
{
closed = 1;
nodes = (
"90 700 LINE",
"90 0 LINE",
"497 0 LINE",
"497 70 LINE",
"170 70 LINE",
"170 700 LINE"
);
}
);
width = 526.96508;
}
);
leftMetricsKey = H;
rightMetricsKey = "=H*0.333";
unicode = 004C;
},
{
glyphname = Lcaron;
lastChange = "2021-08-28 10:10:43 +0000";
layers = (
{
anchors = (
{
name = _bottom;
position = "{352, 746}";
}
);
components = (
{
alignment = -1;
name = L;
}
);
hints = (
{
place = "{297, 117}";
type = Stem;
},
{
place = "{302, 112}";
type = Stem;
},
{
place = "{350, 64}";
type = Stem;
},
{
horizontal = 1;
place = "{603, 96}";
type = Stem;
},
{
horizontal = 1;
place = "{474, 21}";
target = up;
type = BottomGhost;
}
);
layerId = "0CF0EA28-C756-4A9E-9D7C-CFEF350B4CFE";
paths = (
{
closed = 1;
nodes = (
"297 700 LINE",
"297 604 LINE",
"350 604 LINE",
"350 583 LINE SMOOTH",
"350 544 OFFCURVE",
"335 525 OFFCURVE",
"302 525 CURVE",
"302 475 LINE",
"376 475 OFFCURVE",
"414 518 OFFCURVE",
"414 601 CURVE SMOOTH",
"414 630 OFFCURVE",
"410 663 OFFCURVE",
"400 700 CURVE"
);
}
);
width = 542.31;
},
{
anchors = (
{
name = _bottom;
position = "{261, 736}";
}
);
components = (
{
alignment = -1;
name = L;
}
);
hints = (
{
place = "{233, 61}";
type = Stem;
},
{
place = "{272, 23}";
type = Stem;
},
{
horizontal = 1;
place = "{555, 22}";
type = Stem;
},
{
horizontal = 1;
place = "{685, -20}";
target = down;
type = TopGhost;
}
);
layerId = "6E968933-CD79-43C6-9231-80D77C940F4D";
paths = (
{
closed = 1;
nodes = (
"233 700 LINE",
"233 646 LINE",
"272 646 LINE",
"272 618 LINE SMOOTH",
"272 589 OFFCURVE",
"262 573 OFFCURVE",
"227 573 CURVE",
"227 552 LINE",
"267 552 OFFCURVE",
"295 568 OFFCURVE",
"295 631 CURVE SMOOTH",
"295 649 OFFCURVE",
"294 671 OFFCURVE",
"290 700 CURVE"
);
}
);
width = 504.29787;
},
{
anchors = (
{
name = _bottom;
position = "{408, 739}";
}
);
components = (
{
alignment = -1;
name = L;
}
);
hints = (
{
place = "{126, 50}";
type = Stem;
},
{
place = "{341, 152}";
type = Stem;
},
{
place = "{402, 90}";
type = Stem;
},
{
horizontal = 1;
place = "{575, 124}";
type = Stem;
},
{
horizontal = 1;
place = "{426, 21}";
target = up;
type = BottomGhost;
}
);
layerId = "BAF31694-0472-4296-B0EA-1654553C45D2";
paths = (
{
closed = 1;
nodes = (
"338 700 LINE",
"338 575 LINE",
"402 575 LINE",
"402 560 LINE SMOOTH",
"402 515 OFFCURVE",
"384 494 OFFCURVE",
"350 494 CURVE",
"350 426 LINE",
"447 426 OFFCURVE",
"492 490 OFFCURVE",
"492 581 CURVE SMOOTH",
"492 617 OFFCURVE",
"486 658 OFFCURVE",
"472 700 CURVE"
);
}
);
width = 552.31009;
},
{
anchors = (
{
name = _bottom;
position = "{318, 742}";
}
);
components = (
{
alignment = -1;
name = L;
}
);
hints = (
{
place = "{276, 93}";
type = Stem;
},
{
place = "{321, 49}";
type = Stem;
},
{
horizontal = 1;
place = "{585, 68}";
type = Stem;
},
{
horizontal = 1;
place = "{257, -20}";
target = down;
type = TopGhost;
}
);
layerId = "9F107B1E-3A61-4335-981B-27DD48125C7E";
paths = (
{
closed = 1;
nodes = (
"273 700 LINE",
"273 620 LINE",
"321 620 LINE",
"321 597 LINE SMOOTH",
"321 561 OFFCURVE",
"308 543 OFFCURVE",
"274 543 CURVE",
"274 504 LINE",
"335 504 OFFCURVE",
"369 537 OFFCURVE",
"369 613 CURVE SMOOTH",
"369 638 OFFCURVE",
"367 666 OFFCURVE",
"359 700 CURVE"
);
}
);
width = 526.97045;
}
);
leftMetricsKey = L;
rightMetricsKey = L;
unicode = 013D;
},
{
glyphname = Lcommaaccent;
lastChange = "2021-08-28 10:10:43 +0000";
layers = (
{
anchors = (
{
name = _commaaccent;
position = "{248, 0}";
}
);
components = (
{
alignment = -1;
name = L;
}
);
hints = (
{
place = "{193, 117}";
type = Stem;
},
{
place = "{197, 113}";
type = Stem;
},
{
place = "{246, 64}";
type = Stem;
},
{
horizontal = 1;
place = "{-143, 96}";
type = Stem;
},
{
horizontal = 1;
place = "{-272, 21}";
target = up;
type = BottomGhost;
}
);
layerId = "0CF0EA28-C756-4A9E-9D7C-CFEF350B4CFE";
paths = (
{
closed = 1;
nodes = (
"193 -47 LINE",
"193 -143 LINE",
"246 -143 LINE",
"246 -165 LINE SMOOTH",
"246 -203.003 OFFCURVE",
"231 -222 OFFCURVE",
"197 -222 CURVE",
"197 -272 LINE",
"272 -272 OFFCURVE",
"310 -230 OFFCURVE",
"310 -146 CURVE SMOOTH",
"310 -117 OFFCURVE",
"306 -84 OFFCURVE",
"296 -47 CURVE"
);
}
);
width = 542.31;
},
{
anchors = (
{
name = _commaaccent;
position = "{231, 0}";
}
);
components = (
{
alignment = -1;
name = L;
}
);
hints = (
{
place = "{230, 24}";
type = Stem;
},
{
horizontal = 1;
place = "{-58, -20}";
target = down;
type = TopGhost;
},
{
horizontal = 1;
place = "{-177, 21}";
target = up;
type = BottomGhost;
}
);
layerId = "6E968933-CD79-43C6-9231-80D77C940F4D";
paths = (
{
closed = 1;
nodes = (
"207 -58 LINE",
"207 -97 LINE",
"238 -97 LINE",
"238 -105 LINE SMOOTH",
"238 -138 OFFCURVE",
"227 -158 OFFCURVE",
"195 -158 CURVE",
"195 -177 LINE",
"232 -177 OFFCURVE",
"261 -162 OFFCURVE",
"261 -91 CURVE SMOOTH",
"261 -81 OFFCURVE",
"260 -68 OFFCURVE",
"259 -58 CURVE"
);
}
);
width = 504.29787;
},
{
anchors = (
{
name = _commaaccent;
position = "{272, 6}";
}
);
components = (
{
alignment = -1;
name = L;
}
);
hints = (
{
place = "{203, 154}";
type = Stem;
},
{
place = "{246, 111}";
type = Stem;
},
{
place = "{-92, 73}";
type = Stem;
},
{
horizontal = 1;
place = "{-164, 125}";
type = Stem;
},
{
horizontal = 1;
place = "{-115, 21}";
target = up;
type = BottomGhost;
}
);
layerId = "BAF31694-0472-4296-B0EA-1654553C45D2";
paths = (
{
closed = 1;
nodes = (
"203 -38 LINE",
"203 -164 LINE",
"267 -164 LINE",
"267 -178 LINE SMOOTH",
"267 -224 OFFCURVE",
"249 -245 OFFCURVE",
"214 -245 CURVE",
"214 -312 LINE",
"312 -312 OFFCURVE",
"357 -248 OFFCURVE",
"357 -158 CURVE SMOOTH",
"357 -121 OFFCURVE",
"351 -81 OFFCURVE",
"336 -38 CURVE"
);
}
);
width = 552.30821;
},
{
anchors = (
{
name = _commaaccent;
position = "{242, 0}";
}
);
components = (
{
alignment = -1;
name = L;
}
);
hints = (
{
place = "{-3, 69}";
type = Stem;
},
{
horizontal = 1;
place = "{-22, -20}";
target = down;
type = TopGhost;
},
{
horizontal = 1;
place = "{-236, 21}";
target = up;
type = BottomGhost;
}
);
layerId = "9F107B1E-3A61-4335-981B-27DD48125C7E";
paths = (
{
closed = 1;
nodes = (
"198 -51 LINE",
"198 -126 LINE",
"243 -126 LINE",
"243 -143 LINE SMOOTH",
"243 -179 OFFCURVE",
"230 -198 OFFCURVE",
"196 -198 CURVE",
"196 -236 LINE",
"257 -236 OFFCURVE",
"292 -205 OFFCURVE",
"292 -125 CURVE SMOOTH",
"292 -104 OFFCURVE",
"289 -78 OFFCURVE",
"282 -51 CURVE"
);
}
);
width = 526.97045;
}
);
leftMetricsKey = L;
rightMetricsKey = L;
unicode = 013B;
},
{
color = 4;
glyphname = Ldot;
lastChange = "2021-08-28 17:11:08 +0000";
layers = (
{
hints = (
{
place = "{85, 114}";
type = Stem;
},
{
place = "{302, 120}";
type = Stem;
},
{
horizontal = 1;
place = "{0, 92}";
type = Stem;
},
{
horizontal = 1;
place = "{317, 120}";
type = Stem;
},
{
horizontal = 1;
place = "{699, -20}";
target = down;
type = TopGhost;
}
);
layerId = "0CF0EA28-C756-4A9E-9D7C-CFEF350B4CFE";
paths = (
{
closed = 1;
nodes = (
"434 0 LINE",
"434 92 LINE",
"199 92 LINE",
"199 700 LINE",
"85 700 LINE",
"85 0 LINE"
);
},
{
closed = 1;
nodes = (
"395 317 OFFCURVE",
"422 343 OFFCURVE",
"422 377 CURVE SMOOTH",
"422 410 OFFCURVE",
"395 437 OFFCURVE",
"362 437 CURVE SMOOTH",
"328 437 OFFCURVE",
"302 410 OFFCURVE",
"302 377 CURVE SMOOTH",
"302 343 OFFCURVE",
"328 317 OFFCURVE",
"362 317 CURVE SMOOTH"
);
}
);
width = 462.31;
},
{
hints = (
{
place = "{109, 22}";
type = Stem;
},
{
place = "{305, 61}";
type = Stem;
},
{
horizontal = 1;
place = "{345, 61}";
type = Stem;
},
{
horizontal = 1;
place = "{0, 21}";
target = up;
type = BottomGhost;
},
{
horizontal = 1;
place = "{700, -20}";
target = down;
type = TopGhost;
}
);
layerId = "6E968933-CD79-43C6-9231-80D77C940F4D";
paths = (
{
closed = 1;
nodes = (
"391 0 LINE",
"391 20 LINE",
"122 20 LINE",
"122 700 LINE",
"100 700 LINE",
"100 0 LINE"
);
},
{
closed = 1;
nodes = (
"354 345 OFFCURVE",
"368 360 OFFCURVE",
"368 376 CURVE SMOOTH",
"368 392 OFFCURVE",
"354 406 OFFCURVE",
"337 406 CURVE SMOOTH",
"321 406 OFFCURVE",
"307 392 OFFCURVE",
"307 376 CURVE SMOOTH",
"307 360 OFFCURVE",
"321 345 OFFCURVE",
"337 345 CURVE SMOOTH"
);
}
);
width = 424.29787;
},
{
hints = (
{
place = "{53, 176}";
type = Stem;
},
{
place = "{306, 150}";
type = Stem;
},
{
horizontal = 1;
place = "{0, 136}";
type = Stem;
},
{
horizontal = 1;
place = "{320, 150}";
type = Stem;
},
{
horizontal = 1;
place = "{700, -20}";
target = down;
type = TopGhost;
}
);
layerId = "BAF31694-0472-4296-B0EA-1654553C45D2";
paths = (
{
closed = 1;
nodes = (
"454 0 LINE",
"454 136 LINE",
"232 136 LINE",
"232 700 LINE",
"55 700 LINE",
"55 0 LINE"
);
},
{
closed = 1;
nodes = (
"425 320 OFFCURVE",
"458 352 OFFCURVE",
"458 395 CURVE SMOOTH",
"458 437 OFFCURVE",
"425 470 OFFCURVE",
"382 470 CURVE SMOOTH",
"340 470 OFFCURVE",
"308 437 OFFCURVE",
"308 395 CURVE SMOOTH",
"308 352 OFFCURVE",
"340 320 OFFCURVE",
"382 320 CURVE SMOOTH"
);
}
);
width = 476.31028;
},
{
hints = (
{
place = "{230, 83}";
type = Stem;
},
{
place = "{114, 80}";
type = Stem;
},
{
horizontal = 1;
place = "{328, 98}";
type = Stem;
},
{
horizontal = 1;
place = "{0, 21}";
target = up;
type = BottomGhost;
},
{
horizontal = 1;
place = "{699, -20}";
target = down;
type = TopGhost;
}
);
layerId = "9F107B1E-3A61-4335-981B-27DD48125C7E";
paths = (
{
closed = 1;
nodes = (
"417 0 LINE",
"417 65 LINE",
"169 65 LINE",
"169 700 LINE",
"90 700 LINE",
"90 0 LINE"
);
},
{
closed = 1;
nodes = (
"379 328 OFFCURVE",
"401 349 OFFCURVE",
"401 377 CURVE SMOOTH",
"401 403 OFFCURVE",
"379 425 OFFCURVE",
"352 425 CURVE SMOOTH",
"324 425 OFFCURVE",
"303 403 OFFCURVE",
"303 377 CURVE SMOOTH",
"303 349 OFFCURVE",
"324 328 OFFCURVE",
"352 328 CURVE SMOOTH"
);
}
);
width = 446.97045;
}
);
leftMetricsKey = L;
rightMetricsKey = L;
unicode = 013F;
},
{
glyphname = Lslash;
lastChange = "2021-08-28 10:10:43 +0000";
layers = (
{
hints = (
{
place = "{85, 192}";
type = Stem;
},
{
place = "{162, 115}";
type = Stem;
},
{
place = "{162, 207}";
type = Stem;
},
{
horizontal = 1;
place = "{0, 87}";
type = Stem;
},
{
horizontal = 1;
place = "{699, -20}";
target = down;
type = TopGhost;
}
);
layerId = "0CF0EA28-C756-4A9E-9D7C-CFEF350B4CFE";
paths = (
{
closed = 1;
nodes = (
"85 269 LINE",
"369 362 LINE",
"369 449 LINE",
"85 355 LINE"
);
},
{
closed = 1;
nodes = (
"162 700 LINE",
"162 0 LINE",
"511 0 LINE",
"511 87 LINE",
"277 87 LINE",
"277 700 LINE"
);
}
);
width = 539.31;
},
{
background = {
hints = (
{
horizontal = 1;
place = "{0, 48}";
type = Stem;
},
{
horizontal = 1;
place = "{680, 20}";
type = Stem;
},
{
place = "{134, 51}";
type = Stem;
}
);
paths = (
{
closed = 1;
nodes = (
"601 0 LINE",
"601 48 LINE",
"189 48 LINE",
"189 332 LINE",
"414 401 LINE",
"414 449 LINE",
"189 380 LINE",
"189 700 LINE",
"138 700 LINE",
"138 364 LINE",
"63 341 LINE",
"63 293 LINE",
"138 316 LINE",
"138 0 LINE"
);
}
);
};
hints = (
{
place = "{196, 21}";
type = Stem;
},
{
horizontal = 1;
place = "{0, 21}";
target = up;
type = BottomGhost;
},
{
horizontal = 1;
place = "{700, -20}";
target = down;
type = TopGhost;
}
);
layerId = "6E968933-CD79-43C6-9231-80D77C940F4D";
paths = (
{
closed = 1;
nodes = (
"100 311 LINE",
"376 440 LINE",
"376 461 LINE",
"100 333 LINE"
);
},
{
closed = 1;
nodes = (
"194 700 LINE",
"194 0 LINE",
"485 0 LINE",
"485 19 LINE",
"216 19 LINE",
"216 700 LINE"
);
}
);
width = 518.30489;
},
{
hints = (
{
place = "{36, 82}";
type = Stem;
},
{
place = "{69, 49}";
type = Stem;
},
{
place = "{118, 216}";
type = Stem;
},
{
horizontal = 1;
place = "{0, 134}";
type = Stem;
},
{
horizontal = 1;
place = "{700, -20}";
target = down;
type = TopGhost;
}
);
layerId = "BAF31694-0472-4296-B0EA-1654553C45D2";
paths = (
{
closed = 1;
nodes = (
"55 251 LINE",
"378 345 LINE",
"378 495 LINE",
"55 400 LINE"
);
},
{
closed = 1;
nodes = (
"120 700 LINE",
"120 0 LINE",
"519 0 LINE",
"519 134 LINE",
"296 134 LINE",
"296 700 LINE"
);
}
);
width = 537.30783;
},
{
hints = (
{
place = "{74, 62}";
type = Stem;
},
{
horizontal = 1;
place = "{0, 21}";
target = up;
type = BottomGhost;
},
{
horizontal = 1;
place = "{699, -20}";
target = down;
type = TopGhost;
}
);
layerId = "9F107B1E-3A61-4335-981B-27DD48125C7E";
paths = (
{
closed = 1;
nodes = (
"90 285 LINE",
"371 391 LINE",
"371 454 LINE",
"90 347 LINE"
);
},
{
closed = 1;
nodes = (
"173 700 LINE",
"173 0 LINE",
"500 0 LINE",
"500 62 LINE",
"253 62 LINE",
"253 700 LINE"
);
}
);
width = 529.96808;
}
);
leftMetricsKey = L;
rightMetricsKey = L;
unicode = 0141;
},
{
glyphname = M;
lastChange = "2021-08-28 10:10:43 +0000";
layers = (
{
hints = (
{
place = "{85, 114}";
type = Stem;
},
{
place = "{703, 114}";
type = Stem;
},
{
horizontal = 1;
place = "{700, -20}";
target = down;
type = TopGhost;
},
{
horizontal = 1;
place = "{0, 21}";
target = up;
type = BottomGhost;
}
);
layerId = "0CF0EA28-C756-4A9E-9D7C-CFEF350B4CFE";
paths = (
{
closed = 1;
nodes = (
"199 479 LINE",
"408 0 LINE",
"494 0 LINE",
"703 479 LINE",
"703 0 LINE",
"817 0 LINE",
"817 700 LINE",
"691 700 LINE",
"451 150 LINE",
"211 700 LINE",
"85 700 LINE",
"85 0 LINE",
"199 0 LINE"
);
}
);
width = 902;
},
{
background = {
hints = (
{
horizontal = 1;
place = "{0, 21}";
type = Stem;
},
{
horizontal = 1;
place = "{680, 20}";
type = Stem;
},
{
place = "{104, 50}";
type = Stem;
},
{
place = "{712, 52}";
type = Stem;
}
);
paths = (
{
closed = 1;
nodes = (
"768 0 LINE",
"768 700 LINE",
"719 700 LINE",
"438 286 LINE",
"157 700 LINE",
"108 700 LINE",
"108 0 LINE",
"158 0 LINE",
"158 608 LINE",
"435 205 LINE",
"439 205 LINE",
"716 608 LINE",
"716 0 LINE"
);
}
);
};
hints = (
{
place = "{105, 22}";
type = Stem;
},
{
place = "{712, 22}";
type = Stem;
},
{
horizontal = 1;
place = "{0, 21}";
target = up;
type = BottomGhost;
},
{
horizontal = 1;
place = "{700, -20}";
target = down;
type = TopGhost;
}
);
layerId = "6E968933-CD79-43C6-9231-80D77C940F4D";
paths = (
{
closed = 1;
nodes = (
"122 647 LINE",
"404 0 LINE",
"425 0 LINE",
"707 647 LINE",
"707 0 LINE",
"729 0 LINE",
"729 700 LINE",
"707 700 LINE",
"415 29 LINE",
"122 700 LINE",
"100 700 LINE",
"100 0 LINE",
"122 0 LINE"
);
}
);
width = 829.00298;
},
{
hints = (
{
place = "{53, 176}";
type = Stem;
},
{
place = "{678, 176}";
type = Stem;
},
{
horizontal = 1;
place = "{700, -20}";
target = down;
type = TopGhost;
},
{
horizontal = 1;
place = "{0, 21}";
target = up;
type = BottomGhost;
}
);
layerId = "BAF31694-0472-4296-B0EA-1654553C45D2";
paths = (
{
closed = 1;
nodes = (
"229 401 LINE",
"382 0 LINE",
"524 0 LINE",
"677 401 LINE",
"677 0 LINE",
"851 0 LINE",
"851 700 LINE",
"645 700 LINE",
"453 225 LINE",
"261 700 LINE",
"55 700 LINE",
"55 0 LINE",
"229 0 LINE"
);
}
);
width = 906.00397;
},
{
hints = (
{
place = "{93, 80}";
type = Stem;
},
{
place = "{706, 80}";
type = Stem;
},
{
horizontal = 1;
place = "{0, 21}";
target = up;
type = BottomGhost;
},
{
horizontal = 1;
place = "{700, -20}";
target = down;
type = TopGhost;
}
);
layerId = "9F107B1E-3A61-4335-981B-27DD48125C7E";
paths = (
{
closed = 1;
nodes = (
"170 542 LINE",
"409 0 LINE",
"466 0 LINE",
"704 542 LINE",
"704 0 LINE",
"784 0 LINE",
"784 700 LINE",
"697 700 LINE",
"438 110 LINE",
"178 700 LINE",
"90 700 LINE",
"90 0 LINE",
"170 0 LINE"
);
}
);
width = 873.99987;
}
);
leftMetricsKey = H;
rightMetricsKey = H;
unicode = 004D;
},
{
glyphname = N;
lastChange = "2021-08-28 10:10:43 +0000";
layers = (
{
anchors = (
{
name = bottom;
position = "{378, 0}";
},
{
name = top;
position = "{378, 701}";
}
);
hints = (
{
place = "{85, 114}";
type = Stem;
},
{
place = "{542, 114}";
type = Stem;
},
{
horizontal = 1;
place = "{700, -20}";
target = down;
type = TopGhost;
},
{
horizontal = 1;
place = "{0, 21}";
target = up;
type = BottomGhost;
}
);
layerId = "0CF0EA28-C756-4A9E-9D7C-CFEF350B4CFE";
paths = (
{
closed = 1;
nodes = (
"533 700 LINE",
"533 182 LINE",
"202 700 LINE",
"85 700 LINE",
"85 0 LINE",
"199 0 LINE",
"199 520 LINE",
"530 0 LINE",
"647 0 LINE",
"647 700 LINE"
);
}
);
width = 732;
},
{
anchors = (
{
name = bottom;
position = "{345, 0}";
},
{
name = top;
position = "{345, 679}";
}
);
background = {
hints = (
{
horizontal = 1;
place = "{0, 21}";
type = Stem;
},
{
horizontal = 1;
place = "{680, 20}";
type = Stem;
},
{
place = "{104, 50}";
type = Stem;
},
{
place = "{636, 50}";
type = Stem;
}
);
paths = (
{
closed = 1;
nodes = (
"690 0 LINE",
"690 700 LINE",
"640 700 LINE",
"640 91 LINE",
"157 700 LINE",
"108 700 LINE",
"108 0 LINE",
"158 0 LINE",
"158 622 LINE",
"651 0 LINE"
);
}
);
};
hints = (
{
place = "{105, 22}";
type = Stem;
},
{
place = "{562, 22}";
type = Stem;
},
{
horizontal = 1;
place = "{699, -20}";
target = down;
type = TopGhost;
},
{
horizontal = 1;
place = "{0, 21}";
target = up;
type = BottomGhost;
}
);
layerId = "6E968933-CD79-43C6-9231-80D77C940F4D";
paths = (
{
closed = 1;
nodes = (
"569 700 LINE",
"569 39 LINE",
"121 700 LINE",
"100 700 LINE",
"100 0 LINE",
"122 0 LINE",
"122 661 LINE",
"570 0 LINE",
"591 0 LINE",
"591 700 LINE"
);
}
);
width = 690.99894;
},
{
anchors = (
{
name = bottom;
position = "{374, 1}";
},
{
name = top;
position = "{374, 702}";
}
);
hints = (
{
place = "{53, 176}";
type = Stem;
},
{
place = "{510, 176}";
type = Stem;
},
{
horizontal = 1;
place = "{700, -20}";
target = down;
type = TopGhost;
},
{
horizontal = 1;
place = "{0, 21}";
target = up;
type = BottomGhost;
}
);
layerId = "BAF31694-0472-4296-B0EA-1654553C45D2";
paths = (
{
closed = 1;
nodes = (
"491 700 LINE",
"491 273 LINE",
"230 700 LINE",
"55 700 LINE",
"55 0 LINE",
"229 0 LINE",
"229 424 LINE",
"490 0 LINE",
"665 0 LINE",
"665 700 LINE"
);
}
);
width = 720.00378;
},
{
anchors = (
{
name = bottom;
position = "{366, 0}";
},
{
name = top;
position = "{366, 693}";
}
);
hints = (
{
place = "{93, 80}";
type = Stem;
},
{
place = "{550, 80}";
type = Stem;
},
{
horizontal = 1;
place = "{700, -20}";
target = down;
type = TopGhost;
},
{
horizontal = 1;
place = "{0, 21}";
target = up;
type = BottomGhost;
}
);
layerId = "9F107B1E-3A61-4335-981B-27DD48125C7E";
paths = (
{
closed = 1;
nodes = (
"545 700 LINE",
"545 129 LINE",
"171 700 LINE",
"90 700 LINE",
"90 0 LINE",
"170 0 LINE",
"170 572 LINE",
"544 0 LINE",
"625 0 LINE",
"625 700 LINE"
);
}
);
width = 715.00335;
}
);
leftMetricsKey = H;
rightMetricsKey = H;
unicode = 004E;
},
{
glyphname = Ncommaaccent;
lastChange = "2021-08-28 10:10:43 +0000";
layers = (
{
anchors = (
{
name = _bottom;
position = "{361, 0}";
}
);
components = (
{
alignment = -1;
name = N;
}
);
hints = (
{
place = "{306, 117}";
type = Stem;
},
{
place = "{311, 112}";
type = Stem;
},
{
place = "{359, 64}";
type = Stem;
},
{
horizontal = 1;
place = "{-143, 96}";
type = Stem;
},
{
horizontal = 1;
place = "{-272, 21}";
target = up;
type = BottomGhost;
}
);
layerId = "0CF0EA28-C756-4A9E-9D7C-CFEF350B4CFE";
paths = (
{
closed = 1;
nodes = (
"306 -47 LINE",
"306 -143 LINE",
"359 -143 LINE",
"359 -165 LINE SMOOTH",
"359 -203.003 OFFCURVE",
"344 -222 OFFCURVE",
"311 -222 CURVE",
"311 -272 LINE",
"385 -272 OFFCURVE",
"423 -230 OFFCURVE",
"423 -146 CURVE SMOOTH",
"423 -117 OFFCURVE",
"419 -84 OFFCURVE",
"409 -47 CURVE"
);
}
);
width = 732;
},
{
anchors = (
{
name = _bottom;
position = "{324, 0}";
}
);
components = (
{
alignment = -1;
name = N;
}
);
hints = (
{
place = "{318, 24}";
type = Stem;
},
{
horizontal = 1;
place = "{-58, -20}";
target = down;
type = TopGhost;
},
{
horizontal = 1;
place = "{-177, 21}";
target = up;
type = BottomGhost;
}
);
layerId = "6E968933-CD79-43C6-9231-80D77C940F4D";
paths = (
{
closed = 1;
nodes = (
"297 -58 LINE",
"297 -97 LINE",
"329 -97 LINE",
"329 -105 LINE SMOOTH",
"329 -138 OFFCURVE",
"318 -158 OFFCURVE",
"286 -158 CURVE",
"286 -177 LINE",
"322 -177 OFFCURVE",
"352 -162 OFFCURVE",
"352 -91 CURVE SMOOTH",
"352 -81 OFFCURVE",
"350 -68 OFFCURVE",
"349 -58 CURVE"
);
}
);
width = 690.99894;
},
{
anchors = (
{
name = _bottom;
position = "{392, 1}";
}
);
components = (
{
alignment = -1;
name = N;
}
);
hints = (
{
place = "{322, 154}";
type = Stem;
},
{
place = "{366, 111}";
type = Stem;
},
{
place = "{-44, 73}";
type = Stem;
},
{
horizontal = 1;
place = "{-164, 125}";
type = Stem;
},
{
horizontal = 1;
place = "{-115, 21}";
target = up;
type = BottomGhost;
}
);
layerId = "BAF31694-0472-4296-B0EA-1654553C45D2";
paths = (
{
closed = 1;
nodes = (
"322 -38 LINE",
"322 -164 LINE",
"386 -164 LINE",
"386 -178 LINE SMOOTH",
"386 -224 OFFCURVE",
"368 -245 OFFCURVE",
"334 -245 CURVE",
"334 -312 LINE",
"431 -312 OFFCURVE",
"477 -248 OFFCURVE",
"477 -158 CURVE SMOOTH",
"477 -121 OFFCURVE",
"470 -81 OFFCURVE",
"455 -38 CURVE"
);
}
);
width = 720.00378;
},
{
anchors = (
{
name = _bottom;
position = "{347, 0}";
}
);
components = (
{
alignment = -1;
name = N;
}
);
hints = (
{
place = "{30, 69}";
type = Stem;
},
{
horizontal = 1;
place = "{-22, -20}";
target = down;
type = TopGhost;
},
{
horizontal = 1;
place = "{-236, 21}";
target = up;
type = BottomGhost;
}
);
layerId = "9F107B1E-3A61-4335-981B-27DD48125C7E";
paths = (
{
closed = 1;
nodes = (
"303 -51 LINE",
"303 -126 LINE",
"348 -126 LINE",
"348 -143 LINE SMOOTH",
"348 -179 OFFCURVE",
"334 -198 OFFCURVE",
"302 -198 CURVE",
"302 -236 LINE",
"361 -236 OFFCURVE",
"396 -205 OFFCURVE",
"396 -125 CURVE SMOOTH",
"396 -104 OFFCURVE",
"393 -78 OFFCURVE",
"387 -51 CURVE"
);
}
);
width = 715.00335;
}
);
leftMetricsKey = H;
rightMetricsKey = H;
unicode = 0145;
},
{
glyphname = Ntilde;
lastChange = "2021-08-28 10:10:50 +0000";
layers = (
{
components = (
{
alignment = -1;
name = N;
},
{
name = tilde;
transform = "{1, 0, 0, 1.007, 202.25, 146.143}";
}
);
layerId = "0CF0EA28-C756-4A9E-9D7C-CFEF350B4CFE";
width = 732;
},
{
background = {
hints = (
{
horizontal = 1;
place = "{0, 21}";
type = Stem;
},
{
horizontal = 1;
place = "{680, 20}";
type = Stem;
},
{
place = "{104, 50}";
type = Stem;
},
{
place = "{636, 50}";
type = Stem;
},
{
horizontal = 1;
place = "{756, 21}";
type = Stem;
},
{
horizontal = 1;
place = "{806, 52}";
type = Stem;
},
{
horizontal = 1;
place = "{765, 52}";
type = Stem;
},
{
horizontal = 1;
place = "{847, 20}";
type = Stem;
}
);
paths = (
{
closed = 1;
nodes = (
"686 0 LINE",
"686 700 LINE",
"636 700 LINE",
"636 91 LINE",
"153 700 LINE",
"104 700 LINE",
"104 0 LINE",
"154 0 LINE",
"154 622 LINE",
"647 0 LINE"
);
},
{
closed = 1;
nodes = (
"509 867 LINE",
"494 829 OFFCURVE",
"483 817 OFFCURVE",
"459 817 CURVE SMOOTH",
"425 817 OFFCURVE",
"369 858 OFFCURVE",
"331 858 CURVE SMOOTH",
"291 858 OFFCURVE",
"266 837 OFFCURVE",
"247 765 CURVE",
"281 756 LINE",
"296 794 OFFCURVE",
"307 806 OFFCURVE",
"331 806 CURVE SMOOTH",
"365 806 OFFCURVE",
"421 765 OFFCURVE",
"459 765 CURVE SMOOTH",
"499 765 OFFCURVE",
"524 786 OFFCURVE",
"543 858 CURVE"
);
}
);
};
components = (
{
alignment = -1;
name = N;
},
{
alignment = -1;
name = tilde;
transform = "{1, 0, 0, 0.9943, 212, 142}";
}
);
layerId = "6E968933-CD79-43C6-9231-80D77C940F4D";
width = 690.99894;
},
{
components = (
{
alignment = -1;
name = N;
},
{
alignment = -1;
name = tilde;
transform = "{1, 0, 0, 0.9943, 158, 146}";
}
);
layerId = "BAF31694-0472-4296-B0EA-1654553C45D2";
width = 720.00378;
},
{
components = (
{
alignment = -1;
name = N;
},
{
alignment = -1;
name = tilde;
transform = "{1, 0, 0, 1.0022, 202, 145}";
}
);
layerId = "9F107B1E-3A61-4335-981B-27DD48125C7E";
width = 715.00335;
}
);
leftMetricsKey = H;
rightMetricsKey = H;
unicode = 00D1;
},
{
glyphname = O;
lastChange = "2021-08-28 10:10:24 +0000";
layers = (
{
anchors = (
{
name = top;
position = "{397.5, 701}";
}
);
hints = (
{
place = "{42, 117}";
type = Stem;
},
{
place = "{635, 117}";
type = Stem;
},
{
horizontal = 1;
place = "{-7, 99}";
type = Stem;
},
{
horizontal = 1;
place = "{608, 100}";
type = Stem;
}
);
layerId = "0CF0EA28-C756-4A9E-9D7C-CFEF350B4CFE";
paths = (
{
closed = 1;
nodes = (
"595.5 -7 OFFCURVE",
"752.5 140 OFFCURVE",
"752.5 350 CURVE SMOOTH",
"752.5 559 OFFCURVE",
"595.5 707 OFFCURVE",
"397.5 707 CURVE SMOOTH",
"201.5 707 OFFCURVE",
"42.5 559 OFFCURVE",
"42.5 350 CURVE SMOOTH",
"42.5 140 OFFCURVE",
"201.5 -7 OFFCURVE",
"397.5 -7 CURVE SMOOTH"
);
},
{
closed = 1;
nodes = (
"259.5 90 OFFCURVE",
"158.5 192 OFFCURVE",
"158.5 350 CURVE SMOOTH",
"158.5 509 OFFCURVE",
"259.5 610 OFFCURVE",
"397.5 610 CURVE SMOOTH",
"535.5 610 OFFCURVE",
"636.5 509 OFFCURVE",
"636.5 350 CURVE SMOOTH",
"636.5 192 OFFCURVE",
"535.5 90 OFFCURVE",
"397.5 90 CURVE SMOOTH"
);
}
);
width = 795;
},
{
anchors = (
{
name = top;
position = "{397, 679}";
}
);
background = {
hints = (
{
horizontal = 1;
place = "{-12, 47}";
type = Stem;
},
{
horizontal = 1;
place = "{665, 47}";
type = Stem;
},
{
place = "{73, 54}";
type = Stem;
},
{
place = "{723, 54}";
type = Stem;
}
);
paths = (
{
closed = 1;
nodes = (
"780 351 OFFCURVE",
"780 351 OFFCURVE",
"779 352 CURVE",
"779 543 OFFCURVE",
"640 712 OFFCURVE",
"428 712 CURVE SMOOTH",
"216 712 OFFCURVE",
"75 541 OFFCURVE",
"75 350 CURVE SMOOTH",
"75 348 LINE SMOOTH",
"75 157 OFFCURVE",
"214 -12 OFFCURVE",
"426 -12 CURVE SMOOTH",
"638 -12 OFFCURVE",
"779 159 OFFCURVE",
"779 350 CURVE"
);
},
{
closed = 1;
nodes = (
"725 348 LINE SMOOTH",
"725 175 OFFCURVE",
"601 35 OFFCURVE",
"428 35 CURVE SMOOTH",
"255 35 OFFCURVE",
"129 177 OFFCURVE",
"129 350 CURVE SMOOTH",
"129 352 LINE SMOOTH",
"129 525 OFFCURVE",
"253 665 OFFCURVE",
"426 665 CURVE SMOOTH",
"599 665 OFFCURVE",
"725 523 OFFCURVE",
"725 350 CURVE SMOOTH"
);
}
);
};
hints = (
{
place = "{51, 23}";
type = Stem;
},
{
place = "{701, 23}";
type = Stem;
},
{
horizontal = 1;
place = "{691, -20}";
target = down;
type = TopGhost;
},
{
horizontal = 1;
place = "{-8, 21}";
target = up;
type = BottomGhost;
}
);
layerId = "6E968933-CD79-43C6-9231-80D77C940F4D";
paths = (
{
closed = 1;
nodes = (
"583 -7 OFFCURVE",
"723 140 OFFCURVE",
"723 350 CURVE",
"723 560 OFFCURVE",
"583 707 OFFCURVE",
"387 707 CURVE",
"191 707 OFFCURVE",
"50 560 OFFCURVE",
"50 350 CURVE",
"50 140 OFFCURVE",
"191 -7 OFFCURVE",
"387 -7 CURVE"
);
},
{
closed = 1;
nodes = (
"212 13 OFFCURVE",
"73 140 OFFCURVE",
"73 350 CURVE",
"73 560 OFFCURVE",
"212 687 OFFCURVE",
"387 687 CURVE",
"561 687 OFFCURVE",
"700 560 OFFCURVE",
"700 350 CURVE",
"700 140 OFFCURVE",
"561 13 OFFCURVE",
"387 13 CURVE"
);
}
);
width = 773.00298;
},
{
anchors = (
{
name = top;
position = "{387.5, 702}";
}
);
hints = (
{
place = "{26, 180}";
type = Stem;
},
{
place = "{568, 179}";
type = Stem;
},
{
horizontal = 1;
place = "{-7, 161}";
type = Stem;
},
{
horizontal = 1;
place = "{550, 160}";
type = Stem;
}
);
layerId = "BAF31694-0472-4296-B0EA-1654553C45D2";
paths = (
{
closed = 1;
nodes = (
"587.5 -7 OFFCURVE",
"747.5 140 OFFCURVE",
"747.5 350 CURVE SMOOTH",
"747.5 560 OFFCURVE",
"588.5 707 OFFCURVE",
"387.5 707 CURVE SMOOTH",
"189.5 707 OFFCURVE",
"27.5 560 OFFCURVE",
"27.5 350 CURVE SMOOTH",
"27.5 140 OFFCURVE",
"189.5 -7 OFFCURVE",
"387.5 -7 CURVE SMOOTH"
);
},
{
closed = 1;
nodes = (
"276.5 142 OFFCURVE",
"204.5 230 OFFCURVE",
"204.5 350 CURVE SMOOTH",
"204.5 471 OFFCURVE",
"276.5 558 OFFCURVE",
"387.5 558 CURVE SMOOTH",
"497.5 558 OFFCURVE",
"570.5 471 OFFCURVE",
"570.5 350 CURVE SMOOTH",
"570.5 230 OFFCURVE",
"497.5 142 OFFCURVE",
"387.5 142 CURVE SMOOTH"
);
}
);
width = 775.00491;
},
{
anchors = (
{
name = top;
position = "{397, 693}";
}
);
hints = (
{
place = "{15, 71}";
type = Stem;
},
{
place = "{643, 71}";
type = Stem;
},
{
horizontal = 1;
place = "{259, -20}";
target = down;
type = TopGhost;
},
{
horizontal = 1;
place = "{-3, 21}";
target = up;
type = BottomGhost;
}
);
layerId = "9F107B1E-3A61-4335-981B-27DD48125C7E";
paths = (
{
closed = 1;
nodes = (
"591 -7 OFFCURVE",
"741 140 OFFCURVE",
"741 350 CURVE",
"741 560 OFFCURVE",
"591 707 OFFCURVE",
"394 707 CURVE",
"198 707 OFFCURVE",
"45 560 OFFCURVE",
"45 350 CURVE",
"45 140 OFFCURVE",
"198 -7 OFFCURVE",
"394 -7 CURVE"
);
},
{
closed = 1;
nodes = (
"242 63 OFFCURVE",
"127 173 OFFCURVE",
"127 350 CURVE",
"127 528 OFFCURVE",
"242 637 OFFCURVE",
"394 637 CURVE",
"545 637 OFFCURVE",
"659 528 OFFCURVE",
"659 350 CURVE",
"659 173 OFFCURVE",
"545 63 OFFCURVE",
"394 63 CURVE"
);
}
);
width = 786.00112;
}
);
leftMetricsKey = "=H*0.5";
rightMetricsKey = "=H*0.5";
unicode = 004F;
},
{
glyphname = Oacute;
lastChange = "2021-08-28 10:10:50 +0000";
layers = (
{
components = (
{
alignment = -1;
name = O;
},
{
name = acute;
transform = "{1, 0, 0, 1.007, 266.75, 146.143}";
}
);
layerId = "0CF0EA28-C756-4A9E-9D7C-CFEF350B4CFE";
width = 795;
},
{
background = {
hints = (
{
horizontal = 1;
place = "{-12, 47}";
type = Stem;
},
{
horizontal = 1;
place = "{665, 47}";
type = Stem;
},
{
horizontal = 1;
place = "{765, 21}";
type = Stem;
},
{
horizontal = 1;
place = "{878, 20}";
type = Stem;
},
{
place = "{73, 54}";
type = Stem;
},
{
place = "{723, 54}";
type = Stem;
}
);
paths = (
{
closed = 1;
nodes = (
"778 351 OFFCURVE",
"778 351 OFFCURVE",
"777 352 CURVE",
"777 543 OFFCURVE",
"638 712 OFFCURVE",
"426 712 CURVE SMOOTH",
"214 712 OFFCURVE",
"73 541 OFFCURVE",
"73 350 CURVE SMOOTH",
"73 348 LINE SMOOTH",
"73 157 OFFCURVE",
"212 -12 OFFCURVE",
"424 -12 CURVE SMOOTH",
"636 -12 OFFCURVE",
"777 159 OFFCURVE",
"777 350 CURVE"
);
},
{
closed = 1;
nodes = (
"723 348 LINE SMOOTH",
"723 175 OFFCURVE",
"599 35 OFFCURVE",
"426 35 CURVE SMOOTH",
"253 35 OFFCURVE",
"127 177 OFFCURVE",
"127 350 CURVE SMOOTH",
"127 352 LINE SMOOTH",
"127 525 OFFCURVE",
"251 665 OFFCURVE",
"424 665 CURVE SMOOTH",
"597 665 OFFCURVE",
"723 523 OFFCURVE",
"723 350 CURVE SMOOTH"
);
},
{
closed = 1;
nodes = (
"451 765 LINE",
"558 868 LINE",
"497 898 LINE",
"409 765 LINE"
);
}
);
};
components = (
{
alignment = -1;
name = O;
},
{
alignment = -1;
name = acute;
transform = "{1, 0, 0, 0.9943, 277, 142}";
}
);
layerId = "6E968933-CD79-43C6-9231-80D77C940F4D";
width = 773.00298;
},
{
components = (
{
alignment = -1;
name = O;
},
{
alignment = -1;
name = acute;
transform = "{1, 0, 0, 0.9943, 254, 146}";
}
);
layerId = "BAF31694-0472-4296-B0EA-1654553C45D2";
width = 774.99755;
},
{
components = (
{
alignment = -1;
name = O;
},
{
alignment = -1;
name = acute;
transform = "{1, 0, 0, 1.0022, 271, 145}";
}
);
layerId = "9F107B1E-3A61-4335-981B-27DD48125C7E";
width = 786.00112;
}
);
leftMetricsKey = O;
rightMetricsKey = O;
unicode = 00D3;
},
{
glyphname = Ocircumflex;
lastChange = "2021-08-28 10:10:50 +0000";
layers = (
{
components = (
{
alignment = -1;
name = O;
},
{
name = circumflex;
transform = "{1, 0, 0, 1.007, 241.75, 146.143}";
}
);
layerId = "0CF0EA28-C756-4A9E-9D7C-CFEF350B4CFE";
width = 795;
},
{
background = {
hints = (
{
horizontal = 1;
place = "{-12, 47}";
type = Stem;
},
{
horizontal = 1;
place = "{665, 47}";
type = Stem;
},
{
horizontal = 1;
place = "{765, 21}";
type = Stem;
},
{
horizontal = 1;
place = "{867, 20}";
type = Stem;
},
{
place = "{73, 54}";
type = Stem;
},
{
place = "{723, 54}";
type = Stem;
}
);
paths = (
{
closed = 1;
nodes = (
"778 351 OFFCURVE",
"778 351 OFFCURVE",
"777 352 CURVE",
"777 543 OFFCURVE",
"638 712 OFFCURVE",
"426 712 CURVE SMOOTH",
"214 712 OFFCURVE",
"73 541 OFFCURVE",
"73 350 CURVE SMOOTH",
"73 348 LINE SMOOTH",
"73 157 OFFCURVE",
"212 -12 OFFCURVE",
"424 -12 CURVE SMOOTH",
"636 -12 OFFCURVE",
"777 159 OFFCURVE",
"777 350 CURVE"
);
},
{
closed = 1;
nodes = (
"723 348 LINE SMOOTH",
"723 175 OFFCURVE",
"599 35 OFFCURVE",
"426 35 CURVE SMOOTH",
"253 35 OFFCURVE",
"127 177 OFFCURVE",
"127 350 CURVE SMOOTH",
"127 352 LINE SMOOTH",
"127 525 OFFCURVE",
"251 665 OFFCURVE",
"424 665 CURVE SMOOTH",
"597 665 OFFCURVE",
"723 523 OFFCURVE",
"723 350 CURVE SMOOTH"
);
},
{
closed = 1;
nodes = (
"424 833 LINE",
"498 765 LINE",
"545 765 LINE",
"445 887 LINE",
"405 887 LINE",
"305 765 LINE",
"350 765 LINE"
);
}
);
};
components = (
{
alignment = -1;
name = O;
},
{
alignment = -1;
name = circumflex;
transform = "{1, 0, 0, 0.9943, 259, 142}";
}
);
layerId = "6E968933-CD79-43C6-9231-80D77C940F4D";
width = 773.00298;
},
{
components = (
{
alignment = -1;
name = O;
},
{
alignment = -1;
name = circumflex;
transform = "{1, 0, 0, 0.9943, 223, 146}";
}
);
layerId = "BAF31694-0472-4296-B0EA-1654553C45D2";
width = 774.99755;
},
{
components = (
{
alignment = -1;
name = O;
},
{
alignment = -1;
name = circumflex;
transform = "{1, 0, 0, 1.0022, 248, 145}";
}
);
layerId = "9F107B1E-3A61-4335-981B-27DD48125C7E";
width = 786.00112;
}
);
leftMetricsKey = O;
rightMetricsKey = O;
unicode = 00D4;
},
{
glyphname = Odieresis;
lastChange = "2021-08-28 10:10:50 +0000";
layers = (
{
components = (
{
alignment = -1;
name = O;
},
{
name = dieresis;
transform = "{1, 0, 0, 1.007, 238.75, 146.143}";
}
);
layerId = "0CF0EA28-C756-4A9E-9D7C-CFEF350B4CFE";
width = 795;
},
{
background = {
hints = (
{
horizontal = 1;
place = "{-12, 47}";
type = Stem;
},
{
horizontal = 1;
place = "{665, 47}";
type = Stem;
},
{
horizontal = 1;
place = "{765, 80}";
type = Stem;
},
{
place = "{73, 54}";
type = Stem;
},
{
place = "{309, 69}";
type = Stem;
},
{
place = "{472, 69}";
type = Stem;
},
{
place = "{723, 54}";
type = Stem;
}
);
paths = (
{
closed = 1;
nodes = (
"778 351 OFFCURVE",
"778 351 OFFCURVE",
"777 352 CURVE",
"777 543 OFFCURVE",
"638 712 OFFCURVE",
"426 712 CURVE SMOOTH",
"214 712 OFFCURVE",
"73 541 OFFCURVE",
"73 350 CURVE SMOOTH",
"73 348 LINE SMOOTH",
"73 157 OFFCURVE",
"212 -12 OFFCURVE",
"424 -12 CURVE SMOOTH",
"636 -12 OFFCURVE",
"777 159 OFFCURVE",
"777 350 CURVE"
);
},
{
closed = 1;
nodes = (
"723 348 LINE SMOOTH",
"723 175 OFFCURVE",
"599 35 OFFCURVE",
"426 35 CURVE SMOOTH",
"253 35 OFFCURVE",
"127 177 OFFCURVE",
"127 350 CURVE SMOOTH",
"127 352 LINE SMOOTH",
"127 525 OFFCURVE",
"251 665 OFFCURVE",
"424 665 CURVE SMOOTH",
"597 665 OFFCURVE",
"723 523 OFFCURVE",
"723 350 CURVE SMOOTH"
);
},
{
closed = 1;
nodes = (
"541 765 LINE",
"541 845 LINE",
"472 845 LINE",
"472 765 LINE"
);
},
{
closed = 1;
nodes = (
"378 765 LINE",
"378 845 LINE",
"309 845 LINE",
"309 765 LINE"
);
}
);
};
components = (
{
alignment = -1;
name = O;
},
{
alignment = -1;
name = dieresis;
transform = "{1, 0, 0, 0.9943, 287, 142}";
}
);
layerId = "6E968933-CD79-43C6-9231-80D77C940F4D";
width = 773.00298;
},
{
components = (
{
alignment = -1;
name = O;
},
{
alignment = -1;
name = dieresis;
transform = "{1, 0, 0, 0.9943, 203, 146}";
}
);
layerId = "BAF31694-0472-4296-B0EA-1654553C45D2";
width = 774.99755;
},
{
components = (
{
alignment = -1;
name = O;
},
{
alignment = -1;
name = dieresis;
transform = "{1, 0, 0, 1.0022, 257, 145}";
}
);
layerId = "9F107B1E-3A61-4335-981B-27DD48125C7E";
width = 786.00112;
}
);
leftMetricsKey = O;
rightMetricsKey = O;
unicode = 00D6;
},
{
glyphname = Ograve;
lastChange = "2021-08-28 10:10:50 +0000";
layers = (
{
components = (
{
alignment = -1;
name = O;
},
{
name = grave;
transform = "{1, 0, 0, 1.007, 266.75, 146.143}";
}
);
layerId = "0CF0EA28-C756-4A9E-9D7C-CFEF350B4CFE";
width = 795;
},
{
background = {
hints = (
{
horizontal = 1;
place = "{-12, 47}";
type = Stem;
},
{
horizontal = 1;
place = "{665, 47}";
type = Stem;
},
{
horizontal = 1;
place = "{765, 21}";
type = Stem;
},
{
horizontal = 1;
place = "{878, 20}";
type = Stem;
},
{
place = "{73, 54}";
type = Stem;
},
{
place = "{723, 54}";
type = Stem;
}
);
paths = (
{
closed = 1;
nodes = (
"778 351 OFFCURVE",
"778 351 OFFCURVE",
"777 352 CURVE",
"777 543 OFFCURVE",
"638 712 OFFCURVE",
"426 712 CURVE SMOOTH",
"214 712 OFFCURVE",
"73 541 OFFCURVE",
"73 350 CURVE SMOOTH",
"73 348 LINE SMOOTH",
"73 157 OFFCURVE",
"212 -12 OFFCURVE",
"424 -12 CURVE SMOOTH",
"636 -12 OFFCURVE",
"777 159 OFFCURVE",
"777 350 CURVE"
);
},
{
closed = 1;
nodes = (
"723 348 LINE SMOOTH",
"723 175 OFFCURVE",
"599 35 OFFCURVE",
"426 35 CURVE SMOOTH",
"253 35 OFFCURVE",
"127 177 OFFCURVE",
"127 350 CURVE SMOOTH",
"127 352 LINE SMOOTH",
"127 525 OFFCURVE",
"251 665 OFFCURVE",
"424 665 CURVE SMOOTH",
"597 665 OFFCURVE",
"723 523 OFFCURVE",
"723 350 CURVE SMOOTH"
);
},
{
closed = 1;
nodes = (
"399 765 LINE",
"441 765 LINE",
"353 898 LINE",
"292 868 LINE"
);
}
);
};
components = (
{
alignment = -1;
name = O;
},
{
alignment = -1;
name = grave;
transform = "{1, 0, 0, 0.9943, 277, 142}";
}
);
layerId = "6E968933-CD79-43C6-9231-80D77C940F4D";
width = 773.00298;
},
{
components = (
{
alignment = -1;
name = O;
},
{
alignment = -1;
name = grave;
transform = "{1, 0, 0, 0.9943, 254, 146}";
}
);
layerId = "BAF31694-0472-4296-B0EA-1654553C45D2";
width = 774.99755;
},
{
components = (
{
alignment = -1;
name = O;
},
{
alignment = -1;
name = grave;
transform = "{1, 0, 0, 1.0022, 271, 145}";
}
);
layerId = "9F107B1E-3A61-4335-981B-27DD48125C7E";
width = 786.00112;
}
);
leftMetricsKey = O;
rightMetricsKey = O;
unicode = 00D2;
},
{
glyphname = Oslash;
lastChange = "2021-08-28 10:10:43 +0000";
layers = (
{
components = (
{
alignment = -1;
name = O;
}
);
layerId = "0CF0EA28-C756-4A9E-9D7C-CFEF350B4CFE";
paths = (
{
closed = 1;
nodes = (
"150 156 LINE",
"241 109 LINE",
"654 561 LINE",
"563 608 LINE"
);
}
);
width = 795;
},
{
background = {
hints = (
{
horizontal = 1;
place = "{-12, 46}";
type = Stem;
},
{
horizontal = 1;
place = "{685, 20}";
type = Stem;
},
{
place = "{73, 53}";
type = Stem;
},
{
place = "{724, 53}";
type = Stem;
},
{
horizontal = 1;
place = "{-5, 21}";
type = Stem;
},
{
horizontal = 1;
place = "{666, 46}";
type = Stem;
}
);
paths = (
{
closed = 1;
nodes = (
"777 444 OFFCURVE",
"744 533 OFFCURVE",
"685 598 CURVE",
"785 705 LINE",
"725 705 LINE",
"654 629 LINE",
"595 681 OFFCURVE",
"517 712 OFFCURVE",
"426 712 CURVE SMOOTH",
"214 712 OFFCURVE",
"73 541 OFFCURVE",
"73 349 CURVE SMOOTH",
"73 256 OFFCURVE",
"106 167 OFFCURVE",
"165 101 CURVE",
"65 -5 LINE",
"125 -5 LINE",
"196 71 LINE",
"255 19 OFFCURVE",
"333 -12 OFFCURVE",
"424 -12 CURVE SMOOTH",
"636 -12 OFFCURVE",
"777 159 OFFCURVE",
"777 351 CURVE SMOOTH"
);
},
{
closed = 1;
nodes = (
"200 139 LINE",
"153 196 OFFCURVE",
"126 270 OFFCURVE",
"126 351 CURVE SMOOTH",
"126 526 OFFCURVE",
"250 666 OFFCURVE",
"424 666 CURVE SMOOTH",
"502 666 OFFCURVE",
"570 637 OFFCURVE",
"621 591 CURVE"
);
},
{
closed = 1;
nodes = (
"724 174 OFFCURVE",
"600 34 OFFCURVE",
"426 34 CURVE SMOOTH",
"348 34 OFFCURVE",
"280 63 OFFCURVE",
"229 109 CURVE",
"650 561 LINE",
"697 504 OFFCURVE",
"724 430 OFFCURVE",
"724 349 CURVE SMOOTH"
);
}
);
};
components = (
{
alignment = -1;
name = O;
}
);
layerId = "6E968933-CD79-43C6-9231-80D77C940F4D";
paths = (
{
closed = 1;
nodes = (
"148 104 LINE",
"164 93 LINE",
"629 596 LINE",
"615 609 LINE"
);
}
);
width = 773.00298;
},
{
components = (
{
alignment = -1;
name = O;
}
);
layerId = "BAF31694-0472-4296-B0EA-1654553C45D2";
paths = (
{
closed = 1;
nodes = (
"151 170 LINE",
"257 116 LINE",
"653 551 LINE",
"547 606 LINE"
);
}
);
width = 774.99755;
},
{
components = (
{
alignment = -1;
name = O;
}
);
layerId = "9F107B1E-3A61-4335-981B-27DD48125C7E";
paths = (
{
closed = 1;
nodes = (
"149 137 LINE",
"212 103 LINE",
"645 574 LINE",
"582 608 LINE"
);
}
);
width = 786.00112;
}
);
leftMetricsKey = O;
rightMetricsKey = O;
unicode = 00D8;
},
{
glyphname = Otilde;
lastChange = "2021-08-28 10:10:50 +0000";
layers = (
{
components = (
{
alignment = -1;
name = O;
},
{
name = tilde;
transform = "{1, 0, 0, 1.007, 221.75, 146.143}";
}
);
layerId = "0CF0EA28-C756-4A9E-9D7C-CFEF350B4CFE";
width = 795;
},
{
background = {
hints = (
{
horizontal = 1;
place = "{-12, 47}";
type = Stem;
},
{
horizontal = 1;
place = "{665, 47}";
type = Stem;
},
{
place = "{73, 54}";
type = Stem;
},
{
place = "{723, 54}";
type = Stem;
},
{
horizontal = 1;
place = "{756, 21}";
type = Stem;
},
{
horizontal = 1;
place = "{806, 52}";
type = Stem;
},
{
horizontal = 1;
place = "{765, 52}";
type = Stem;
},
{
horizontal = 1;
place = "{847, 20}";
type = Stem;
}
);
paths = (
{
closed = 1;
nodes = (
"778 351 OFFCURVE",
"778 351 OFFCURVE",
"777 352 CURVE",
"777 543 OFFCURVE",
"638 712 OFFCURVE",
"426 712 CURVE SMOOTH",
"214 712 OFFCURVE",
"73 541 OFFCURVE",
"73 350 CURVE SMOOTH",
"73 348 LINE SMOOTH",
"73 157 OFFCURVE",
"212 -12 OFFCURVE",
"424 -12 CURVE SMOOTH",
"636 -12 OFFCURVE",
"777 159 OFFCURVE",
"777 350 CURVE"
);
},
{
closed = 1;
nodes = (
"723 348 LINE SMOOTH",
"723 175 OFFCURVE",
"599 35 OFFCURVE",
"426 35 CURVE SMOOTH",
"253 35 OFFCURVE",
"127 177 OFFCURVE",
"127 350 CURVE SMOOTH",
"127 352 LINE SMOOTH",
"127 525 OFFCURVE",
"251 665 OFFCURVE",
"424 665 CURVE SMOOTH",
"597 665 OFFCURVE",
"723 523 OFFCURVE",
"723 350 CURVE SMOOTH"
);
},
{
closed = 1;
nodes = (
"539 867 LINE",
"524 829 OFFCURVE",
"513 817 OFFCURVE",
"489 817 CURVE SMOOTH",
"455 817 OFFCURVE",
"399 858 OFFCURVE",
"361 858 CURVE SMOOTH",
"321 858 OFFCURVE",
"296 837 OFFCURVE",
"277 765 CURVE",
"311 756 LINE",
"326 794 OFFCURVE",
"337 806 OFFCURVE",
"361 806 CURVE SMOOTH",
"395 806 OFFCURVE",
"451 765 OFFCURVE",
"489 765 CURVE SMOOTH",
"529 765 OFFCURVE",
"554 786 OFFCURVE",
"573 858 CURVE"
);
}
);
};
components = (
{
alignment = -1;
name = O;
},
{
alignment = -1;
name = tilde;
transform = "{1, 0, 0, 0.9943, 267, 142}";
}
);
layerId = "6E968933-CD79-43C6-9231-80D77C940F4D";
width = 773.00298;
},
{
components = (
{
alignment = -1;
name = O;
},
{
alignment = -1;
name = tilde;
transform = "{1, 0, 0, 0.9943, 176, 146}";
}
);
layerId = "BAF31694-0472-4296-B0EA-1654553C45D2";
width = 774.99755;
},
{
components = (
{
alignment = -1;
name = O;
},
{
alignment = -1;
name = tilde;
transform = "{1, 0, 0, 1.0022, 239, 145}";
}
);
layerId = "9F107B1E-3A61-4335-981B-27DD48125C7E";
width = 786.00112;
}
);
leftMetricsKey = O;
rightMetricsKey = O;
unicode = 00D5;
},
{
glyphname = OE;
lastChange = "2021-08-28 10:10:43 +0000";
layers = (
{
components = (
{
alignment = -1;
name = O;
},
{
name = E;
transform = "{1, 0, 0, 1, 555.991, 0}";
}
);
hints = (
{
place = "{42, 117}";
type = Stem;
},
{
place = "{635, 114}";
type = Stem;
},
{
horizontal = 1;
place = "{-7, 103}";
type = Stem;
},
{
horizontal = 1;
place = "{0, 89}";
type = Stem;
},
{
horizontal = 1;
place = "{309, 88}";
type = Stem;
},
{
horizontal = 1;
place = "{604, 104}";
type = Stem;
},
{
horizontal = 1;
place = "{611, 89}";
type = Stem;
}
);
layerId = "0CF0EA28-C756-4A9E-9D7C-CFEF350B4CFE";
width = 1179.99;
},
{
background = {
hints = (
{
horizontal = 1;
place = "{0, 48}";
type = Stem;
},
{
horizontal = 1;
place = "{329, 48}";
type = Stem;
},
{
horizontal = 1;
place = "{652, 48}";
type = Stem;
},
{
place = "{73, 54}";
type = Stem;
},
{
place = "{601, 52}";
type = Stem;
}
);
paths = (
{
closed = 1;
nodes = (
"1089 0 LINE",
"1089 48 LINE",
"653 48 LINE",
"653 329 LINE",
"1039 329 LINE",
"1039 377 LINE",
"653 377 LINE",
"653 652 LINE",
"1084 652 LINE",
"1084 700 LINE",
"445 700 LINE SMOOTH",
"225 700 OFFCURVE",
"73 547 OFFCURVE",
"73 349 CURVE SMOOTH",
"73 151 OFFCURVE",
"225 0 OFFCURVE",
"445 0 CURVE SMOOTH"
);
},
{
closed = 1;
nodes = (
"601 48 LINE",
"445 48 LINE SMOOTH",
"250 48 OFFCURVE",
"127 183 OFFCURVE",
"127 351 CURVE SMOOTH",
"127 519 OFFCURVE",
"250 652 OFFCURVE",
"445 652 CURVE SMOOTH",
"601 652 LINE"
);
}
);
};
components = (
{
alignment = -1;
name = O;
},
{
name = E;
transform = "{1, 0, 0, 1, 603.906, 0}";
}
);
hints = (
{
place = "{64, 23}";
type = Stem;
},
{
place = "{701, 22}";
type = Stem;
},
{
horizontal = 1;
place = "{691, -20}";
target = down;
type = TopGhost;
},
{
horizontal = 1;
place = "{-8, 21}";
target = up;
type = BottomGhost;
}
);
layerId = "6E968933-CD79-43C6-9231-80D77C940F4D";
width = 1217.90298;
},
{
components = (
{
alignment = -1;
name = O;
},
{
name = E;
transform = "{1, 0, 0, 1, 517.516, 0}";
}
);
hints = (
{
place = "{26, 180}";
type = Stem;
},
{
place = "{568, 182}";
type = Stem;
},
{
horizontal = 1;
place = "{-10, 162}";
type = Stem;
},
{
horizontal = 1;
place = "{0, 140}";
type = Stem;
},
{
horizontal = 1;
place = "{288, 133}";
type = Stem;
},
{
horizontal = 1;
place = "{548, 162}";
type = Stem;
},
{
horizontal = 1;
place = "{561, 139}";
type = Stem;
}
);
layerId = "BAF31694-0472-4296-B0EA-1654553C45D2";
width = 1132.51255;
},
{
components = (
{
alignment = -1;
name = O;
},
{
name = E;
transform = "{1, 0, 0, 1, 572.764, 0}";
}
);
hints = (
{
place = "{402, 74}";
type = Stem;
},
{
place = "{645, 64}";
type = Stem;
},
{
horizontal = 1;
place = "{259, -20}";
target = down;
type = TopGhost;
},
{
horizontal = 1;
place = "{-3, 21}";
target = up;
type = BottomGhost;
}
);
layerId = "9F107B1E-3A61-4335-981B-27DD48125C7E";
width = 1191.76112;
}
);
leftMetricsKey = O;
rightMetricsKey = E;
unicode = 0152;
},
{
glyphname = P;
lastChange = "2021-08-28 10:10:43 +0000";
layers = (
{
hints = (
{
place = "{85, 114}";
type = Stem;
},
{
place = "{484, 117}";
type = Stem;
},
{
horizontal = 1;
place = "{284, 93}";
type = Stem;
},
{
horizontal = 1;
place = "{607, 93}";
type = Stem;
},
{
horizontal = 1;
place = "{0, 21}";
target = up;
type = BottomGhost;
}
);
layerId = "0CF0EA28-C756-4A9E-9D7C-CFEF350B4CFE";
paths = (
{
closed = 1;
nodes = (
"199 375 LINE",
"199 605 LINE",
"355 605 LINE SMOOTH",
"444 605 OFFCURVE",
"485 563 OFFCURVE",
"485 490 CURVE SMOOTH",
"485 419 OFFCURVE",
"444 375 OFFCURVE",
"355 375 CURVE SMOOTH"
);
},
{
closed = 1;
nodes = (
"601 604 OFFCURVE",
"520 700 OFFCURVE",
"355 700 CURVE SMOOTH",
"85 700 LINE",
"85 0 LINE",
"199 0 LINE",
"199 280 LINE",
"355 280 LINE SMOOTH",
"536 280 OFFCURVE",
"601 391 OFFCURVE",
"601 490 CURVE SMOOTH"
);
}
);
width = 643.5;
},
{
background = {
hints = (
{
horizontal = 1;
place = "{0, 21}";
type = Stem;
},
{
horizontal = 1;
place = "{261, 48}";
type = Stem;
},
{
horizontal = 1;
place = "{652, 48}";
type = Stem;
},
{
place = "{104, 52}";
type = Stem;
},
{
place = "{566, 52}";
type = Stem;
}
);
paths = (
{
closed = 1;
nodes = (
"622 486 LINE SMOOTH",
"622 621 OFFCURVE",
"516 700 OFFCURVE",
"362 700 CURVE SMOOTH",
"108 700 LINE",
"108 0 LINE",
"160 0 LINE",
"160 261 LINE",
"349 261 LINE SMOOTH",
"495 261 OFFCURVE",
"622 337 OFFCURVE",
"622 484 CURVE SMOOTH"
);
},
{
closed = 1;
nodes = (
"570 481 LINE SMOOTH",
"570 377 OFFCURVE",
"482 309 OFFCURVE",
"352 309 CURVE SMOOTH",
"160 309 LINE",
"160 652 LINE",
"358 652 LINE SMOOTH",
"484 652 OFFCURVE",
"570 594 OFFCURVE",
"570 483 CURVE SMOOTH"
);
}
);
};
hints = (
{
place = "{105, 22}";
type = Stem;
},
{
place = "{517, 22}";
type = Stem;
},
{
horizontal = 1;
place = "{314, 23}";
type = Stem;
},
{
horizontal = 1;
place = "{677, 23}";
type = Stem;
},
{
horizontal = 1;
place = "{0, 21}";
target = up;
type = BottomGhost;
}
);
layerId = "6E968933-CD79-43C6-9231-80D77C940F4D";
paths = (
{
closed = 1;
nodes = (
"122 325 LINE",
"122 680 LINE",
"309 680 LINE",
"459 680 OFFCURVE",
"513 611 OFFCURVE",
"513 503 CURVE SMOOTH",
"513 401 OFFCURVE",
"459 325 OFFCURVE",
"309 325 CURVE SMOOTH"
);
},
{
closed = 1;
nodes = (
"535 619 OFFCURVE",
"478 700 OFFCURVE",
"309 700 CURVE SMOOTH",
"100 700 LINE",
"100 0 LINE",
"122 0 LINE",
"122 305 LINE",
"309 305 LINE SMOOTH",
"456 305 OFFCURVE",
"535 375 OFFCURVE",
"535 503 CURVE SMOOTH"
);
}
);
width = 585.00266;
},
{
hints = (
{
place = "{53, 176}";
type = Stem;
},
{
place = "{444, 179}";
type = Stem;
},
{
horizontal = 1;
place = "{248, 140}";
type = Stem;
},
{
horizontal = 1;
place = "{558, 142}";
type = Stem;
},
{
horizontal = 1;
place = "{0, 21}";
target = up;
type = BottomGhost;
}
);
layerId = "BAF31694-0472-4296-B0EA-1654553C45D2";
paths = (
{
closed = 1;
nodes = (
"229 389 LINE",
"229 554 LINE",
"366 554 LINE SMOOTH",
"428 554 OFFCURVE",
"459 522 OFFCURVE",
"459 472 CURVE SMOOTH",
"459 419 OFFCURVE",
"428 389 OFFCURVE",
"366 389 CURVE SMOOTH"
);
},
{
closed = 1;
nodes = (
"636 594 OFFCURVE",
"550 700 OFFCURVE",
"377 700 CURVE SMOOTH",
"55 700 LINE",
"55 0 LINE",
"229 0 LINE",
"229 243 LINE",
"377 243 LINE SMOOTH",
"556 243 OFFCURVE",
"636 359 OFFCURVE",
"636 472 CURVE SMOOTH"
);
}
);
width = 663.50481;
},
{
hints = (
{
place = "{93, 80}";
type = Stem;
},
{
place = "{496, 81}";
type = Stem;
},
{
horizontal = 1;
place = "{295, 67}";
type = Stem;
},
{
horizontal = 1;
place = "{633, 67}";
type = Stem;
},
{
horizontal = 1;
place = "{0, 21}";
target = up;
type = BottomGhost;
}
);
layerId = "9F107B1E-3A61-4335-981B-27DD48125C7E";
paths = (
{
closed = 1;
nodes = (
"170 356 LINE",
"170 630 LINE",
"337 630 LINE",
"449 630 OFFCURVE",
"496 579 OFFCURVE",
"496 493 CURVE SMOOTH",
"496 410 OFFCURVE",
"449 356 OFFCURVE",
"337 356 CURVE SMOOTH"
);
},
{
closed = 1;
nodes = (
"575 607 OFFCURVE",
"500 700 OFFCURVE",
"337 700 CURVE SMOOTH",
"90 700 LINE",
"90 0 LINE",
"170 0 LINE",
"170 286 LINE",
"337 286 LINE SMOOTH",
"505 286 OFFCURVE",
"575 383 OFFCURVE",
"575 493 CURVE SMOOTH"
);
}
);
width = 619.996;
}
);
leftMetricsKey = H;
rightMetricsKey = "=H*0.5";
unicode = 0050;
},
{
glyphname = Thorn;
lastChange = "2021-08-28 17:06:33 +0000";
layers = (
{
hints = (
{
place = "{85, 114}";
type = Stem;
},
{
place = "{454, 117}";
type = Stem;
},
{
horizontal = 1;
place = "{143, 89}";
type = Stem;
},
{
horizontal = 1;
place = "{469, 89}";
type = Stem;
},
{
horizontal = 1;
place = "{0, 21}";
target = up;
type = BottomGhost;
},
{
horizontal = 1;
place = "{700, -20}";
target = down;
type = TopGhost;
}
);
layerId = "0CF0EA28-C756-4A9E-9D7C-CFEF350B4CFE";
paths = (
{
closed = 1;
nodes = (
"199 232 LINE",
"199 469 LINE",
"325 469 LINE SMOOTH",
"414 469 OFFCURVE",
"454 422 OFFCURVE",
"454 350 CURVE SMOOTH",
"454 279 OFFCURVE",
"414.005 232 OFFCURVE",
"325 232 CURVE SMOOTH"
);
},
{
closed = 1;
nodes = (
"571 464 OFFCURVE",
"490 558 OFFCURVE",
"325 558 CURVE SMOOTH",
"198 558 LINE",
"198 700 LINE",
"85 700 LINE",
"85 0 LINE",
"199 0 LINE",
"199 143 LINE",
"325 143 LINE SMOOTH",
"506 143 OFFCURVE",
"571 251 OFFCURVE",
"571 350 CURVE SMOOTH"
);
}
);
width = 613.5;
},
{
background = {
hints = (
{
horizontal = 1;
place = "{0, 21}";
type = Stem;
},
{
horizontal = 1;
place = "{133, 48}";
type = Stem;
},
{
horizontal = 1;
place = "{525, 48}";
type = Stem;
},
{
horizontal = 1;
place = "{680, 20}";
type = Stem;
},
{
place = "{104, 52}";
type = Stem;
},
{
place = "{566, 52}";
type = Stem;
}
);
paths = (
{
closed = 1;
nodes = (
"622 494 OFFCURVE",
"516 573 OFFCURVE",
"362 573 CURVE SMOOTH",
"160 573 LINE",
"160 700 LINE",
"108 700 LINE",
"108 0 LINE",
"160 0 LINE",
"160 133 LINE",
"349 133 LINE SMOOTH",
"495 133 OFFCURVE",
"622 210 OFFCURVE",
"622 358 CURVE SMOOTH"
);
},
{
closed = 1;
nodes = (
"570 250 OFFCURVE",
"482 181 OFFCURVE",
"352 181 CURVE SMOOTH",
"160 181 LINE",
"160 525 LINE",
"358 525 LINE SMOOTH",
"484 525 OFFCURVE",
"570 467 OFFCURVE",
"570 355 CURVE SMOOTH"
);
}
);
};
hints = (
{
place = "{105, 22}";
type = Stem;
},
{
place = "{487, 22}";
type = Stem;
},
{
horizontal = 1;
place = "{158, 22}";
type = Stem;
},
{
horizontal = 1;
place = "{522, 21}";
type = Stem;
},
{
horizontal = 1;
place = "{700, -20}";
target = down;
type = TopGhost;
},
{
horizontal = 1;
place = "{0, 21}";
target = up;
type = BottomGhost;
}
);
layerId = "6E968933-CD79-43C6-9231-80D77C940F4D";
paths = (
{
closed = 1;
nodes = (
"122 180 LINE",
"122 522 LINE",
"279 522 LINE SMOOTH",
"429 522 OFFCURVE",
"482 458 OFFCURVE",
"482 350 CURVE SMOOTH",
"482 247 OFFCURVE",
"429 180 OFFCURVE",
"279 180 CURVE SMOOTH"
);
},
{
closed = 1;
nodes = (
"504 466 OFFCURVE",
"439 543 OFFCURVE",
"279 543 CURVE SMOOTH",
"122 543 LINE",
"122 700 LINE",
"100 700 LINE",
"100 0 LINE",
"122 0 LINE",
"122 158 LINE",
"279 158 LINE SMOOTH",
"426 158 OFFCURVE",
"504 221 OFFCURVE",
"504 350 CURVE SMOOTH"
);
}
);
width = 553.99766;
},
{
hints = (
{
place = "{53, 176}";
type = Stem;
},
{
place = "{414, 179}";
type = Stem;
},
{
horizontal = 1;
place = "{131, 133}";
type = Stem;
},
{
horizontal = 1;
place = "{437, 134}";
type = Stem;
},
{
horizontal = 1;
place = "{0, 21}";
target = up;
type = BottomGhost;
},
{
horizontal = 1;
place = "{700, -20}";
target = down;
type = TopGhost;
}
);
layerId = "BAF31694-0472-4296-B0EA-1654553C45D2";
paths = (
{
closed = 1;
nodes = (
"232 264 LINE",
"232 437 LINE",
"321 437 LINE SMOOTH",
"388 437 OFFCURVE",
"416 403 OFFCURVE",
"416 351 CURVE SMOOTH",
"416 299 OFFCURVE",
"388 264 OFFCURVE",
"321 264 CURVE SMOOTH"
);
},
{
closed = 1;
nodes = (
"595 477 OFFCURVE",
"508 572 OFFCURVE",
"336 572 CURVE SMOOTH",
"230 572 LINE",
"230 700 LINE",
"55 700 LINE",
"55 0 LINE",
"232 0 LINE",
"232 132 LINE",
"336 132 LINE SMOOTH",
"515 132 OFFCURVE",
"595 237 OFFCURVE",
"595 351 CURVE SMOOTH"
);
}
);
width = 622.50245;
},
{
hints = (
{
place = "{93, 80}";
type = Stem;
},
{
place = "{466, 81}";
type = Stem;
},
{
horizontal = 1;
place = "{149, 64}";
type = Stem;
},
{
horizontal = 1;
place = "{489, 64}";
type = Stem;
},
{
horizontal = 1;
place = "{700, -20}";
target = down;
type = TopGhost;
},
{
horizontal = 1;
place = "{0, 21}";
target = up;
type = BottomGhost;
}
);
layerId = "9F107B1E-3A61-4335-981B-27DD48125C7E";
paths = (
{
closed = 1;
nodes = (
"169 213 LINE",
"169 489 LINE",
"307 489 LINE SMOOTH",
"419 489 OFFCURVE",
"463 436 OFFCURVE",
"463 350 CURVE SMOOTH",
"463 267 OFFCURVE",
"419.004 213 OFFCURVE",
"307 213 CURVE SMOOTH"
);
},
{
closed = 1;
nodes = (
"545 465 OFFCURVE",
"470 552 OFFCURVE",
"307 552 CURVE SMOOTH",
"168 552 LINE",
"168 700 LINE",
"90 700 LINE",
"90 0 LINE",
"169 0 LINE",
"169 149 LINE",
"307 149 LINE SMOOTH",
"475 149 OFFCURVE",
"545 240 OFFCURVE",
"545 350 CURVE SMOOTH"
);
}
);
width = 589.99787;
}
);
leftMetricsKey = H;
rightMetricsKey = D;
unicode = 00DE;
},
{
glyphname = Q;
lastChange = "2021-08-28 10:10:43 +0000";
layers = (
{
components = (
{
alignment = -1;
name = O;
}
);
hints = (
{
place = "{383, 114}";
type = Stem;
},
{
horizontal = 1;
place = "{-100, 21}";
target = up;
type = BottomGhost;
},
{
horizontal = 1;
place = "{200, -20}";
target = down;
type = TopGhost;
}
);
layerId = "0CF0EA28-C756-4A9E-9D7C-CFEF350B4CFE";
paths = (
{
closed = 1;
nodes = (
"339 -100 LINE",
"453 -100 LINE",
"453 200 LINE",
"339 200 LINE"
);
}
);
width = 795;
},
{
background = {
hints = (
{
horizontal = 1;
place = "{-12, 47}";
type = Stem;
},
{
horizontal = 1;
place = "{665, 47}";
type = Stem;
},
{
place = "{73, 54}";
type = Stem;
},
{
place = "{723, 54}";
type = Stem;
},
{
horizontal = 1;
place = "{-21, 21}";
type = Stem;
}
);
paths = (
{
closed = 1;
nodes = (
"785 19 LINE",
"685 103 LINE",
"744 169 OFFCURVE",
"777 257 OFFCURVE",
"777 350 CURVE",
"778 351 OFFCURVE",
"778 351 OFFCURVE",
"777 352 CURVE",
"777 543 OFFCURVE",
"638 712 OFFCURVE",
"426 712 CURVE SMOOTH",
"214 712 OFFCURVE",
"73 541 OFFCURVE",
"73 350 CURVE SMOOTH",
"73 348 LINE SMOOTH",
"73 157 OFFCURVE",
"212 -12 OFFCURVE",
"424 -12 CURVE SMOOTH",
"514 -12 OFFCURVE",
"591 18 OFFCURVE",
"650 68 CURVE",
"748 -21 LINE"
);
},
{
closed = 1;
nodes = (
"723 348 LINE SMOOTH",
"723 267 OFFCURVE",
"695 192 OFFCURVE",
"647 136 CURVE",
"513 258 LINE",
"476 217 LINE",
"612 101 LINE",
"563 60 OFFCURVE",
"499 35 OFFCURVE",
"426 35 CURVE SMOOTH",
"253 35 OFFCURVE",
"127 177 OFFCURVE",
"127 350 CURVE SMOOTH",
"127 352 LINE SMOOTH",
"127 525 OFFCURVE",
"251 665 OFFCURVE",
"424 665 CURVE SMOOTH",
"597 665 OFFCURVE",
"723 523 OFFCURVE",
"723 350 CURVE SMOOTH"
);
}
);
};
components = (
{
alignment = -1;
name = O;
}
);
hints = (
{
place = "{386, 22}";
type = Stem;
},
{
horizontal = 1;
place = "{-100, 21}";
target = up;
type = BottomGhost;
},
{
horizontal = 1;
place = "{102, -20}";
target = down;
type = TopGhost;
}
);
layerId = "6E968933-CD79-43C6-9231-80D77C940F4D";
paths = (
{
closed = 1;
nodes = (
"376 -100 LINE",
"398 -100 LINE",
"398 102 LINE",
"376 102 LINE"
);
}
);
width = 773.00298;
},
{
components = (
{
alignment = -1;
name = O;
}
);
hints = (
{
place = "{348, 131}";
type = Stem;
},
{
horizontal = 1;
place = "{-85, 21}";
target = up;
type = BottomGhost;
},
{
horizontal = 1;
place = "{238, -20}";
target = down;
type = TopGhost;
}
);
layerId = "BAF31694-0472-4296-B0EA-1654553C45D2";
paths = (
{
closed = 1;
nodes = (
"318 -85 LINE",
"454 -85 LINE",
"454 238 LINE",
"318 238 LINE"
);
}
);
width = 774.99755;
},
{
components = (
{
alignment = -1;
name = O;
}
);
hints = (
{
place = "{384, 80}";
type = Stem;
},
{
horizontal = 1;
place = "{-100, 21}";
target = up;
type = BottomGhost;
},
{
horizontal = 1;
place = "{163, -20}";
target = down;
type = TopGhost;
}
);
layerId = "9F107B1E-3A61-4335-981B-27DD48125C7E";
paths = (
{
closed = 1;
nodes = (
"353 -100 LINE",
"433 -100 LINE",
"433 163 LINE",
"353 163 LINE"
);
}
);
width = 786.00112;
}
);
leftMetricsKey = O;
rightMetricsKey = O;
unicode = 0051;
},
{
glyphname = R;
lastChange = "2021-08-28 10:10:43 +0000";
layers = (
{
anchors = (
{
name = bottom;
position = "{356, 0}";
},
{
name = top;
position = "{326, 701}";
}
);
hints = (
{
place = "{85, 114}";
type = Stem;
},
{
place = "{484, 117}";
type = Stem;
},
{
horizontal = 1;
place = "{280, 91}";
type = Stem;
},
{
horizontal = 1;
place = "{607, 93}";
type = Stem;
},
{
horizontal = 1;
place = "{0, 21}";
target = up;
type = BottomGhost;
}
);
layerId = "0CF0EA28-C756-4A9E-9D7C-CFEF350B4CFE";
paths = (
{
closed = 1;
nodes = (
"485 420 OFFCURVE",
"444 375 OFFCURVE",
"355 375 CURVE SMOOTH",
"199 375 LINE",
"199 605 LINE",
"355 605 LINE SMOOTH",
"444 605 OFFCURVE",
"485 561 OFFCURVE",
"485 490 CURVE SMOOTH"
);
},
{
closed = 1;
nodes = (
"85 700 LINE",
"85 0 LINE",
"199 0 LINE",
"199 279.999 LINE",
"355 279.999 LINE SMOOTH",
"536 279.999 OFFCURVE",
"601 391 OFFCURVE",
"601 490 CURVE SMOOTH",
"601 604 OFFCURVE",
"520 700 OFFCURVE",
"355 700 CURVE SMOOTH"
);
},
{
closed = 1;
nodes = (
"302 317 LINE",
"483 0 LINE",
"612 0 LINE",
"424 317 LINE"
);
}
);
width = 654.5;
},
{
anchors = (
{
name = bottom;
position = "{341, 0}";
},
{
name = top;
position = "{292, 679}";
}
);
background = {
hints = (
{
horizontal = 1;
place = "{0, 21}";
type = Stem;
},
{
horizontal = 1;
place = "{290, 47}";
type = Stem;
},
{
horizontal = 1;
place = "{652, 48}";
type = Stem;
},
{
place = "{104, 52}";
type = Stem;
},
{
place = "{596, 52}";
type = Stem;
}
);
paths = (
{
closed = 1;
nodes = (
"678 0 LINE",
"447 299 LINE",
"565 315 OFFCURVE",
"652 382 OFFCURVE",
"652 499 CURVE SMOOTH",
"652 501 LINE SMOOTH",
"652 618 OFFCURVE",
"553 700 OFFCURVE",
"402 700 CURVE SMOOTH",
"108 700 LINE",
"108 0 LINE",
"160 0 LINE",
"160 290 LINE",
"389 290 LINE",
"612 0 LINE"
);
},
{
closed = 1;
nodes = (
"600 497 LINE SMOOTH",
"600 396 OFFCURVE",
"513 337 OFFCURVE",
"396 337 CURVE SMOOTH",
"160 337 LINE",
"160 652 LINE",
"399 652 LINE SMOOTH",
"526 652 OFFCURVE",
"600 593 OFFCURVE",
"600 499 CURVE SMOOTH"
);
}
);
};
hints = (
{
place = "{113, 22}";
type = Stem;
},
{
place = "{514, 22}";
type = Stem;
},
{
horizontal = 1;
place = "{678, 22}";
type = Stem;
},
{
horizontal = 1;
place = "{0, 21}";
target = up;
type = BottomGhost;
}
);
layerId = "6E968933-CD79-43C6-9231-80D77C940F4D";
paths = (
{
closed = 1;
nodes = (
"513 401 OFFCURVE",
"452 325 OFFCURVE",
"309 325 CURVE SMOOTH",
"122 325 LINE",
"122 680 LINE",
"307 680 LINE SMOOTH",
"457 680 OFFCURVE",
"513 610 OFFCURVE",
"513 503 CURVE SMOOTH"
);
},
{
closed = 1;
nodes = (
"100 700 LINE",
"100 0 LINE",
"122 0 LINE",
"122 305 LINE",
"309 305 LINE SMOOTH",
"456 305 OFFCURVE",
"535 377 OFFCURVE",
"535 503 CURVE SMOOTH",
"535 619 OFFCURVE",
"476 700 OFFCURVE",
"307 700 CURVE SMOOTH"
);
},
{
closed = 1;
nodes = (
"323 313 LINE",
"516 0 LINE",
"541 0 LINE",
"348 313 LINE"
);
}
);
width = 591.00138;
},
{
anchors = (
{
name = bottom;
position = "{346, 1}";
},
{
name = top;
position = "{333, 702}";
}
);
hints = (
{
place = "{36, 48}";
type = Stem;
},
{
place = "{223, 177}";
type = Stem;
},
{
horizontal = 1;
place = "{369, 168}";
type = Stem;
},
{
horizontal = 1;
place = "{553, 147}";
type = Stem;
},
{
horizontal = 1;
place = "{0, 21}";
target = up;
type = BottomGhost;
}
);
layerId = "BAF31694-0472-4296-B0EA-1654553C45D2";
paths = (
{
closed = 1;
nodes = (
"459 419 OFFCURVE",
"428 389 OFFCURVE",
"366 389 CURVE SMOOTH",
"229 389 LINE",
"229 554 LINE",
"366 554 LINE SMOOTH",
"428 554 OFFCURVE",
"459 522 OFFCURVE",
"459 472 CURVE SMOOTH"
);
},
{
closed = 1;
nodes = (
"55 700 LINE",
"55 0 LINE",
"229 0 LINE",
"229 243 LINE",
"377 243 LINE SMOOTH",
"556 243 OFFCURVE",
"636 359 OFFCURVE",
"636 472 CURVE SMOOTH",
"636 594 OFFCURVE",
"550 700 OFFCURVE",
"377 700 CURVE SMOOTH"
);
},
{
closed = 1;
nodes = (
"283 303 LINE",
"450 0 LINE",
"642 0 LINE",
"465 303 LINE"
);
}
);
width = 669.50396;
},
{
anchors = (
{
name = bottom;
position = "{349, 0}";
},
{
name = top;
position = "{312, 693}";
}
);
hints = (
{
place = "{345, 81}";
type = Stem;
},
{
place = "{368, 65}";
type = Stem;
},
{
horizontal = 1;
place = "{634, 66}";
type = Stem;
},
{
horizontal = 1;
place = "{0, 21}";
target = up;
type = BottomGhost;
}
);
layerId = "9F107B1E-3A61-4335-981B-27DD48125C7E";
paths = (
{
closed = 1;
nodes = (
"494 411 OFFCURVE",
"446 356 OFFCURVE",
"337 356 CURVE SMOOTH",
"170 356 LINE",
"170 630 LINE",
"336 630 LINE SMOOTH",
"448 630 OFFCURVE",
"494 577 OFFCURVE",
"494 493 CURVE SMOOTH"
);
},
{
closed = 1;
nodes = (
"90 700 LINE",
"90 0 LINE",
"170 0 LINE",
"170 286 LINE",
"337 286 LINE SMOOTH",
"505 286 OFFCURVE",
"575 384 OFFCURVE",
"575 493 CURVE SMOOTH",
"575 608 OFFCURVE",
"499 700 OFFCURVE",
"336 700 CURVE SMOOTH"
);
},
{
closed = 1;
nodes = (
"308 316 LINE",
"493 0 LINE",
"584 0 LINE",
"394 316 LINE"
);
}
);
width = 628.99552;
}
);
leftMetricsKey = H;
rightMetricsKey = "=H/2";
unicode = 0052;
},
{
glyphname = Rcommaaccent;
lastChange = "2021-08-28 10:10:43 +0000";
layers = (
{
anchors = (
{
name = _bottom;
position = "{356, 0}";
}
);
components = (
{
alignment = -1;
name = R;
}
);
hints = (
{
place = "{302, 116}";
type = Stem;
},
{
place = "{306, 112}";
type = Stem;
},
{
place = "{354, 64}";
type = Stem;
},
{
horizontal = 1;
place = "{-143, 96}";
type = Stem;
},
{
horizontal = 1;
place = "{-272, 21}";
target = up;
type = BottomGhost;
}
);
layerId = "0CF0EA28-C756-4A9E-9D7C-CFEF350B4CFE";
paths = (
{
closed = 1;
nodes = (
"302 -47 LINE",
"302 -143 LINE",
"354 -143 LINE",
"354 -165 LINE SMOOTH",
"354 -203.003 OFFCURVE",
"339 -222 OFFCURVE",
"306 -222 CURVE",
"306 -272 LINE",
"380 -272 OFFCURVE",
"418 -230 OFFCURVE",
"418 -146 CURVE SMOOTH",
"418 -117 OFFCURVE",
"414 -84 OFFCURVE",
"405 -47 CURVE"
);
}
);
width = 654.5;
},
{
anchors = (
{
name = _bottom;
position = "{313, 0}";
}
);
components = (
{
alignment = -1;
name = R;
}
);
hints = (
{
place = "{308, 24}";
type = Stem;
},
{
horizontal = 1;
place = "{-58, -20}";
target = down;
type = TopGhost;
},
{
horizontal = 1;
place = "{-177, 21}";
target = up;
type = BottomGhost;
}
);
layerId = "6E968933-CD79-43C6-9231-80D77C940F4D";
paths = (
{
closed = 1;
nodes = (
"287 -58 LINE",
"287 -97 LINE",
"319 -97 LINE",
"319 -105 LINE SMOOTH",
"319 -138 OFFCURVE",
"308 -158 OFFCURVE",
"276 -158 CURVE",
"276 -177 LINE",
"312 -177 OFFCURVE",
"342 -162 OFFCURVE",
"342 -91 CURVE SMOOTH",
"342 -81 OFFCURVE",
"341 -68 OFFCURVE",
"339 -58 CURVE"
);
}
);
width = 590.99638;
},
{
anchors = (
{
name = _bottom;
position = "{358, 1}";
}
);
components = (
{
alignment = -1;
name = R;
}
);
hints = (
{
place = "{289, 154}";
type = Stem;
},
{
place = "{332, 111}";
type = Stem;
},
{
place = "{-46, 73}";
type = Stem;
},
{
horizontal = 1;
place = "{-164, 125}";
type = Stem;
},
{
horizontal = 1;
place = "{-115, 21}";
target = up;
type = BottomGhost;
}
);
layerId = "BAF31694-0472-4296-B0EA-1654553C45D2";
paths = (
{
closed = 1;
nodes = (
"289 -38 LINE",
"289 -164 LINE",
"353 -164 LINE",
"353 -178 LINE SMOOTH",
"353 -224 OFFCURVE",
"335 -245 OFFCURVE",
"301 -245 CURVE",
"301 -312 LINE",
"398 -312 OFFCURVE",
"443 -248 OFFCURVE",
"443 -158 CURVE SMOOTH",
"443 -121 OFFCURVE",
"437 -81 OFFCURVE",
"423 -38 CURVE"
);
}
);
width = 669.5016;
},
{
anchors = (
{
name = _bottom;
position = "{340, 0}";
}
);
components = (
{
alignment = -1;
name = R;
}
);
hints = (
{
place = "{26, 69}";
type = Stem;
},
{
horizontal = 1;
place = "{-22, -20}";
target = down;
type = TopGhost;
},
{
horizontal = 1;
place = "{-236, 21}";
target = up;
type = BottomGhost;
}
);
layerId = "9F107B1E-3A61-4335-981B-27DD48125C7E";
paths = (
{
closed = 1;
nodes = (
"296 -51 LINE",
"296 -126 LINE",
"341 -126 LINE",
"341 -143 LINE SMOOTH",
"341 -179 OFFCURVE",
"327 -198 OFFCURVE",
"295 -198 CURVE",
"295 -236 LINE",
"355 -236 OFFCURVE",
"390 -205 OFFCURVE",
"390 -125 CURVE SMOOTH",
"390 -104 OFFCURVE",
"387 -78 OFFCURVE",
"380 -51 CURVE"
);
}
);
width = 629.00364;
}
);
leftMetricsKey = R;
rightMetricsKey = R;
unicode = 0156;
},
{
glyphname = S;
lastChange = "2021-08-28 10:10:43 +0000";
layers = (
{
anchors = (
{
name = bottom;
position = "{303, -7}";
},
{
name = top;
position = "{298, 709}";
}
);
hints = (
{
place = "{59, 116}";
type = Stem;
},
{
place = "{428, 115}";
type = Stem;
},
{
horizontal = 1;
place = "{-7, 97}";
type = Stem;
},
{
horizontal = 1;
place = "{611, 98}";
type = Stem;
}
);
layerId = "0CF0EA28-C756-4A9E-9D7C-CFEF350B4CFE";
paths = (
{
closed = 1;
nodes = (
"51 150 LINE",
"73.313 51.491 OFFCURVE",
"180 -7 OFFCURVE",
"303.862 -7 CURVE SMOOTH",
"458 -7 OFFCURVE",
"543 83.578 OFFCURVE",
"543 199.573 CURVE SMOOTH",
"543 440.927 OFFCURVE",
"175 350.673 OFFCURVE",
"175 512.526 CURVE SMOOTH",
"175 572.903 OFFCURVE",
"226.212 611.484 OFFCURVE",
"296 610 CURVE SMOOTH",
"360.071 608.638 OFFCURVE",
"412.314 574.091 OFFCURVE",
"425 530 CURVE",
"530 567 LINE",
"498.324 656.996 OFFCURVE",
"412 707 OFFCURVE",
"296.346 707 CURVE SMOOTH",
"156 707 OFFCURVE",
"59 633.367 OFFCURVE",
"59 505.207 CURVE SMOOTH",
"59 255.584 OFFCURVE",
"427 359 OFFCURVE",
"427 191.874 CURVE SMOOTH",
"427 133 OFFCURVE",
"381.334 90 OFFCURVE",
"300.424 90 CURVE SMOOTH",
"222 90 OFFCURVE",
"167.783 130.402 OFFCURVE",
"156 187 CURVE"
);
}
);
width = 594;
},
{
anchors = (
{
name = bottom;
position = "{274, 0}";
},
{
name = top;
position = "{274, 680}";
}
);
background = {
hints = (
{
horizontal = 1;
place = "{-10, 47}";
type = Stem;
},
{
horizontal = 1;
place = "{663, 47}";
type = Stem;
},
{
place = "{87, 52}";
type = Stem;
},
{
place = "{521, 52}";
type = Stem;
}
);
paths = (
{
closed = 1;
nodes = (
"575.4 183 LINE SMOOTH",
"575.4 285 OFFCURVE",
"507.4 343 OFFCURVE",
"345.4 376 CURVE SMOOTH",
"179.4 410 OFFCURVE",
"141.4 455 OFFCURVE",
"141.4 529 CURVE SMOOTH",
"141.4 531 LINE SMOOTH",
"141.4 604 OFFCURVE",
"209.4 663 OFFCURVE",
"312.4 663 CURVE SMOOTH",
"389.4 663 OFFCURVE",
"455.4 641 OFFCURVE",
"521.4 584 CURVE",
"554.4 625 LINE",
"483.4 682 OFFCURVE",
"416.4 710 OFFCURVE",
"314.4 710 CURVE SMOOTH",
"184.4 710 OFFCURVE",
"89.4 630 OFFCURVE",
"89.4 526 CURVE SMOOTH",
"89.4 524 LINE SMOOTH",
"89.4 418 OFFCURVE",
"157.4 361 OFFCURVE",
"325.4 327 CURVE SMOOTH",
"484.4 295 OFFCURVE",
"523.4 252 OFFCURVE",
"523.4 178 CURVE SMOOTH",
"523.4 176 LINE SMOOTH",
"523.4 96 OFFCURVE",
"451.4 37 OFFCURVE",
"346.4 37 CURVE SMOOTH",
"243.4 37 OFFCURVE",
"172.4 70 OFFCURVE",
"95.4 141 CURVE",
"61.4 102 LINE",
"145.4 27 OFFCURVE",
"231.4 -10 OFFCURVE",
"343.4 -10 CURVE SMOOTH",
"478.4 -10 OFFCURVE",
"575.4 68 OFFCURVE",
"575.4 181 CURVE SMOOTH"
);
}
);
};
hints = (
{
place = "{73, 22}";
type = Stem;
},
{
place = "{479, 22}";
type = Stem;
},
{
horizontal = 1;
place = "{-7, 21}";
target = up;
type = BottomGhost;
},
{
horizontal = 1;
place = "{692, -20}";
target = down;
type = TopGhost;
}
);
layerId = "6E968933-CD79-43C6-9231-80D77C940F4D";
paths = (
{
closed = 1;
nodes = (
"60 139 LINE",
"82.606 61.675 OFFCURVE",
"157 -7 OFFCURVE",
"283.131 -7 CURVE SMOOTH",
"425 -7 OFFCURVE",
"493 79.881 OFFCURVE",
"493 179.36 CURVE SMOOTH",
"493 420.634 OFFCURVE",
"93 294.721 OFFCURVE",
"93 525.108 CURVE SMOOTH",
"93 631.312 OFFCURVE",
"178 687 OFFCURVE",
"279.399 687 CURVE SMOOTH",
"390 687 OFFCURVE",
"445.764 620.742 OFFCURVE",
"462 572 CURVE",
"481 579 LINE",
"459.514 641.155 OFFCURVE",
"398 707 OFFCURVE",
"279.014 707 CURVE SMOOTH",
"151 707 OFFCURVE",
"71 630.786 OFFCURVE",
"71 521.794 CURVE SMOOTH",
"71 278.073 OFFCURVE",
"471 402.511 OFFCURVE",
"471 176.331 CURVE SMOOTH",
"471 79.706 OFFCURVE",
"398 13 OFFCURVE",
"279.821 13 CURVE SMOOTH",
"152 13 OFFCURVE",
"94.882 91.039 OFFCURVE",
"78 147 CURVE"
);
}
);
width = 553.00026;
},
{
anchors = (
{
name = bottom;
position = "{305, -2}";
},
{
name = top;
position = "{303, 705}";
}
);
hints = (
{
place = "{38, 179}";
type = Stem;
},
{
place = "{389, 181}";
type = Stem;
},
{
horizontal = 1;
place = "{-6, 138}";
type = Stem;
},
{
horizontal = 1;
place = "{571, 138}";
type = Stem;
}
);
layerId = "BAF31694-0472-4296-B0EA-1654553C45D2";
paths = (
{
closed = 1;
nodes = (
"33 171 LINE",
"62.62 52.63 OFFCURVE",
"177 -7 OFFCURVE",
"311.891 -7 CURVE SMOOTH",
"477.607 -7 OFFCURVE",
"571 83 OFFCURVE",
"571 202.025 CURVE SMOOTH",
"571 434.08 OFFCURVE",
"216 384.759 OFFCURVE",
"216 502.217 CURVE SMOOTH",
"216 542.208 OFFCURVE",
"257.151 568.735 OFFCURVE",
"305.008 568.218 CURVE SMOOTH",
"343.214 567.806 OFFCURVE",
"388.69 550.124 OFFCURVE",
"395 513 CURVE",
"555 541 LINE",
"529.486 647.141 OFFCURVE",
"434 707 OFFCURVE",
"297.434 707 CURVE SMOOTH",
"149 707 OFFCURVE",
"41.152 636.285 OFFCURVE",
"38.543 502.004 CURVE SMOOTH",
"33.753 255.477 OFFCURVE",
"394 326.578 OFFCURVE",
"394 203.227 CURVE SMOOTH",
"394 161 OFFCURVE",
"351.778 132 OFFCURVE",
"298.482 132 CURVE SMOOTH",
"257 132 OFFCURVE",
"201.067 149.568 OFFCURVE",
"191 203 CURVE"
);
}
);
width = 604.00491;
},
{
anchors = (
{
name = bottom;
position = "{291, -4}";
},
{
name = top;
position = "{288, 698}";
}
);
hints = (
{
place = "{23, 69}";
type = Stem;
},
{
place = "{562, 70}";
type = Stem;
},
{
horizontal = 1;
place = "{-3, 21}";
target = up;
type = BottomGhost;
},
{
horizontal = 1;
place = "{260, -20}";
target = down;
type = TopGhost;
}
);
layerId = "9F107B1E-3A61-4335-981B-27DD48125C7E";
paths = (
{
closed = 1;
nodes = (
"54 146 LINE",
"79.075 54.877 OFFCURVE",
"171 -7 OFFCURVE",
"295.222 -7 CURVE SMOOTH",
"445 -7 OFFCURVE",
"523 82.955 OFFCURVE",
"523 192.499 CURVE SMOOTH",
"523 434.283 OFFCURVE",
"143 329.395 OFFCURVE",
"143 518.955 CURVE SMOOTH",
"143 596 OFFCURVE",
"205.774 639.649 OFFCURVE",
"285.996 638.801 CURVE SMOOTH",
"367.929 637.936 OFFCURVE",
"425.316 591.102 OFFCURVE",
"440 545 CURVE",
"511 572 LINE",
"482.591 651.619 OFFCURVE",
"406 707 OFFCURVE",
"289.091 707 CURVE SMOOTH",
"153 707 OFFCURVE",
"63 631.954 OFFCURVE",
"63 511.578 CURVE SMOOTH",
"63 264.22 OFFCURVE",
"443 377.091 OFFCURVE",
"443 186.455 CURVE SMOOTH",
"443 114.631 OFFCURVE",
"389.056 61 OFFCURVE",
"293.573 61 CURVE SMOOTH",
"195 61 OFFCURVE",
"138.369 118.158 OFFCURVE",
"125 174 CURVE"
);
}
);
width = 577.00285;
}
);
leftMetricsKey = "=H*0.6";
rightMetricsKey = "=H*0.6";
unicode = 0053;
},
{
glyphname = Scaron;
lastChange = "2021-08-28 10:10:50 +0000";
layers = (
{
components = (
{
alignment = -1;
name = S;
},
{
name = caron;
transform = "{1, 0, 0, 1.007, 142.25, 154.143}";
}
);
layerId = "0CF0EA28-C756-4A9E-9D7C-CFEF350B4CFE";
width = 594;
},
{
background = {
hints = (
{
horizontal = 1;
place = "{-10, 47}";
type = Stem;
},
{
horizontal = 1;
place = "{663, 47}";
type = Stem;
},
{
horizontal = 1;
place = "{765, 21}";
type = Stem;
},
{
horizontal = 1;
place = "{867, 20}";
type = Stem;
},
{
place = "{87, 52}";
type = Stem;
},
{
place = "{521, 52}";
type = Stem;
}
);
paths = (
{
closed = 1;
nodes = (
"573 183 LINE SMOOTH",
"573 285 OFFCURVE",
"505 343 OFFCURVE",
"343 376 CURVE SMOOTH",
"177 410 OFFCURVE",
"139 455 OFFCURVE",
"139 529 CURVE SMOOTH",
"139 531 LINE SMOOTH",
"139 604 OFFCURVE",
"207 663 OFFCURVE",
"310 663 CURVE SMOOTH",
"387 663 OFFCURVE",
"453 641 OFFCURVE",
"519 584 CURVE",
"552 625 LINE",
"481 682 OFFCURVE",
"414 710 OFFCURVE",
"312 710 CURVE SMOOTH",
"182 710 OFFCURVE",
"87 630 OFFCURVE",
"87 526 CURVE SMOOTH",
"87 524 LINE SMOOTH",
"87 418 OFFCURVE",
"155 361 OFFCURVE",
"323 327 CURVE SMOOTH",
"482 295 OFFCURVE",
"521 252 OFFCURVE",
"521 178 CURVE SMOOTH",
"521 176 LINE SMOOTH",
"521 96 OFFCURVE",
"449 37 OFFCURVE",
"344 37 CURVE SMOOTH",
"241 37 OFFCURVE",
"170 70 OFFCURVE",
"93 141 CURVE",
"59 102 LINE",
"143 27 OFFCURVE",
"229 -10 OFFCURVE",
"341 -10 CURVE SMOOTH",
"476 -10 OFFCURVE",
"573 68 OFFCURVE",
"573 181 CURVE SMOOTH"
);
},
{
closed = 1;
nodes = (
"328 819 LINE",
"254 887 LINE",
"207 887 LINE",
"307 765 LINE",
"347 765 LINE",
"447 887 LINE",
"402 887 LINE"
);
}
);
};
components = (
{
alignment = -1;
name = S;
},
{
alignment = -1;
name = caron;
transform = "{1, 0, 0, 0.9943, 136, 142}";
}
);
layerId = "6E968933-CD79-43C6-9231-80D77C940F4D";
width = 553.00426;
},
{
components = (
{
alignment = -1;
name = S;
},
{
alignment = -1;
name = caron;
transform = "{1, 0, 0, 0.9943, 138, 150}";
}
);
layerId = "BAF31694-0472-4296-B0EA-1654553C45D2";
width = 604.00208;
},
{
components = (
{
alignment = -1;
name = S;
},
{
alignment = -1;
name = caron;
transform = "{1, 0, 0, 1.0022, 140, 150}";
}
);
layerId = "9F107B1E-3A61-4335-981B-27DD48125C7E";
width = 576.99785;
}
);
leftMetricsKey = S;
rightMetricsKey = S;
unicode = 0160;
},
{
glyphname = Scommaaccent;
lastChange = "2021-08-28 10:10:43 +0000";
layers = (
{
anchors = (
{
name = _bottom;
position = "{295, 0}";
}
);
components = (
{
alignment = -1;
name = S;
}
);
hints = (
{
place = "{240, 117}";
type = Stem;
},
{
place = "{244, 113}";
type = Stem;
},
{
place = "{293, 64}";
type = Stem;
},
{
horizontal = 1;
place = "{-143, 96}";
type = Stem;
},
{
horizontal = 1;
place = "{-272, 21}";
target = up;
type = BottomGhost;
}
);
layerId = "0CF0EA28-C756-4A9E-9D7C-CFEF350B4CFE";
paths = (
{
closed = 1;
nodes = (
"240 -47 LINE",
"240 -143 LINE",
"293 -143 LINE",
"293 -165 LINE SMOOTH",
"293 -203 OFFCURVE",
"278 -222 OFFCURVE",
"244 -222 CURVE",
"244 -272 LINE",
"319 -272 OFFCURVE",
"357 -230 OFFCURVE",
"357 -146 CURVE SMOOTH",
"357 -117 OFFCURVE",
"353 -84 OFFCURVE",
"343 -47 CURVE"
);
}
);
width = 594;
},
{
anchors = (
{
name = _bottom;
position = "{291, -7}";
}
);
components = (
{
alignment = -1;
name = S;
}
);
hints = (
{
place = "{289, 24}";
type = Stem;
},
{
horizontal = 1;
place = "{-58, -20}";
target = down;
type = TopGhost;
},
{
horizontal = 1;
place = "{-177, 21}";
target = up;
type = BottomGhost;
}
);
layerId = "6E968933-CD79-43C6-9231-80D77C940F4D";
paths = (
{
closed = 1;
nodes = (
"266 -58 LINE",
"266 -97 LINE",
"298 -97 LINE",
"298 -105 LINE SMOOTH",
"298 -138 OFFCURVE",
"287 -158 OFFCURVE",
"255 -158 CURVE",
"255 -177 LINE",
"292 -177 OFFCURVE",
"321 -162 OFFCURVE",
"321 -91 CURVE SMOOTH",
"321 -81 OFFCURVE",
"320 -68 OFFCURVE",
"319 -58 CURVE"
);
}
);
width = 553.00426;
},
{
anchors = (
{
name = _bottom;
position = "{323, 1}";
}
);
components = (
{
alignment = -1;
name = S;
}
);
hints = (
{
place = "{253, 154}";
type = Stem;
},
{
place = "{296, 111}";
type = Stem;
},
{
place = "{-72, 73}";
type = Stem;
},
{
horizontal = 1;
place = "{-164, 125}";
type = Stem;
},
{
horizontal = 1;
place = "{-115, 21}";
target = up;
type = BottomGhost;
}
);
layerId = "BAF31694-0472-4296-B0EA-1654553C45D2";
paths = (
{
closed = 1;
nodes = (
"253 -38 LINE",
"253 -164 LINE",
"317 -164 LINE",
"317 -178 LINE SMOOTH",
"317 -224 OFFCURVE",
"299 -245 OFFCURVE",
"265 -245 CURVE",
"265 -312 LINE",
"362 -312 OFFCURVE",
"408 -248 OFFCURVE",
"408 -158 CURVE SMOOTH",
"408 -121 OFFCURVE",
"401 -81 OFFCURVE",
"387 -38 CURVE"
);
}
);
width = 604.00208;
},
{
anchors = (
{
name = _bottom;
position = "{294, -3}";
}
);
components = (
{
alignment = -1;
name = S;
}
);
hints = (
{
place = "{19, 69}";
type = Stem;
},
{
horizontal = 1;
place = "{-22, -20}";
target = down;
type = TopGhost;
},
{
horizontal = 1;
place = "{-236, 21}";
target = up;
type = BottomGhost;
}
);
layerId = "9F107B1E-3A61-4335-981B-27DD48125C7E";
paths = (
{
closed = 1;
nodes = (
"250 -51 LINE",
"250 -126 LINE",
"295 -126 LINE",
"295 -143 LINE SMOOTH",
"295 -179 OFFCURVE",
"281 -198 OFFCURVE",
"248 -198 CURVE",
"248 -236 LINE",
"309 -236 OFFCURVE",
"344 -205 OFFCURVE",
"344 -125 CURVE SMOOTH",
"344 -104 OFFCURVE",
"341 -78 OFFCURVE",
"334 -51 CURVE"
);
}
);
width = 576.99785;
}
);
leftMetricsKey = S;
rightMetricsKey = S;
unicode = 0218;
},
{
glyphname = Schwa;
lastChange = "2021-08-28 10:10:43 +0000";
layers = (
{
anchors = (
{
name = top;
position = "{381, 709}";
}
);
hints = (
{
place = "{51, 119}";
type = Stem;
},
{
place = "{592, 124}";
type = Stem;
},
{
horizontal = 1;
place = "{-7, 103}";
type = Stem;
},
{
horizontal = 1;
place = "{286, 107}";
type = Stem;
},
{
horizontal = 1;
place = "{604, 104}";
type = Stem;
}
);
layerId = "0CF0EA28-C756-4A9E-9D7C-CFEF350B4CFE";
paths = (
{
closed = 1;
nodes = (
"592 307 LINE SMOOTH",
"592 176 OFFCURVE",
"501 96 OFFCURVE",
"382 96 CURVE SMOOTH",
"259 96 OFFCURVE",
"174 172 OFFCURVE",
"170 286 CURVE",
"613 286 LINE",
"613 393 LINE",
"55 393 LINE",
"52 369 OFFCURVE",
"51 346 OFFCURVE",
"51 325 CURVE SMOOTH",
"51 113 OFFCURVE",
"187 -7 OFFCURVE",
"382 -7 CURVE SMOOTH",
"583 -7 OFFCURVE",
"716 140 OFFCURVE",
"716 351 CURVE SMOOTH",
"716 562 OFFCURVE",
"579 708 OFFCURVE",
"381 708 CURVE SMOOTH",
"223 708 OFFCURVE",
"107 623 OFFCURVE",
"59 488 CURVE",
"191 488 LINE",
"222 561 OFFCURVE",
"289 604 OFFCURVE",
"381 604 CURVE SMOOTH",
"506 604 OFFCURVE",
"592 511 OFFCURVE",
"592 372 CURVE SMOOTH"
);
}
);
width = 767;
},
{
anchors = (
{
name = top;
position = "{379, 706}";
}
);
hints = (
{
place = "{68, 24}";
type = Stem;
},
{
place = "{686, 24}";
type = Stem;
},
{
horizontal = 1;
place = "{-8, 21}";
target = up;
type = BottomGhost;
},
{
horizontal = 1;
place = "{691, -20}";
target = down;
type = TopGhost;
}
);
layerId = "6E968933-CD79-43C6-9231-80D77C940F4D";
paths = (
{
closed = 1;
nodes = (
"683 345 LINE SMOOTH",
"683 130 OFFCURVE",
"547 12 OFFCURVE",
"373 12 CURVE SMOOTH",
"188 12 OFFCURVE",
"72 142 OFFCURVE",
"84 338 CURVE",
"690 338 LINE",
"690 357 LINE",
"62 357 LINE",
"61 342 OFFCURVE",
"60 327 OFFCURVE",
"60 312 CURVE SMOOTH",
"60 110 OFFCURVE",
"190 -8 OFFCURVE",
"373 -8 CURVE SMOOTH",
"572 -8 OFFCURVE",
"707 134 OFFCURVE",
"707 349 CURVE SMOOTH",
"707 559 OFFCURVE",
"573 706 OFFCURVE",
"379 706 CURVE SMOOTH",
"220 706 OFFCURVE",
"93 610 OFFCURVE",
"60 463 CURVE",
"83 463 LINE",
"116 604 OFFCURVE",
"239 686 OFFCURVE",
"379 686 CURVE SMOOTH",
"550 686 OFFCURVE",
"683 560 OFFCURVE",
"683 351 CURVE SMOOTH"
);
}
);
width = 767.00234;
},
{
anchors = (
{
name = top;
position = "{377, 714}";
}
);
hints = (
{
place = "{22, 51}";
type = Stem;
},
{
place = "{542, 183}";
type = Stem;
},
{
horizontal = 1;
place = "{-8, 162}";
type = Stem;
},
{
horizontal = 1;
place = "{284, 116}";
type = Stem;
},
{
horizontal = 1;
place = "{556, 158}";
type = Stem;
}
);
layerId = "BAF31694-0472-4296-B0EA-1654553C45D2";
paths = (
{
closed = 1;
nodes = (
"543 309 LINE SMOOTH",
"543 210 OFFCURVE",
"465 153 OFFCURVE",
"375 153 CURVE SMOOTH",
"285 153 OFFCURVE",
"218 206 OFFCURVE",
"214 284 CURVE",
"566 284 LINE",
"566 400 LINE",
"37 400 LINE",
"35 380 OFFCURVE",
"33 358 OFFCURVE",
"33 339 CURVE SMOOTH",
"33 122 OFFCURVE",
"171 -8 OFFCURVE",
"378 -8 CURVE SMOOTH",
"587 -8 OFFCURVE",
"726 136 OFFCURVE",
"726 353 CURVE SMOOTH",
"726 572 OFFCURVE",
"585 714 OFFCURVE",
"377 714 CURVE SMOOTH",
"206 714 OFFCURVE",
"82 612 OFFCURVE",
"44 468 CURVE",
"234 468 LINE",
"255 523 OFFCURVE",
"311 556 OFFCURVE",
"380 556 CURVE SMOOTH",
"470 556 OFFCURVE",
"543 494 OFFCURVE",
"543 385 CURVE SMOOTH"
);
}
);
width = 759.00151;
},
{
anchors = (
{
name = top;
position = "{379, 708}";
}
);
hints = (
{
place = "{204, 76}";
type = Stem;
},
{
place = "{635, 74}";
type = Stem;
},
{
horizontal = 1;
place = "{-3, 21}";
target = up;
type = BottomGhost;
},
{
horizontal = 1;
place = "{259, -20}";
target = down;
type = TopGhost;
}
);
layerId = "9F107B1E-3A61-4335-981B-27DD48125C7E";
paths = (
{
closed = 1;
nodes = (
"625 321 LINE SMOOTH",
"625 159 OFFCURVE",
"517 65 OFFCURVE",
"378 65 CURVE SMOOTH",
"232 65 OFFCURVE",
"135 161 OFFCURVE",
"137 306 CURVE",
"641 306 LINE",
"641 380 LINE",
"57 380 LINE",
"55 359 OFFCURVE",
"54 339 OFFCURVE",
"54 320 CURVE SMOOTH",
"54 112 OFFCURVE",
"187 -7 OFFCURVE",
"378 -7 CURVE SMOOTH",
"578 -7 OFFCURVE",
"712 138 OFFCURVE",
"712 350 CURVE SMOOTH",
"712 561 OFFCURVE",
"576 707 OFFCURVE",
"379 707 CURVE SMOOTH",
"221 707 OFFCURVE",
"101 618 OFFCURVE",
"59 479 CURVE",
"150 479 LINE",
"181 577 OFFCURVE",
"269 635 OFFCURVE",
"379 635 CURVE SMOOTH",
"522 635 OFFCURVE",
"625 529 OFFCURVE",
"625 364 CURVE SMOOTH"
);
}
);
width = 766.00213;
}
);
leftMetricsKey = S;
rightMetricsKey = S;
unicode = 018F;
},
{
glyphname = T;
lastChange = "2021-08-28 10:10:43 +0000";
layers = (
{
anchors = (
{
name = bottom;
position = "{313.5, 0}";
},
{
name = top;
position = "{315.5, 701}";
}
);
hints = (
{
place = "{258, 114}";
type = Stem;
},
{
horizontal = 1;
place = "{607, 93}";
type = Stem;
},
{
horizontal = 1;
place = "{0, 21}";
target = up;
type = BottomGhost;
}
);
layerId = "0CF0EA28-C756-4A9E-9D7C-CFEF350B4CFE";
paths = (
{
closed = 1;
nodes = (
"42.5 605 LINE",
"258.5 605 LINE",
"258.5 0 LINE",
"372.5 0 LINE",
"372.5 605 LINE",
"587.5 605 LINE",
"587.5 700 LINE",
"42.5 700 LINE"
);
}
);
width = 630;
},
{
anchors = (
{
name = bottom;
position = "{294, 0}";
},
{
name = top;
position = "{297, 679}";
}
);
background = {
hints = (
{
horizontal = 1;
place = "{0, 21}";
type = Stem;
},
{
horizontal = 1;
place = "{652, 48}";
type = Stem;
},
{
place = "{298, 52}";
type = Stem;
}
);
paths = (
{
closed = 1;
nodes = (
"596 652 LINE",
"596 700 LINE",
"56 700 LINE",
"56 652 LINE",
"300 652 LINE",
"300 0 LINE",
"352 0 LINE",
"352 652 LINE"
);
}
);
};
hints = (
{
place = "{294, 22}";
type = Stem;
},
{
horizontal = 1;
place = "{685, -20}";
target = down;
type = TopGhost;
},
{
horizontal = 1;
place = "{0, 21}";
target = up;
type = BottomGhost;
}
);
layerId = "6E968933-CD79-43C6-9231-80D77C940F4D";
paths = (
{
closed = 1;
nodes = (
"50 680 LINE",
"285 680 LINE",
"285 0 LINE",
"307 0 LINE",
"307 680 LINE",
"541 680 LINE",
"541 700 LINE",
"50 700 LINE"
);
}
);
width = 590.99968;
},
{
anchors = (
{
name = bottom;
position = "{328.5, 1}";
},
{
name = top;
position = "{328.5, 702}";
}
);
hints = (
{
place = "{242, 176}";
type = Stem;
},
{
horizontal = 1;
place = "{559, 141}";
type = Stem;
},
{
horizontal = 1;
place = "{0, 21}";
target = up;
type = BottomGhost;
}
);
layerId = "BAF31694-0472-4296-B0EA-1654553C45D2";
paths = (
{
closed = 1;
nodes = (
"27.5 554 LINE",
"244.5 554 LINE",
"244.5 0 LINE",
"418.5 0 LINE",
"418.5 554 LINE",
"636.5 554 LINE",
"636.5 700 LINE",
"27.5 700 LINE"
);
}
);
width = 664.00378;
},
{
anchors = (
{
name = bottom;
position = "{306, 0}";
},
{
name = top;
position = "{309, 693}";
}
);
hints = (
{
place = "{490, 66}";
type = Stem;
},
{
horizontal = 1;
place = "{257, -20}";
target = down;
type = TopGhost;
},
{
horizontal = 1;
place = "{0, 21}";
target = up;
type = BottomGhost;
}
);
layerId = "9F107B1E-3A61-4335-981B-27DD48125C7E";
paths = (
{
closed = 1;
nodes = (
"45 630 LINE",
"268 630 LINE",
"268 0 LINE",
"348 0 LINE",
"348 630 LINE",
"570 630 LINE",
"570 700 LINE",
"45 700 LINE"
);
}
);
width = 614.99863;
}
);
leftMetricsKey = "=H/2";
rightMetricsKey = "=H/2";
unicode = 0054;
},
{
glyphname = Tcommaaccent;
lastChange = "2021-08-28 10:10:43 +0000";
layers = (
{
components = (
{
alignment = -1;
name = T;
}
);
hints = (
{
place = "{264, 116}";
type = Stem;
},
{
place = "{268, 112}";
type = Stem;
},
{
place = "{317, 63}";
type = Stem;
},
{
horizontal = 1;
place = "{-143, 96}";
type = Stem;
},
{
horizontal = 1;
place = "{-272, 21}";
target = up;
type = BottomGhost;
}
);
layerId = "0CF0EA28-C756-4A9E-9D7C-CFEF350B4CFE";
paths = (
{
closed = 1;
nodes = (
"264 -47 LINE",
"264 -143 LINE",
"317 -143 LINE",
"317 -165 LINE SMOOTH",
"317 -203.003 OFFCURVE",
"301 -222 OFFCURVE",
"268 -222 CURVE",
"268 -272 LINE",
"342 -272 OFFCURVE",
"380 -230 OFFCURVE",
"380 -146 CURVE SMOOTH",
"380 -117 OFFCURVE",
"376 -84 OFFCURVE",
"367 -47 CURVE"
);
}
);
width = 630;
},
{
components = (
{
alignment = -1;
name = T;
}
);
hints = (
{
place = "{298, 24}";
type = Stem;
},
{
horizontal = 1;
place = "{-58, -20}";
target = down;
type = TopGhost;
},
{
horizontal = 1;
place = "{-177, 21}";
target = up;
type = BottomGhost;
}
);
layerId = "6E968933-CD79-43C6-9231-80D77C940F4D";
paths = (
{
closed = 1;
nodes = (
"276 -58 LINE",
"276 -97 LINE",
"308 -97 LINE",
"308 -105 LINE SMOOTH",
"308 -138 OFFCURVE",
"297 -158 OFFCURVE",
"265 -158 CURVE",
"265 -177 LINE",
"301 -177 OFFCURVE",
"331 -162 OFFCURVE",
"331 -91 CURVE SMOOTH",
"331 -81 OFFCURVE",
"330 -68 OFFCURVE",
"328 -58 CURVE"
);
}
);
width = 591.00468;
},
{
components = (
{
alignment = -1;
name = T;
}
);
hints = (
{
place = "{112, 49}";
type = Stem;
},
{
place = "{263, 152}";
type = Stem;
},
{
place = "{325, 89}";
type = Stem;
},
{
horizontal = 1;
place = "{-164, 125}";
type = Stem;
},
{
horizontal = 1;
place = "{-312, 21}";
target = up;
type = BottomGhost;
}
);
layerId = "BAF31694-0472-4296-B0EA-1654553C45D2";
paths = (
{
closed = 1;
nodes = (
"261 -38 LINE",
"261 -164 LINE",
"325 -164 LINE",
"325 -178 LINE SMOOTH",
"325 -224 OFFCURVE",
"306 -245 OFFCURVE",
"273 -245 CURVE",
"273 -312 LINE",
"369 -312 OFFCURVE",
"415 -248 OFFCURVE",
"415 -158 CURVE SMOOTH",
"415 -121 OFFCURVE",
"409 -81 OFFCURVE",
"394 -38 CURVE"
);
}
);
width = 663.99642;
},
{
components = (
{
alignment = -1;
name = T;
}
);
hints = (
{
place = "{22, 69}";
type = Stem;
},
{
horizontal = 1;
place = "{-22, -20}";
target = down;
type = TopGhost;
},
{
horizontal = 1;
place = "{-236, 21}";
target = up;
type = BottomGhost;
}
);
layerId = "9F107B1E-3A61-4335-981B-27DD48125C7E";
paths = (
{
closed = 1;
nodes = (
"269 -51 LINE",
"269 -126 LINE",
"314 -126 LINE",
"314 -143 LINE SMOOTH",
"314 -179 OFFCURVE",
"300 -198 OFFCURVE",
"267 -198 CURVE",
"267 -236 LINE",
"327 -236 OFFCURVE",
"362 -205 OFFCURVE",
"362 -125 CURVE SMOOTH",
"362 -104 OFFCURVE",
"359 -78 OFFCURVE",
"352 -51 CURVE"
);
}
);
width = 615.00051;
}
);
leftMetricsKey = T;
rightMetricsKey = T;
unicode = 021A;
},
{
glyphname = U;
lastChange = "2021-08-28 10:10:43 +0000";
layers = (
{
anchors = (
{
name = ogonek;
position = "{434.75, 0}";
},
{
name = top;
position = "{361.75, 701}";
}
);
hints = (
{
place = "{80, 114}";
type = Stem;
},
{
place = "{529, 114}";
type = Stem;
},
{
horizontal = 1;
place = "{-7, 100}";
type = Stem;
},
{
horizontal = 1;
place = "{700, -20}";
target = down;
type = TopGhost;
}
);
layerId = "0CF0EA28-C756-4A9E-9D7C-CFEF350B4CFE";
paths = (
{
closed = 1;
nodes = (
"80.75 255 LINE SMOOTH",
"80.75 77 OFFCURVE",
"214.75 -7 OFFCURVE",
"360.75 -7 CURVE SMOOTH",
"505.75 -7 OFFCURVE",
"643.75 77 OFFCURVE",
"643.75 255 CURVE SMOOTH",
"643.75 700 LINE",
"529.75 700 LINE",
"529.75 253 LINE SMOOTH",
"529.75 144 OFFCURVE",
"458.75 90 OFFCURVE",
"361.75 90 CURVE SMOOTH",
"265.75 90 OFFCURVE",
"194.75 144 OFFCURVE",
"194.75 253 CURVE SMOOTH",
"194.75 700 LINE",
"80.75 700 LINE"
);
}
);
width = 724.5;
},
{
anchors = (
{
name = ogonek;
position = "{404, 0}";
},
{
name = top;
position = "{340, 679}";
}
);
background = {
hints = (
{
horizontal = 1;
place = "{-11, 47}";
type = Stem;
},
{
horizontal = 1;
place = "{680, 20}";
type = Stem;
},
{
place = "{93, 52}";
type = Stem;
},
{
place = "{615, 52}";
type = Stem;
}
);
paths = (
{
closed = 1;
nodes = (
"670.8 700 LINE",
"618.8 700 LINE",
"618.8 291 LINE SMOOTH",
"618.8 122 OFFCURVE",
"527.8 36 OFFCURVE",
"385.8 36 CURVE SMOOTH",
"237.8 36 OFFCURVE",
"148.8 131 OFFCURVE",
"148.8 296 CURVE SMOOTH",
"148.8 700 LINE",
"96.8 700 LINE",
"96.8 291 LINE SMOOTH",
"96.8 95 OFFCURVE",
"215.8 -11 OFFCURVE",
"383.8 -11 CURVE SMOOTH",
"553.8 -11 OFFCURVE",
"670.8 96 OFFCURVE",
"670.8 297 CURVE SMOOTH"
);
}
);
};
hints = (
{
place = "{108, 22}";
type = Stem;
},
{
place = "{556, 22}";
type = Stem;
},
{
horizontal = 1;
place = "{-7, 21}";
target = up;
type = BottomGhost;
},
{
horizontal = 1;
place = "{700, -20}";
target = down;
type = TopGhost;
}
);
layerId = "6E968933-CD79-43C6-9231-80D77C940F4D";
paths = (
{
closed = 1;
nodes = (
"95 265 LINE SMOOTH",
"95 73 OFFCURVE",
"205 -7 OFFCURVE",
"343 -7 CURVE SMOOTH",
"481 -7 OFFCURVE",
"586 73 OFFCURVE",
"586 265 CURVE SMOOTH",
"586 700 LINE",
"564 700 LINE",
"564 265 LINE SMOOTH",
"564 80 OFFCURVE",
"465 13 OFFCURVE",
"343 13 CURVE SMOOTH",
"220 13 OFFCURVE",
"117 80 OFFCURVE",
"117 265 CURVE SMOOTH",
"117 700 LINE",
"95 700 LINE"
);
}
);
width = 681.00046;
},
{
anchors = (
{
name = ogonek;
position = "{437.25, 2}";
},
{
name = top;
position = "{354.25, 702}";
}
);
hints = (
{
place = "{50, 176}";
type = Stem;
},
{
place = "{486, 176}";
type = Stem;
},
{
horizontal = 1;
place = "{-7, 163}";
type = Stem;
},
{
horizontal = 1;
place = "{700, -20}";
target = down;
type = TopGhost;
}
);
layerId = "BAF31694-0472-4296-B0EA-1654553C45D2";
paths = (
{
closed = 1;
nodes = (
"52.25 284 LINE SMOOTH",
"52.25 90 OFFCURVE",
"188.25 -7 OFFCURVE",
"352.25 -7 CURVE SMOOTH",
"515.25 -7 OFFCURVE",
"662.25 90 OFFCURVE",
"662.25 284 CURVE SMOOTH",
"662.25 700 LINE",
"488.25 700 LINE",
"488.25 268 LINE SMOOTH",
"488.25 187 OFFCURVE",
"435.25 142 OFFCURVE",
"355.25 142 CURVE SMOOTH",
"276.25 142 OFFCURVE",
"226.25 187 OFFCURVE",
"226.25 268 CURVE SMOOTH",
"226.25 700 LINE",
"52.25 700 LINE"
);
}
);
width = 714.49981;
},
{
anchors = (
{
name = ogonek;
position = "{422.5, 0}";
},
{
name = top;
position = "{352.5, 693}";
}
);
hints = (
{
place = "{371, 80}";
type = Stem;
},
{
place = "{204, 71}";
type = Stem;
},
{
horizontal = 1;
place = "{-3, 21}";
target = up;
type = BottomGhost;
},
{
horizontal = 1;
place = "{700, -20}";
target = down;
type = TopGhost;
}
);
layerId = "9F107B1E-3A61-4335-981B-27DD48125C7E";
paths = (
{
closed = 1;
nodes = (
"85.5 259 LINE SMOOTH",
"85.5 76 OFFCURVE",
"210.5 -7 OFFCURVE",
"353.5 -7 CURVE SMOOTH",
"495.5 -7 OFFCURVE",
"621.5 76 OFFCURVE",
"621.5 259 CURVE SMOOTH",
"621.5 700 LINE",
"541.5 700 LINE",
"541.5 258 LINE SMOOTH",
"541.5 120 OFFCURVE",
"460.5 63 OFFCURVE",
"354.5 63 CURVE SMOOTH",
"247.5 63 OFFCURVE",
"165.5 120 OFFCURVE",
"165.5 258 CURVE SMOOTH",
"165.5 700 LINE",
"85.5 700 LINE"
);
}
);
width = 706.99755;
}
);
leftMetricsKey = "=H*0.95";
rightMetricsKey = "=H*0.95";
unicode = 0055;
},
{
glyphname = Uacute;
lastChange = "2021-08-28 10:10:43 +0000";
layers = (
{
components = (
{
alignment = -1;
name = U;
},
{
name = acute;
transform = "{1, 0, 0, 1.007, 231, 146.143}";
}
);
guideLines = (
{
position = "{0, 1470}";
}
);
layerId = "0CF0EA28-C756-4A9E-9D7C-CFEF350B4CFE";
width = 724.5;
},
{
background = {
hints = (
{
horizontal = 1;
place = "{-11, 47}";
type = Stem;
},
{
horizontal = 1;
place = "{680, 20}";
type = Stem;
},
{
horizontal = 1;
place = "{760, 21}";
type = Stem;
},
{
horizontal = 1;
place = "{873, 20}";
type = Stem;
},
{
place = "{93, 52}";
type = Stem;
},
{
place = "{615, 52}";
type = Stem;
}
);
paths = (
{
closed = 1;
nodes = (
"667 700 LINE",
"615 700 LINE",
"615 291 LINE SMOOTH",
"615 122 OFFCURVE",
"524 36 OFFCURVE",
"382 36 CURVE SMOOTH",
"234 36 OFFCURVE",
"145 131 OFFCURVE",
"145 296 CURVE SMOOTH",
"145 700 LINE",
"93 700 LINE",
"93 291 LINE SMOOTH",
"93 95 OFFCURVE",
"212 -11 OFFCURVE",
"380 -11 CURVE SMOOTH",
"550 -11 OFFCURVE",
"667 96 OFFCURVE",
"667 297 CURVE SMOOTH"
);
},
{
closed = 1;
nodes = (
"397 760 LINE",
"504 863 LINE",
"443 893 LINE",
"355 760 LINE"
);
}
);
};
components = (
{
alignment = -1;
name = U;
},
{
alignment = -1;
name = acute;
transform = "{1, 0, 0, 0.9943, 221, 142}";
}
);
layerId = "6E968933-CD79-43C6-9231-80D77C940F4D";
width = 680.99596;
},
{
components = (
{
alignment = -1;
name = U;
},
{
alignment = -1;
name = acute;
transform = "{1, 0, 0, 0.9943, 223, 146}";
}
);
layerId = "BAF31694-0472-4296-B0EA-1654553C45D2";
width = 714.50283;
},
{
components = (
{
alignment = -1;
name = U;
},
{
alignment = -1;
name = acute;
transform = "{1, 0, 0, 1.0022, 227, 145}";
}
);
layerId = "9F107B1E-3A61-4335-981B-27DD48125C7E";
width = 706.99599;
}
);
leftMetricsKey = U;
rightMetricsKey = U;
unicode = 00DA;
},
{
glyphname = Ucircumflex;
lastChange = "2021-08-28 10:10:43 +0000";
layers = (
{
components = (
{
alignment = -1;
name = U;
},
{
name = circumflex;
transform = "{1, 0, 0, 1.007, 206, 146.143}";
}
);
layerId = "0CF0EA28-C756-4A9E-9D7C-CFEF350B4CFE";
width = 724.5;
},
{
background = {
hints = (
{
horizontal = 1;
place = "{-11, 47}";
type = Stem;
},
{
horizontal = 1;
place = "{680, 20}";
type = Stem;
},
{
horizontal = 1;
place = "{760, 21}";
type = Stem;
},
{
horizontal = 1;
place = "{862, 20}";
type = Stem;
},
{
place = "{93, 52}";
type = Stem;
},
{
place = "{615, 52}";
type = Stem;
}
);
paths = (
{
closed = 1;
nodes = (
"667 700 LINE",
"615 700 LINE",
"615 291 LINE SMOOTH",
"615 122 OFFCURVE",
"524 36 OFFCURVE",
"382 36 CURVE SMOOTH",
"234 36 OFFCURVE",
"145 131 OFFCURVE",
"145 296 CURVE SMOOTH",
"145 700 LINE",
"93 700 LINE",
"93 291 LINE SMOOTH",
"93 95 OFFCURVE",
"212 -11 OFFCURVE",
"380 -11 CURVE SMOOTH",
"550 -11 OFFCURVE",
"667 96 OFFCURVE",
"667 297 CURVE SMOOTH"
);
},
{
closed = 1;
nodes = (
"379 828 LINE",
"453 760 LINE",
"500 760 LINE",
"400 882 LINE",
"360 882 LINE",
"260 760 LINE",
"305 760 LINE"
);
}
);
};
components = (
{
alignment = -1;
name = U;
},
{
alignment = -1;
name = circumflex;
transform = "{1, 0, 0, 0.9943, 204, 142}";
}
);
layerId = "6E968933-CD79-43C6-9231-80D77C940F4D";
width = 680.99596;
},
{
components = (
{
alignment = -1;
name = U;
},
{
alignment = -1;
name = circumflex;
transform = "{1, 0, 0, 0.9943, 192, 146}";
}
);
layerId = "BAF31694-0472-4296-B0EA-1654553C45D2";
width = 714.50283;
},
{
components = (
{
alignment = -1;
name = U;
},
{
alignment = -1;
name = circumflex;
transform = "{1, 0, 0, 1.0022, 205, 145}";
}
);
layerId = "9F107B1E-3A61-4335-981B-27DD48125C7E";
width = 706.99599;
}
);
leftMetricsKey = U;
rightMetricsKey = U;
unicode = 00DB;
},
{
glyphname = Udieresis;
lastChange = "2021-08-28 10:10:43 +0000";
layers = (
{
components = (
{
alignment = -1;
name = U;
},
{
name = dieresis;
transform = "{1, 0, 0, 1.007, 203, 146.143}";
}
);
layerId = "0CF0EA28-C756-4A9E-9D7C-CFEF350B4CFE";
width = 724.5;
},
{
background = {
hints = (
{
horizontal = 1;
place = "{-11, 47}";
type = Stem;
},
{
horizontal = 1;
place = "{680, 20}";
type = Stem;
},
{
horizontal = 1;
place = "{760, 80}";
type = Stem;
},
{
place = "{93, 52}";
type = Stem;
},
{
place = "{264, 69}";
type = Stem;
},
{
place = "{427, 69}";
type = Stem;
},
{
place = "{615, 52}";
type = Stem;
}
);
paths = (
{
closed = 1;
nodes = (
"667 700 LINE",
"615 700 LINE",
"615 291 LINE SMOOTH",
"615 122 OFFCURVE",
"524 36 OFFCURVE",
"382 36 CURVE SMOOTH",
"234 36 OFFCURVE",
"145 131 OFFCURVE",
"145 296 CURVE SMOOTH",
"145 700 LINE",
"93 700 LINE",
"93 291 LINE SMOOTH",
"93 95 OFFCURVE",
"212 -11 OFFCURVE",
"380 -11 CURVE SMOOTH",
"550 -11 OFFCURVE",
"667 96 OFFCURVE",
"667 297 CURVE SMOOTH"
);
},
{
closed = 1;
nodes = (
"496 760 LINE",
"496 840 LINE",
"427 840 LINE",
"427 760 LINE"
);
},
{
closed = 1;
nodes = (
"333 760 LINE",
"333 840 LINE",
"264 840 LINE",
"264 760 LINE"
);
}
);
};
components = (
{
alignment = -1;
name = U;
},
{
alignment = -1;
name = dieresis;
transform = "{1, 0, 0, 0.9943, 231, 142}";
}
);
layerId = "6E968933-CD79-43C6-9231-80D77C940F4D";
width = 680.99596;
},
{
components = (
{
alignment = -1;
name = U;
},
{
alignment = -1;
name = dieresis;
transform = "{1, 0, 0, 0.9943, 172, 146}";
}
);
layerId = "BAF31694-0472-4296-B0EA-1654553C45D2";
width = 714.50283;
},
{
components = (
{
alignment = -1;
name = U;
},
{
alignment = -1;
name = dieresis;
transform = "{1, 0, 0, 1.0022, 214, 145}";
}
);
layerId = "9F107B1E-3A61-4335-981B-27DD48125C7E";
width = 706.99599;
}
);
leftMetricsKey = U;
rightMetricsKey = U;
unicode = 00DC;
},
{
glyphname = Ugrave;
lastChange = "2021-08-28 10:10:43 +0000";
layers = (
{
components = (
{
alignment = -1;
name = U;
},
{
name = grave;
transform = "{1, 0, 0, 1.007, 231, 146.143}";
}
);
layerId = "0CF0EA28-C756-4A9E-9D7C-CFEF350B4CFE";
width = 724.5;
},
{
background = {
paths = (
{
closed = 1;
nodes = (
"667 700 LINE",
"615 700 LINE",
"615 291 LINE SMOOTH",
"615 122 OFFCURVE",
"524 36 OFFCURVE",
"382 36 CURVE SMOOTH",
"234 36 OFFCURVE",
"145 131 OFFCURVE",
"145 296 CURVE SMOOTH",
"145 700 LINE",
"93 700 LINE",
"93 291 LINE SMOOTH",
"93 95 OFFCURVE",
"212 -11 OFFCURVE",
"380 -11 CURVE SMOOTH",
"550 -11 OFFCURVE",
"667 96 OFFCURVE",
"667 297 CURVE SMOOTH"
);
},
{
closed = 1;
nodes = (
"363 760 LINE",
"405 760 LINE",
"317 893 LINE",
"256 863 LINE"
);
}
);
};
components = (
{
alignment = -1;
name = U;
},
{
alignment = -1;
name = grave;
transform = "{1, 0, 0, 0.9943, 221, 142}";
}
);
layerId = "6E968933-CD79-43C6-9231-80D77C940F4D";
width = 680.99596;
},
{
components = (
{
alignment = -1;
name = U;
},
{
alignment = -1;
name = grave;
transform = "{1, 0, 0, 0.9943, 223, 146}";
}
);
layerId = "BAF31694-0472-4296-B0EA-1654553C45D2";
width = 714.50283;
},
{
components = (
{
alignment = -1;
name = U;
},
{
alignment = -1;
name = grave;
transform = "{1, 0, 0, 1.0022, 227, 145}";
}
);
layerId = "9F107B1E-3A61-4335-981B-27DD48125C7E";
width = 706.99599;
}
);
leftMetricsKey = U;
rightMetricsKey = U;
unicode = 00D9;
},
{
glyphname = V;
lastChange = "2021-08-28 10:10:43 +0000";
layers = (
{
hints = (
{
horizontal = 1;
place = "{0, 21}";
target = up;
type = BottomGhost;
},
{
horizontal = 1;
place = "{700, -20}";
target = down;
type = TopGhost;
}
);
layerId = "0CF0EA28-C756-4A9E-9D7C-CFEF350B4CFE";
paths = (
{
closed = 1;
nodes = (
"355.83 117 LINE",
"149.33 700 LINE",
"28.33 700 LINE",
"289.83 0 LINE",
"421.83 0 LINE",
"683.33 700 LINE",
"562.33 700 LINE"
);
}
);
width = 711.66667;
},
{
background = {
hints = (
{
horizontal = 1;
place = "{-5, 21}";
type = Stem;
},
{
horizontal = 1;
place = "{680, 20}";
type = Stem;
}
);
paths = (
{
closed = 1;
nodes = (
"707.333 700 LINE",
"652.333 700 LINE",
"377.333 56 LINE",
"103.333 700 LINE",
"45.333 700 LINE",
"353.333 -5 LINE",
"399.333 -5 LINE"
);
}
);
};
hints = (
{
horizontal = 1;
place = "{700, -20}";
target = down;
type = TopGhost;
},
{
horizontal = 1;
place = "{0, 21}";
target = up;
type = BottomGhost;
}
);
layerId = "6E968933-CD79-43C6-9231-80D77C940F4D";
paths = (
{
closed = 1;
nodes = (
"313.333 32 LINE",
"58.333 700 LINE",
"33.333 700 LINE",
"302.333 0 LINE",
"324.333 0 LINE",
"594.333 700 LINE",
"570.333 700 LINE"
);
}
);
width = 627.67163;
},
{
hints = (
{
horizontal = 1;
place = "{0, 21}";
target = up;
type = BottomGhost;
},
{
horizontal = 1;
place = "{700, -20}";
target = down;
type = TopGhost;
}
);
layerId = "BAF31694-0472-4296-B0EA-1654553C45D2";
paths = (
{
closed = 1;
nodes = (
"376.83 176 LINE",
"205.33 700 LINE",
"18.33 700 LINE",
"266.33 0 LINE",
"487.33 0 LINE",
"735.33 700 LINE",
"548.33 700 LINE"
);
}
);
width = 753.66812;
},
{
hints = (
{
horizontal = 1;
place = "{700, -20}";
target = down;
type = TopGhost;
},
{
horizontal = 1;
place = "{0, 21}";
target = up;
type = BottomGhost;
}
);
layerId = "9F107B1E-3A61-4335-981B-27DD48125C7E";
paths = (
{
closed = 1;
nodes = (
"340.003 85 LINE",
"115.003 700 LINE",
"30.003 700 LINE",
"292.003 0 LINE",
"384.003 0 LINE",
"650.003 700 LINE",
"565.003 700 LINE"
);
}
);
width = 680.00436;
}
);
leftMetricsKey = "=H/3";
rightMetricsKey = "=H/3";
unicode = 0056;
},
{
glyphname = W;
lastChange = "2021-08-28 10:10:43 +0000";
layers = (
{
hints = (
{
horizontal = 1;
place = "{700, -20}";
target = down;
type = TopGhost;
}
);
layerId = "0CF0EA28-C756-4A9E-9D7C-CFEF350B4CFE";
paths = (
{
closed = 1;
nodes = (
"508.83 529 LINE",
"659.33 0 LINE",
"787.83 0 LINE",
"989.33 700 LINE",
"867.83 700 LINE",
"723.33 132 LINE",
"572.83 700 LINE",
"444.83 700 LINE",
"294.33 130 LINE",
"149.83 700 LINE",
"28.33 700 LINE",
"229.83 0 LINE",
"358.33 0 LINE"
);
}
);
width = 1017.67;
},
{
background = {
hints = (
{
horizontal = 1;
place = "{-5, 21}";
type = Stem;
},
{
horizontal = 1;
place = "{680, 20}";
type = Stem;
},
{
horizontal = 1;
place = "{682, 20}";
type = Stem;
}
);
paths = (
{
closed = 1;
nodes = (
"1053.33 700 LINE",
"999.33 700 LINE",
"779.33 77 LINE",
"574.33 702 LINE",
"534.33 702 LINE",
"329.33 77 LINE",
"109.33 700 LINE",
"51.33 700 LINE",
"305.33 -5 LINE",
"347.33 -5 LINE",
"552.33 603 LINE",
"757.33 -5 LINE",
"799.33 -5 LINE"
);
}
);
};
hints = (
{
horizontal = 1;
place = "{700, -20}";
target = down;
type = TopGhost;
},
{
horizontal = 1;
place = "{0, 21}";
target = up;
type = BottomGhost;
}
);
layerId = "6E968933-CD79-43C6-9231-80D77C940F4D";
paths = (
{
closed = 1;
nodes = (
"451.93 664 LINE",
"659.83 0 LINE",
"680.83 0 LINE",
"870.33 700 LINE",
"845.83 700 LINE",
"669.83 41 LINE",
"463.83 700 LINE",
"439.83 700 LINE",
"233.83 41 LINE",
"57.83 700 LINE",
"33.33 700 LINE",
"222.83 0 LINE",
"243.83 0 LINE"
);
}
);
width = 903.67298;
},
{
hints = (
{
horizontal = 1;
place = "{700, -20}";
target = down;
type = TopGhost;
}
);
layerId = "BAF31694-0472-4296-B0EA-1654553C45D2";
paths = (
{
closed = 1;
nodes = (
"521.83 453 LINE",
"632.83 0 LINE",
"846.33 0 LINE",
"1025.33 700 LINE",
"835.83 700 LINE",
"737.33 206 LINE",
"620.33 700 LINE",
"426.33 700 LINE",
"306.33 205 LINE",
"207.83 700 LINE",
"18.33 700 LINE",
"197.33 0 LINE",
"410.83 0 LINE"
);
}
);
width = 1043.6667;
},
{
hints = (
{
horizontal = 1;
place = "{700, -20}";
target = down;
type = TopGhost;
},
{
horizontal = 1;
place = "{0, 21}";
target = up;
type = BottomGhost;
}
);
layerId = "9F107B1E-3A61-4335-981B-27DD48125C7E";
paths = (
{
closed = 1;
nodes = (
"487 580 LINE",
"659 0 LINE",
"747 0 LINE",
"944 700 LINE",
"859.5 700 LINE",
"703 98 LINE",
"531.5 700 LINE",
"442.5 700 LINE",
"271 97 LINE",
"114.5 700 LINE",
"30 700 LINE",
"227 0 LINE",
"315 0 LINE"
);
}
);
width = 974.00362;
}
);
leftMetricsKey = V;
rightMetricsKey = V;
unicode = 0057;
},
{
glyphname = X;
lastChange = "2021-08-28 10:10:43 +0000";
layers = (
{
hints = (
{
horizontal = 1;
place = "{700, -20}";
target = down;
type = TopGhost;
},
{
horizontal = 1;
place = "{0, 21}";
target = up;
type = BottomGhost;
}
);
layerId = "0CF0EA28-C756-4A9E-9D7C-CFEF350B4CFE";
paths = (
{
closed = 1;
nodes = (
"487.608 0 LINE",
"615.608 0 LINE",
"183.608 700 LINE",
"56.608 700 LINE"
);
},
{
closed = 1;
nodes = (
"291.608 380 LINE",
"57.608 0 LINE",
"183.608 0 LINE",
"352.608 292 LINE"
);
},
{
closed = 1;
nodes = (
"381.608 319 LINE",
"616.608 700 LINE",
"489.608 700 LINE",
"320.608 408 LINE"
);
}
);
width = 673.216;
},
{
background = {
hints = (
{
horizontal = 1;
place = "{0, 21}";
type = Stem;
},
{
horizontal = 1;
place = "{680, 20}";
type = Stem;
}
);
paths = (
{
closed = 1;
nodes = (
"673.66 0 LINE",
"395.66 358 LINE",
"663.66 700 LINE",
"602.66 700 LINE",
"364.66 392 LINE",
"125.66 700 LINE",
"63.66 700 LINE",
"332.66 357 LINE",
"53.66 0 LINE",
"114.66 0 LINE",
"362.66 323 LINE",
"611.66 0 LINE"
);
}
);
};
hints = (
{
horizontal = 1;
place = "{700, -20}";
target = down;
type = TopGhost;
},
{
horizontal = 1;
place = "{0, 21}";
target = up;
type = BottomGhost;
}
);
layerId = "6E968933-CD79-43C6-9231-80D77C940F4D";
paths = (
{
closed = 1;
nodes = (
"483.596 0 LINE",
"508.596 0 LINE",
"91.596 700 LINE",
"66.596 700 LINE"
);
},
{
closed = 1;
nodes = (
"280.596 369 LINE",
"66.596 0 LINE",
"91.596 0 LINE",
"297.596 358 LINE"
);
},
{
closed = 1;
nodes = (
"296.596 345 LINE",
"508.596 700 LINE",
"483.596 700 LINE",
"279.596 356 LINE"
);
}
);
width = 575.1945;
},
{
hints = (
{
horizontal = 1;
place = "{700, -20}";
target = down;
type = TopGhost;
},
{
horizontal = 1;
place = "{0, 21}";
target = up;
type = BottomGhost;
}
);
layerId = "BAF31694-0472-4296-B0EA-1654553C45D2";
paths = (
{
closed = 1;
nodes = (
"508.63 0 LINE",
"714.63 0 LINE",
"242.63 700 LINE",
"36.63 700 LINE"
);
},
{
closed = 1;
nodes = (
"295.63 398 LINE",
"42.63 0 LINE",
"242.63 0 LINE",
"396.63 262 LINE"
);
},
{
closed = 1;
nodes = (
"451.63 302 LINE",
"704.63 700 LINE",
"504.63 700 LINE",
"350.63 438 LINE"
);
}
);
width = 751.26616;
},
{
hints = (
{
horizontal = 1;
place = "{700, -20}";
target = down;
type = TopGhost;
},
{
horizontal = 1;
place = "{0, 21}";
target = up;
type = BottomGhost;
}
);
layerId = "9F107B1E-3A61-4335-981B-27DD48125C7E";
paths = (
{
closed = 1;
nodes = (
"484.94 0 LINE",
"574.94 0 LINE",
"147.94 700 LINE",
"59.94 700 LINE"
);
},
{
closed = 1;
nodes = (
"286.94 376 LINE",
"59.94 0 LINE",
"147.94 0 LINE",
"330.94 317 LINE"
);
},
{
closed = 1;
nodes = (
"348.94 329 LINE",
"574.94 700 LINE",
"486.94 700 LINE",
"303.94 389 LINE"
);
}
);
width = 634.87835;
}
);
leftMetricsKey = "=H*0.666";
rightMetricsKey = "=H*0.666";
unicode = 0058;
},
{
glyphname = Y;
lastChange = "2021-08-28 10:10:43 +0000";
layers = (
{
anchors = (
{
name = top;
position = "{315.33, 701}";
}
);
hints = (
{
place = "{259, 114}";
type = Stem;
},
{
horizontal = 1;
place = "{700, -20}";
target = down;
type = TopGhost;
},
{
horizontal = 1;
place = "{0, 21}";
target = up;
type = BottomGhost;
}
);
layerId = "0CF0EA28-C756-4A9E-9D7C-CFEF350B4CFE";
paths = (
{
closed = 1;
nodes = (
"315.33 356 LINE",
"154.33 700 LINE",
"28.33 700 LINE",
"258.33 253 LINE",
"258.33 0 LINE",
"372.33 0 LINE",
"372.33 254 LINE",
"603.33 700 LINE",
"476.33 700 LINE"
);
}
);
width = 631.67;
},
{
anchors = (
{
name = top;
position = "{264.33, 679}";
}
);
background = {
hints = (
{
horizontal = 1;
place = "{0, 21}";
type = Stem;
},
{
horizontal = 1;
place = "{680, 20}";
type = Stem;
},
{
place = "{332, 52}";
type = Stem;
}
);
paths = (
{
closed = 1;
nodes = (
"685.33 700 LINE",
"623.33 700 LINE",
"360.33 324 LINE",
"98.33 700 LINE",
"33.33 700 LINE",
"333.33 277 LINE",
"333.33 0 LINE",
"385.33 0 LINE",
"385.33 278 LINE"
);
}
);
};
hints = (
{
place = "{255, 22}";
type = Stem;
},
{
horizontal = 1;
place = "{700, -20}";
target = down;
type = TopGhost;
},
{
horizontal = 1;
place = "{0, 21}";
target = up;
type = BottomGhost;
}
);
layerId = "6E968933-CD79-43C6-9231-80D77C940F4D";
paths = (
{
closed = 1;
nodes = (
"264.33 316 LINE",
"57.33 700 LINE",
"33.33 700 LINE",
"253.33 294 LINE",
"253.33 0 LINE",
"275.33 0 LINE",
"275.33 294 LINE",
"493.33 700 LINE",
"471.33 700 LINE"
);
}
);
width = 526.67489;
},
{
anchors = (
{
name = top;
position = "{350.83, 702}";
}
);
hints = (
{
place = "{263, 176}";
type = Stem;
},
{
horizontal = 1;
place = "{700, -20}";
target = down;
type = TopGhost;
},
{
horizontal = 1;
place = "{0, 21}";
target = up;
type = BottomGhost;
}
);
layerId = "BAF31694-0472-4296-B0EA-1654553C45D2";
paths = (
{
closed = 1;
nodes = (
"350.83 411 LINE",
"217.33 700 LINE",
"18.33 700 LINE",
"263.83 230 LINE",
"263.83 0 LINE",
"437.83 0 LINE",
"437.83 230 LINE",
"683.33 700 LINE",
"484.33 700 LINE"
);
}
);
width = 701.67151;
},
{
anchors = (
{
name = top;
position = "{296, 693}";
}
);
hints = (
{
place = "{258, 80}";
type = Stem;
},
{
horizontal = 1;
place = "{700, -20}";
target = down;
type = TopGhost;
},
{
horizontal = 1;
place = "{0, 21}";
target = up;
type = BottomGhost;
}
);
layerId = "9F107B1E-3A61-4335-981B-27DD48125C7E";
paths = (
{
closed = 1;
nodes = (
"296 345 LINE",
"119 700 LINE",
"30 700 LINE",
"256 268 LINE",
"256 0 LINE",
"336 0 LINE",
"336 269 LINE",
"562 700 LINE",
"473 700 LINE"
);
}
);
width = 591.99933;
}
);
leftMetricsKey = V;
rightMetricsKey = V;
unicode = 0059;
},
{
glyphname = Yacute;
lastChange = "2021-08-28 10:10:43 +0000";
layers = (
{
components = (
{
alignment = -1;
name = Y;
},
{
name = acute;
transform = "{1, 0, 0, 1.007, 184.58, 146.143}";
}
);
layerId = "0CF0EA28-C756-4A9E-9D7C-CFEF350B4CFE";
width = 631.67;
},
{
background = {
hints = (
{
horizontal = 1;
place = "{0, 21}";
type = Stem;
},
{
horizontal = 1;
place = "{680, 20}";
type = Stem;
},
{
horizontal = 1;
place = "{760, 21}";
type = Stem;
},
{
horizontal = 1;
place = "{873, 20}";
type = Stem;
},
{
place = "{332, 52}";
type = Stem;
}
);
paths = (
{
closed = 1;
nodes = (
"684 700 LINE",
"622 700 LINE",
"359 324 LINE",
"97 700 LINE",
"32 700 LINE",
"332 277 LINE",
"332 0 LINE",
"384 0 LINE",
"384 278 LINE"
);
},
{
closed = 1;
nodes = (
"382 760 LINE",
"489 863 LINE",
"428 893 LINE",
"340 760 LINE"
);
}
);
};
components = (
{
alignment = -1;
name = Y;
},
{
alignment = -1;
name = acute;
transform = "{1, 0, 0, 0.9943, 143, 142}";
}
);
layerId = "6E968933-CD79-43C6-9231-80D77C940F4D";
width = 526.67489;
},
{
components = (
{
alignment = -1;
name = Y;
},
{
alignment = -1;
name = acute;
transform = "{1, 0, 0, 0.9943, 218, 146}";
}
);
layerId = "BAF31694-0472-4296-B0EA-1654553C45D2";
width = 701.67151;
},
{
components = (
{
alignment = -1;
name = Y;
},
{
alignment = -1;
name = acute;
transform = "{1, 0, 0, 1.0022, 170, 145}";
}
);
layerId = "9F107B1E-3A61-4335-981B-27DD48125C7E";
width = 591.99933;
}
);
leftMetricsKey = Y;
rightMetricsKey = Y;
unicode = 00DD;
},
{
glyphname = Ydieresis;
lastChange = "2021-08-28 10:10:43 +0000";
layers = (
{
components = (
{
alignment = -1;
name = Y;
},
{
name = dieresis;
transform = "{1, 0, 0, 1.007, 156.58, 146.143}";
}
);
layerId = "0CF0EA28-C756-4A9E-9D7C-CFEF350B4CFE";
width = 631.67;
},
{
background = {
hints = (
{
horizontal = 1;
place = "{0, 21}";
type = Stem;
},
{
horizontal = 1;
place = "{680, 20}";
type = Stem;
},
{
horizontal = 1;
place = "{760, 80}";
type = Stem;
},
{
place = "{242, 69}";
type = Stem;
},
{
place = "{332, 52}";
type = Stem;
},
{
place = "{405, 69}";
type = Stem;
}
);
paths = (
{
closed = 1;
nodes = (
"684 700 LINE",
"622 700 LINE",
"359 324 LINE",
"97 700 LINE",
"32 700 LINE",
"332 277 LINE",
"332 0 LINE",
"384 0 LINE",
"384 278 LINE"
);
},
{
closed = 1;
nodes = (
"474 760 LINE",
"474 840 LINE",
"405 840 LINE",
"405 760 LINE"
);
},
{
closed = 1;
nodes = (
"311 760 LINE",
"311 840 LINE",
"242 840 LINE",
"242 760 LINE"
);
}
);
};
components = (
{
alignment = -1;
name = Y;
},
{
alignment = -1;
name = dieresis;
transform = "{1, 0, 0, 0.9943, 153, 142}";
}
);
layerId = "6E968933-CD79-43C6-9231-80D77C940F4D";
width = 526.67489;
},
{
components = (
{
alignment = -1;
name = Y;
},
{
alignment = -1;
name = dieresis;
transform = "{1, 0, 0, 0.9943, 167, 146}";
}
);
layerId = "BAF31694-0472-4296-B0EA-1654553C45D2";
width = 701.67151;
},
{
components = (
{
alignment = -1;
name = Y;
},
{
alignment = -1;
name = dieresis;
transform = "{1, 0, 0, 1.0022, 156, 145}";
}
);
layerId = "9F107B1E-3A61-4335-981B-27DD48125C7E";
width = 591.99933;
}
);
leftMetricsKey = Y;
rightMetricsKey = Y;
unicode = 0178;
},
{
glyphname = Z;
lastChange = "2021-08-28 10:10:43 +0000";
layers = (
{
anchors = (
{
name = top;
position = "{285.608, 701}";
}
);
hints = (
{
horizontal = 1;
place = "{0, 99}";
type = Stem;
},
{
horizontal = 1;
place = "{601, 100}";
type = Stem;
}
);
layerId = "0CF0EA28-C756-4A9E-9D7C-CFEF350B4CFE";
paths = (
{
closed = 1;
nodes = (
"554.608 700 LINE",
"56.608 700 LINE",
"56.608 605 LINE",
"418.608 605 LINE",
"56.608 85 LINE",
"56.608 0 LINE",
"554.608 0 LINE",
"554.608 95 LINE",
"191.608 95 LINE",
"554.608 615 LINE"
);
}
);
width = 611.218;
},
{
anchors = (
{
name = top;
position = "{276.596, 679}";
}
);
background = {
hints = (
{
horizontal = 1;
place = "{0, 47}";
type = Stem;
},
{
horizontal = 1;
place = "{653, 47}";
type = Stem;
}
);
paths = (
{
closed = 1;
nodes = (
"623.66 0 LINE",
"623.66 47 LINE",
"144.66 47 LINE",
"623.66 671 LINE",
"623.66 700 LINE",
"87.66 700 LINE",
"87.66 653 LINE",
"549.66 653 LINE",
"70.66 29 LINE",
"70.66 0 LINE"
);
}
);
};
hints = (
{
horizontal = 1;
place = "{678, 22}";
type = Stem;
},
{
horizontal = 1;
place = "{0, 21}";
target = up;
type = BottomGhost;
}
);
layerId = "6E968933-CD79-43C6-9231-80D77C940F4D";
paths = (
{
closed = 1;
nodes = (
"514.596 700 LINE",
"78.596 700 LINE",
"78.596 678 LINE",
"490.596 678 LINE",
"66.596 20 LINE",
"66.596 0 LINE",
"524.596 0 LINE",
"524.596 21 LINE",
"90.596 21 LINE",
"514.596 679 LINE"
);
}
);
width = 591.19681;
},
{
anchors = (
{
name = top;
position = "{285.63, 702}";
}
);
hints = (
{
horizontal = 1;
place = "{0, 144}";
type = Stem;
},
{
horizontal = 1;
place = "{557, 144}";
type = Stem;
}
);
layerId = "BAF31694-0472-4296-B0EA-1654553C45D2";
paths = (
{
closed = 1;
nodes = (
"575.63 700 LINE",
"36.63 700 LINE",
"36.63 554 LINE",
"372.63 554 LINE",
"36.63 136 LINE",
"36.63 0 LINE",
"575.63 0 LINE",
"575.63 146 LINE",
"236.63 146 LINE",
"575.63 563 LINE"
);
}
);
width = 612.26205;
},
{
anchors = (
{
name = top;
position = "{280.94, 693}";
}
);
hints = (
{
horizontal = 1;
place = "{630, 71}";
type = Stem;
},
{
horizontal = 1;
place = "{0, 21}";
target = up;
type = BottomGhost;
}
);
layerId = "9F107B1E-3A61-4335-981B-27DD48125C7E";
paths = (
{
closed = 1;
nodes = (
"538.94 700 LINE",
"63.94 700 LINE",
"63.94 630 LINE",
"444.94 630 LINE",
"59.94 63 LINE",
"59.94 0 LINE",
"542.94 0 LINE",
"542.94 70 LINE",
"152.94 70 LINE",
"538.94 637 LINE"
);
}
);
width = 602.8773;
}
);
leftMetricsKey = "=H*0.666";
rightMetricsKey = "=H*0.666";
unicode = 005A;
},
